<svg class="animated" id="freepik_stories-selfie" xmlns="http://www.w3.org/2000/svg" viewBox="0 0 750 500" version="1.1" xmlns:xlink="http://www.w3.org/1999/xlink" xmlns:svgjs="http://svgjs.com/svgjs"><style>svg#freepik_stories-selfie:not(.animated) .animable {opacity: 0;}svg#freepik_stories-selfie.animated #freepik--background-complete--inject-6 {animation: 1s 1 forwards cubic-bezier(.36,-0.01,.5,1.38) zoomIn;animation-delay: 0s;}svg#freepik_stories-selfie.animated #freepik--Floor--inject-6 {animation: 1s 1 forwards cubic-bezier(.36,-0.01,.5,1.38) slideLeft;animation-delay: 0s;}svg#freepik_stories-selfie.animated #freepik--Selfie--inject-6 {animation: 1s 1 forwards cubic-bezier(.36,-0.01,.5,1.38) lightSpeedRight,1.5s Infinite  linear floating;animation-delay: 0s,1s;}svg#freepik_stories-selfie.animated #freepik--Character--inject-6 {animation: 1s 1 forwards cubic-bezier(.36,-0.01,.5,1.38) zoomIn;animation-delay: 0s;}svg#freepik_stories-selfie.animated #freepik--Plant--inject-6 {animation: 1s 1 forwards cubic-bezier(.36,-0.01,.5,1.38) slideDown;animation-delay: 0s;}            @keyframes zoomIn {                0% {                    opacity: 0;                    transform: scale(0.5);                }                100% {                    opacity: 1;                    transform: scale(1);                }            }                    @keyframes slideLeft {                0% {                    opacity: 0;                    transform: translateX(-30px);                }                100% {                    opacity: 1;                    transform: translateX(0);                }            }                    @keyframes lightSpeedRight {              from {                transform: translate3d(50%, 0, 0) skewX(-20deg);                opacity: 0;              }              60% {                transform: skewX(10deg);                opacity: 1;              }              80% {                transform: skewX(-2deg);              }              to {                opacity: 1;                transform: translate3d(0, 0, 0);              }            }                    @keyframes floating {                0% {                    opacity: 1;                    transform: translateY(0px);                }                50% {                    transform: translateY(-10px);                }                100% {                    opacity: 1;                    transform: translateY(0px);                }            }                    @keyframes slideDown {                0% {                    opacity: 0;                    transform: translateY(-30px);                }                100% {                    opacity: 1;                    transform: translateY(0);                }            }        </style><g id="freepik--background-complete--inject-6" class="animable" style="transform-origin: 355.042px 257.94px;"><polygon points="472.03 374.73 451.64 463.24 460.26 463.22 480.69 375.56 472.03 374.73" style="fill: rgb(224, 224, 224); transform-origin: 466.165px 418.985px;" id="el38t9rolb5w1" class="animable"></polygon><polygon points="509.22 374.73 529.68 463.24 537.87 463.24 518.07 374.73 509.22 374.73" style="fill: rgb(224, 224, 224); transform-origin: 523.545px 418.985px;" id="el8gfts90ag15" class="animable"></polygon><polygon points="458.27 308.25 469.88 369.19 483.07 369.19 470.67 308.25 458.27 308.25" style="fill: rgb(224, 224, 224); transform-origin: 470.67px 338.72px;" id="elj5frhxw1edo" class="animable"></polygon><polygon points="256.1 374.73 239.47 463.24 247.94 463.24 265.31 374.73 256.1 374.73" style="fill: rgb(224, 224, 224); transform-origin: 252.39px 418.985px;" id="el7sgwh0vsylp" class="animable"></polygon><polygon points="291.06 374.73 310.07 462.75 318.44 462.75 300.08 374.73 291.06 374.73" style="fill: rgb(224, 224, 224); transform-origin: 304.75px 418.74px;" id="el4qyy1bfrepo" class="animable"></polygon><polygon points="242.34 308.25 253.94 369.19 267.13 369.19 254.74 308.25 242.34 308.25" style="fill: rgb(224, 224, 224); transform-origin: 254.735px 338.72px;" id="elb5h9q31r0ci" class="animable"></polygon><polygon points="216.22 302.7 218.59 313.79 483.46 313.79 480.37 302.7 216.22 302.7" style="fill: rgb(235, 235, 235); transform-origin: 349.84px 308.245px;" id="elfq5bcsad0a" class="animable"></polygon><polygon points="221.28 324.22 224.08 335.3 487.15 335.3 484.76 324.22 221.28 324.22" style="fill: rgb(235, 235, 235); transform-origin: 354.215px 329.76px;" id="elgbls6nuv7cb" class="animable"></polygon><polygon points="226.51 346.5 229.12 357.58 491.37 357.58 488.89 346.5 226.51 346.5" style="fill: rgb(235, 235, 235); transform-origin: 358.94px 352.04px;" id="el7igbysai5ek" class="animable"></polygon><rect x="246.56" y="369.18" width="282.8" height="11.08" style="fill: rgb(235, 235, 235); transform-origin: 387.96px 374.72px;" id="eld9khp89jbh" class="animable"></rect><path d="M160.65,452.46c15-13.6,15.95-35.4,12.83-54.47-.52-3.19-.6-6.61-2.48-9.22s-5.68-4.07-8.37-2.35c-2.23,1.42-2.91,4.32-3.95,6.77a18.71,18.71,0,0,1-6.58,8.13c-1.9,1.32-4.33,2.29-6.49,1.44-3-1.16-3.77-4.93-4.16-8.12q-1.08-8.89-2.17-17.8c-.39-3.18-.8-6.43-2.18-9.32s-3.93-5.42-7.06-5.88-6.65,1.77-6.89,5a29.71,29.71,0,0,0,.42,4c.08,1.33-.35,2.87-1.55,3.4s-2.62-.2-3.69-1c-3.69-2.79-6.45-6.64-9.06-10.48s-5.18-7.8-8.61-10.92-7.91-5.37-12.49-5-9.09,3.76-9.66,8.38,2.62,8.85,5.94,12.11A71,71,0,0,0,101,379.21a6,6,0,0,1,2.82,2.34c1,2-.78,4.4-2.78,5.37-2.27,1.09-4.87,1.18-7.32,1.79s-5,2.05-5.62,4.51c-.89,3.42,2.27,6.48,5.23,8.37a61.43,61.43,0,0,0,19.34,8.07c2.45.56,5,1,7.11,2.39s3.61,4.12,2.75,6.51-3.68,3.48-6.19,3.34-4.88-1.19-7.32-1.77c-4.59-1.09-10.19-.06-12.51,4.08a10.13,10.13,0,0,0,.08,9,23.29,23.29,0,0,0,5.83,7.24,61.59,61.59,0,0,0,28.48,15c10.59,2.22,20.11,2,29.71-3" style="fill: rgb(235, 235, 235); transform-origin: 126.684px 401.698px;" id="elx4l753dt2e" class="animable"></path><path d="M162.73,466.63a141,141,0,0,0-8.57-25.55,285.23,285.23,0,0,0-15.26-29.23l-4.4-7.46c-1.44-2.44-2.88-4.87-4.43-7.15a144.87,144.87,0,0,0-9.66-12.61c-3.27-3.87-6.51-7.41-9.57-10.71s-6-6.3-8.75-8.93a114.11,114.11,0,0,0-14-11.44c-1.75-1.21-3.14-2.11-4.09-2.71l-1.09-.67a1.69,1.69,0,0,0-.38-.21,2.14,2.14,0,0,0,.35.26l1,.72c.93.63,2.3,1.56,4,2.8a122.13,122.13,0,0,1,13.84,11.55c2.74,2.65,5.63,5.67,8.67,9s6.27,6.86,9.51,10.72a145.23,145.23,0,0,1,9.6,12.59c1.54,2.27,3,4.68,4.41,7.13l4.39,7.45a296.35,296.35,0,0,1,15.28,29.15,144.19,144.19,0,0,1,8.66,25.42" style="fill: rgb(224, 224, 224); transform-origin: 122.63px 408.355px;" id="elpqc62202rk" class="animable"></path><path d="M129.9,397.24a7,7,0,0,0,.13-1.4c.06-.9.09-2.2.11-3.82.05-3.22,0-7.68-.17-12.59s-.15-9.36-.06-12.57c0-1.61.09-2.91.13-3.81a6.45,6.45,0,0,0,0-1.41,6.57,6.57,0,0,0-.23,1.39c-.11.89-.22,2.2-.32,3.81-.2,3.22-.23,7.68-.11,12.6s.25,9.23.35,12.58c0,1.52.05,2.79.07,3.82A6.85,6.85,0,0,0,129.9,397.24Z" style="fill: rgb(224, 224, 224); transform-origin: 129.734px 379.44px;" id="el9dln3tf2hu4" class="animable"></path><path d="M88,394.86a9.05,9.05,0,0,0,1.65,0c1.07,0,2.6-.11,4.5-.13,3.8-.08,9,0,14.84.34s11,.88,14.78,1.38c1.89.24,3.41.47,4.46.62a8.94,8.94,0,0,0,1.65.19,8.78,8.78,0,0,0-1.61-.42c-1-.22-2.56-.52-4.44-.81-3.77-.6-9-1.21-14.81-1.56a143.8,143.8,0,0,0-14.88-.16c-1.91.08-3.44.21-4.5.32A8.58,8.58,0,0,0,88,394.86Z" style="fill: rgb(224, 224, 224); transform-origin: 108.94px 395.725px;" id="el5u3h2s8hfbg" class="animable"></path><path d="M153.56,440.39a2.05,2.05,0,0,0,.22-.53c.13-.43.3-.94.51-1.57.43-1.37,1-3.36,1.69-5.83,1.38-4.94,3.05-11.82,4.8-19.44s3.36-14.51,4.63-19.47c.62-2.41,1.13-4.39,1.52-5.87.16-.64.29-1.17.4-1.6a2.37,2.37,0,0,0,.1-.57,2.57,2.57,0,0,0-.22.54c-.13.42-.3.94-.5,1.56-.44,1.37-1,3.36-1.7,5.83-1.37,4.94-3,11.82-4.8,19.44s-3.36,14.51-4.63,19.47l-1.51,5.87c-.17.64-.3,1.17-.41,1.6A2.45,2.45,0,0,0,153.56,440.39Z" style="fill: rgb(224, 224, 224); transform-origin: 160.495px 412.95px;" id="elearqgrrrey7" class="animable"></path><path d="M97,429.87a2.3,2.3,0,0,0,.57.15l1.65.33,6.06,1.14c5.12,1,12.17,2.37,20,3.93s14.87,2.92,20,3.77c2.57.43,4.66.76,6.1.95l1.66.22a2.19,2.19,0,0,0,.59,0,2.3,2.3,0,0,0-.57-.15l-1.64-.33-6.06-1.13c-5.12-1-12.18-2.37-20-3.94s-14.87-2.91-20-3.77c-2.57-.43-4.65-.75-6.1-.95l-1.66-.22A2.21,2.21,0,0,0,97,429.87Z" style="fill: rgb(224, 224, 224); transform-origin: 125.315px 435.115px;" id="elkjtylv22tko" class="animable"></path><g id="eli7w410hf1bg"><rect x="127.24" y="51.66" width="213.59" height="283.18" style="fill: rgb(224, 224, 224); transform-origin: 234.035px 193.25px; transform: rotate(-1.38deg);" class="animable" id="elwvanwcmy3nm"></rect></g><g id="elkikqp6l2cs8"><rect x="143.85" y="64.89" width="213.59" height="283.18" style="fill: rgb(235, 235, 235); transform-origin: 250.645px 206.48px; transform: rotate(-1.38deg);" class="animable" id="el2p614w6xxci"></rect></g><path d="M537.89,170h93.75s-8.29-15.08-32.42-12.89c-23.05,2.1-24.22-7.42-35.94-8.59S541.8,156.36,537.89,170Z" style="fill: rgb(235, 235, 235); transform-origin: 584.765px 159.209px;" id="elpl4zl0ler" class="animable"></path><path d="M510.21,228.92h61.33s-5.43-9.87-21.21-8.43c-15.08,1.37-15.84-4.85-23.51-5.62S512.77,220,510.21,228.92Z" style="fill: rgb(235, 235, 235); transform-origin: 540.875px 221.861px;" id="elgjb91rf4mer" class="animable"></path><path d="M423.38,110.85H540.87s-10.38-18.91-40.63-16.16c-28.88,2.63-30.35-9.3-45-10.77S428.28,93.71,423.38,110.85Z" style="fill: rgb(224, 224, 224); transform-origin: 482.125px 97.3207px;" id="elrdfnu9duu5" class="animable"></path></g><g id="freepik--Floor--inject-6" class="animable" style="transform-origin: 386.78px 463.25px;"><path d="M671.56,463.24c0,.14-127.51.26-284.76.26s-284.8-.12-284.8-.26S229.49,463,386.8,463,671.56,463.09,671.56,463.24Z" style="fill: rgb(38, 50, 56); transform-origin: 386.78px 463.25px;" id="elcim8v7tnwu9" class="animable"></path></g><g id="freepik--Selfie--inject-6" class="animable" style="transform-origin: 252.268px 188.545px;"><g id="elf0y23ry5hus"><rect x="145.6" y="46.95" width="213.59" height="283.18" style="fill: rgb(250, 250, 250); transform-origin: 252.395px 188.54px; transform: rotate(-7.74deg);" class="animable" id="elozdgwdp23y"></rect></g><path d="M377.27,314.46c-.28-2-15.63-114.31-38.35-280.57l.26.2L127.57,62.86h0l.22-.3C141.94,167,155.08,263.9,165.84,343.18l-.24-.18,211.67-28.54-211.62,29-.21,0,0-.21C154.63,264,141.46,167.11,127.25,62.64l0-.25.25,0h0L339.12,33.63l.23,0,0,.23C361.83,200.12,377,312.41,377.27,314.46Z" style="fill: rgb(38, 50, 56); transform-origin: 252.26px 188.545px;" id="eldhfl97l4qdb" class="animable"></path><path d="M156,87.61a3.52,3.52,0,0,0,1.63-3.49,3.28,3.28,0,1,0-6.5.86,3.49,3.49,0,0,0,2.51,3,5.25,5.25,0,0,0-3.89,4.37,7.46,7.46,0,0,0,4.84,1.82l2-.26a7.48,7.48,0,0,0,4.24-3.07A5.15,5.15,0,0,0,156,87.61Z" style="fill: rgb(69, 90, 100); transform-origin: 155.29px 87.6681px;" id="elw9b9vxv44l" class="animable"></path><path d="M155.59,94.06c0-.06.65-.13,1.73-.58a7.46,7.46,0,0,0,3.57-3.24,7.26,7.26,0,0,0,.06-6.9,7.16,7.16,0,0,0-2.94-3,7.14,7.14,0,0,0-8.4,1.14,7.13,7.13,0,0,0-2,3.64,7.28,7.28,0,0,0,1.9,6.64,7.45,7.45,0,0,0,4.3,2.16c1.16.15,1.82,0,1.82.1a1.69,1.69,0,0,1-.47.1,6,6,0,0,1-1.38,0,7.4,7.4,0,0,1-4.56-2.1,7.63,7.63,0,0,1-1.89-3,7.74,7.74,0,0,1-.24-4,7.6,7.6,0,0,1,2.17-3.93,7.68,7.68,0,0,1,9.06-1.23,7.68,7.68,0,0,1,4,7.17,7.55,7.55,0,0,1-4.86,6.63,6.61,6.61,0,0,1-1.33.34A1.46,1.46,0,0,1,155.59,94.06Z" style="fill: rgb(69, 90, 100); transform-origin: 154.632px 86.5349px;" id="eltgxr33r75a" class="animable"></path><g id="elzhucez4zinh"><rect x="172.5" y="79.56" width="59.88" height="2.99" style="fill: rgb(69, 90, 100); transform-origin: 202.44px 81.055px; transform: rotate(-7.74deg);" class="animable" id="el2zyhcjs7h85"></rect></g><path d="M327,58.58a1.3,1.3,0,1,1-1.46-1.11A1.3,1.3,0,0,1,327,58.58Z" style="fill: rgb(69, 90, 100); transform-origin: 325.712px 58.7585px;" id="el0hvdrcvoecri" class="animable"></path><path d="M327.59,63.21a1.3,1.3,0,1,1-1.46-1.11A1.3,1.3,0,0,1,327.59,63.21Z" style="fill: rgb(69, 90, 100); transform-origin: 326.302px 63.3885px;" id="elupthmwzvjz" class="animable"></path><path d="M328.22,67.83a1.3,1.3,0,1,1-1.46-1.11A1.29,1.29,0,0,1,328.22,67.83Z" style="fill: rgb(69, 90, 100); transform-origin: 326.932px 68.0079px;" id="elm5znaqkoman" class="animable"></path><path d="M210.06,317.72l-2.3-.69a6,6,0,1,1,2.51-5.64,6.07,6.07,0,0,1-1,4.22Zm-6.59-11.13a5.68,5.68,0,1,0,4.13,10l.08-.06,1.7.51-.57-1.53.07-.09a5.67,5.67,0,0,0-5.41-8.87Z" style="fill: rgb(38, 50, 56); transform-origin: 204.289px 312.118px;" id="elmqibm8mxufq" class="animable"></path><path d="M223.93,315l-3.27-5.77-5.22-3.67L226.77,304Zm-7.38-9.17L221,309l2.78,4.91,2.43-9.37Z" style="fill: rgb(38, 50, 56); transform-origin: 221.105px 309.5px;" id="elu2ndpzxd00b" class="animable"></path><g id="elnyiwy90w29a"><rect x="219.93" y="306.48" width="7.44" height="0.42" style="fill: rgb(38, 50, 56); transform-origin: 223.65px 306.69px; transform: rotate(-40.33deg);" class="animable" id="el2adu5xjakuq"></rect></g><path d="M266.5,300.85a2.34,2.34,0,1,1-2.61-1.94A2.29,2.29,0,0,1,266.5,300.85Z" style="fill: rgb(38, 50, 56); transform-origin: 264.191px 301.227px;" id="elptyap04ornf" class="animable"></path><path d="M273.68,299.9a2.34,2.34,0,0,1-4.63.61,2.34,2.34,0,0,1,4.63-.61Z" style="fill: rgb(38, 50, 56); transform-origin: 271.365px 300.205px;" id="eliqqe71tkq" class="animable"></path><path d="M280.85,299a2.34,2.34,0,1,1-2.61-1.93A2.3,2.3,0,0,1,280.85,299Z" style="fill: rgb(38, 50, 56); transform-origin: 278.543px 299.388px;" id="el859yhz9gqph" class="animable"></path><path d="M360,298l-5.33-4.05L350.86,299,349,285.51l9.14-1.24Zm-5.41-4.64.17.13,4.69,3.57-1.67-12.27-8.31,1.13,1.63,12Z" style="fill: rgb(38, 50, 56); transform-origin: 354.5px 291.635px;" id="eljomfgh3854k" class="animable"></path><path d="M190.94,310a3.54,3.54,0,0,0-6.89,1.12,3.54,3.54,0,0,0-6.94.76,4.78,4.78,0,0,0,1.3,3.3,13.86,13.86,0,0,0,2.82,2.29c1.4,1,2.7,1.86,4.11,2.81,1.1-1.29,2-2.5,3.12-3.79a14.25,14.25,0,0,0,2.11-3A4.83,4.83,0,0,0,190.94,310Z" style="fill: #FFB6B9; transform-origin: 184.11px 313.942px;" id="el2u3bym2gbua" class="animable"></path><g id="el0r6tnx6he16f"><rect x="160.54" y="94.83" width="184.11" height="187.29" style="fill: rgb(224, 224, 224); transform-origin: 252.595px 188.475px; transform: rotate(-7.48089deg);" class="animable" id="elwkxo38fdxhg"></rect></g><path d="M194.29,170c-2.33,11-2.41,26.92-1.83,47.38.1,3.77,36.19-25.15,36.19-25.15l5.26,32.67s-25.46,25.65-48.61,24.42c-16.05-.85-18.25-23.44-17.19-41.37,1-17.3,2.95-35.86,5.92-45.12" style="fill: rgb(255, 190, 157); transform-origin: 200.897px 206.096px;" id="elfwuxn1ejc3l" class="animable"></path><path d="M192.57,178.22l-20.54-7s2.54-17.25,5.81-17.19c0,0,1.85.54,1.37,1.82,0,0,1.36-2.4,3.25-1.52s1.06,3.39,1.06,3.39,6-18,8.48-17c2.13.86,1,2.53-3,14.63,0,0-1.7,5.7-.34,4.88s7.08-11.47,9-13.85c1-1.29,2.69.92,1.06,4.25-1.37,2.78-5.12,10.37-5.26,12a4.74,4.74,0,0,0,.27,1.36c.43.9,1.45,3.37.47,7.92-.27,1.28-1.59,6.32-1.59,6.32" style="fill: rgb(255, 190, 157); transform-origin: 185.714px 159.455px;" id="ellkcut3u5b5" class="animable"></path><path d="M188.73,175.22a3.62,3.62,0,0,1-.73-.77,23,23,0,0,1-1.67-2.35,25.22,25.22,0,0,1-1.92-3.83,24.07,24.07,0,0,1-.82-2.4c-.12-.42-.24-.85-.33-1.31a3,3,0,0,1,0-1.47,1.62,1.62,0,0,1,1.31-1.22,2.46,2.46,0,0,1,1.59.53,12.35,12.35,0,0,1,4.52,5.9l-.27,0a4.84,4.84,0,0,1,1.65-1.34c.45-.21.72-.26.72-.23a6.52,6.52,0,0,0-2.12,1.76l-.17.22-.11-.26a12.88,12.88,0,0,0-2.4-3.76,12.6,12.6,0,0,0-2.1-1.83,1.94,1.94,0,0,0-1.25-.43,1.1,1.1,0,0,0-.87.85,5.06,5.06,0,0,0,.31,2.49q.34,1.25.78,2.37a28,28,0,0,0,1.79,3.81C187.84,174,188.8,175.16,188.73,175.22Z" style="fill: rgb(235, 153, 110); transform-origin: 187.974px 168.545px;" id="el6aritl3givf" class="animable"></path><path d="M183.05,158.9a3.79,3.79,0,0,1,0,1c0,.68-.06,1.65-.15,2.85s-.21,2.63-.4,4.22a21.46,21.46,0,0,1-.39,2.51,2.15,2.15,0,0,1-.86,1.19,1.35,1.35,0,0,1-1.56,0,2.26,2.26,0,0,1-.76-1.3,9.8,9.8,0,0,1-.2-1.35c-.08-.87-.11-1.71-.12-2.51,0-1.6,0-3,.06-4.24s.1-2.05.13-2.84a5.38,5.38,0,0,1,.1-1.05,3.56,3.56,0,0,1,.11,1.05c0,.67,0,1.65,0,2.85s0,2.63,0,4.22c0,.79.06,1.62.15,2.47a8.83,8.83,0,0,0,.19,1.27,1.78,1.78,0,0,0,.57,1,.81.81,0,0,0,1,0,1.61,1.61,0,0,0,.65-.91,20.18,20.18,0,0,0,.4-2.41c.21-1.58.38-3,.52-4.19s.22-2.05.3-2.83A4.89,4.89,0,0,1,183.05,158.9Z" style="fill: rgb(235, 153, 110); transform-origin: 180.847px 164.149px;" id="elq6q782kyhe" class="animable"></path><path d="M178.61,163.56a3.86,3.86,0,0,1,.16,2.34,7.56,7.56,0,0,1-.32,1.16,3,3,0,0,1-.78,1.21,1.08,1.08,0,0,1-.86.27,1.11,1.11,0,0,1-.75-.57,7.85,7.85,0,0,1-.53-1.57,19.53,19.53,0,0,1-.65-5.58,7.3,7.3,0,0,1,.32-2.31,33.28,33.28,0,0,0,.83,7.76,8.7,8.7,0,0,0,.47,1.44.52.52,0,0,0,.87.19,2.62,2.62,0,0,0,.68-1,7.48,7.48,0,0,0,.36-1.07A13.68,13.68,0,0,0,178.61,163.56Z" style="fill: rgb(235, 153, 110); transform-origin: 176.877px 163.529px;" id="elf3gksfk659s" class="animable"></path><path d="M188,176.66c-.05.09-.73-.38-2-.7a4.23,4.23,0,0,0-2.18,0,4,4,0,0,0-2.15,1.54l-.44.61,0-.75c0-.28,0-.58-.07-.88a9.47,9.47,0,0,0-2.31-5.09c-1-1.1-1.78-1.57-1.73-1.64a5,5,0,0,1,2,1.39,9.13,9.13,0,0,1,2.56,5.28c.05.32.05.64.07.94l-.48-.14a4.27,4.27,0,0,1,4.87-1.6,4.73,4.73,0,0,1,.84.34,2.78,2.78,0,0,1,.58.33C187.85,176.51,188,176.63,188,176.66Z" style="fill: rgb(235, 153, 110); transform-origin: 182.559px 173.93px;" id="elwu8td5ixzd" class="animable"></path><path d="M307.51,275.53l-2.36-11.74-5-44.41,13-25.29-1.84-2.15c-14.94-18.2-29-13.72-35.18-13.52l-31,2.9h0c-15.87,2.09-19.47,4.37-30.51,17.32l-20.42,17.88,5.87,37.08,27.39-15.68,4.94,32.66-1.22,15.31" style="fill: #FFB6B9; transform-origin: 253.675px 231.841px;" id="elbs126gbx1b" class="animable"></path><path d="M351.86,235.37s-18.1-21.52-43.24-46.53l-12.16,33.42s28.32,37.35,35.71,49.92l24.25-3.3Z" style="fill: rgb(255, 190, 157); transform-origin: 326.44px 230.51px;" id="el5qya80kod3p" class="animable"></path><path d="M223.63,190.54c.05,0-.46.68-1.06,2a16.63,16.63,0,0,0-1.36,6,35.27,35.27,0,0,0,1,9.13c.76,3.41,1.46,7.19,2.16,11.15,1.37,7.91,2.6,15.07,3.51,20.33l1.06,6.16c.11.69.21,1.24.28,1.68a2,2,0,0,1,.07.59,2.82,2.82,0,0,1-.17-.57c-.09-.38-.23-.94-.38-1.66-.32-1.44-.73-3.54-1.22-6.13-1-5.19-2.25-12.37-3.66-20.31-.71-4-1.39-7.73-2.12-11.14a34.72,34.72,0,0,1-.92-9.26,16.06,16.06,0,0,1,1.55-6.07,10.31,10.31,0,0,1,.87-1.47A3,3,0,0,1,223.63,190.54Z" style="fill: rgb(38, 50, 56); transform-origin: 225.045px 219.06px;" id="ele9hh777evwr" class="animable"></path><path d="M259.2,193.63h0a14.15,14.15,0,0,0,11.93-17L269.08,167s10.95-3.26,9.57-14.47S271.84,116,271.84,116h0a39.23,39.23,0,0,0-38.4,10.21L232,127.67l11.48,54.83A14.15,14.15,0,0,0,259.2,193.63Z" style="fill: rgb(255, 190, 157); transform-origin: 255.385px 154.16px;" id="el4vtnoyvx5ir" class="animable"></path><path d="M270.77,136.38a1.64,1.64,0,1,1,2.28-.43A1.64,1.64,0,0,1,270.77,136.38Z" style="fill: rgb(38, 50, 56); transform-origin: 271.695px 135.026px;" id="elbil9mwtqny" class="animable"></path><path d="M274.33,133.29c-.15.22-1.36-.48-2.9-.27s-2.55,1.15-2.75,1,0-.45.47-.89a3.81,3.81,0,0,1,4.51-.55C274.19,132.86,274.41,133.2,274.33,133.29Z" style="fill: rgb(38, 50, 56); transform-origin: 271.474px 133.059px;" id="el8l5skjcw6u2" class="animable"></path><path d="M255.68,136.49a1.64,1.64,0,1,1-2.16.84A1.63,1.63,0,0,1,255.68,136.49Z" style="fill: rgb(38, 50, 56); transform-origin: 255.021px 137.99px;" id="el81xbuy8fgnq" class="animable"></path><path d="M257.69,136.23c-.15.22-1.36-.48-2.9-.28s-2.56,1.15-2.75,1,0-.45.47-.89a3.83,3.83,0,0,1,4.51-.56C257.55,135.8,257.76,136.13,257.69,136.23Z" style="fill: rgb(38, 50, 56); transform-origin: 254.835px 135.988px;" id="elq4kllxmij1q" class="animable"></path><path d="M265.59,148.1a7.7,7.7,0,0,1,2.42-.87c.4-.09.7-.23.7-.45a2.18,2.18,0,0,0-.44-1.11l-1.64-3c-2.29-4.23-4-7.75-3.76-7.87s2.24,3.22,4.53,7.45l1.59,3a2.57,2.57,0,0,1,.44,1.64,1,1,0,0,1-.6.74,2.38,2.38,0,0,1-.68.18A7.56,7.56,0,0,1,265.59,148.1Z" style="fill: rgb(38, 50, 56); transform-origin: 266.142px 141.455px;" id="elsgugaz8aw5" class="animable"></path><path d="M269.07,166.87a26.2,26.2,0,0,1-15.14-2.16s4.54,7.58,15.56,5.06Z" style="fill: rgb(235, 153, 110); transform-origin: 261.71px 167.497px;" id="elwuwtta83q7d" class="animable"></path><path d="M269.64,113.48a4.24,4.24,0,1,0-3.82-7.24,12.45,12.45,0,0,0,2.38-4.61,4.28,4.28,0,0,0-1.73-4.57c-1.5-.84-3.42-.31-4.84.66-2.14,1.47-3.6,3.82-5.84,5.14s-5,1.44-7.58,2.07a13.94,13.94,0,0,0-7.41,4.33,9.38,9.38,0,0,0-2.08,8.15c-3.69.27-7.7,1-10.1,3.83-2,2.37-2.45,5.8-1.85,8.86s2.45,5.72,3.93,8.47h0a6.65,6.65,0,0,0,1.56,2.09l2.92,7.65,4.91-1.07-3.61-16.44s-1.88-6.85,4.22-7.43,15.58,4.54,26.89.52c1.83-.65,3.75-1.25,5.12-2.64a5.46,5.46,0,0,0,1.52-5.33A3.7,3.7,0,0,0,269.64,113.48Z" style="fill: rgb(38, 50, 56); transform-origin: 250.465px 122.476px;" id="el9ns9q5y73r7" class="animable"></path><path d="M233.4,138.49c-.26,0-8.42.51-5.8,9.76s11.1,3.54,11,3.27S233.4,138.49,233.4,138.49Z" style="fill: rgb(255, 190, 157); transform-origin: 232.841px 146px;" id="el7kgayz3e07u" class="animable"></path><path d="M234.89,149.08s-.13.16-.37.36a1.67,1.67,0,0,1-1.2.36c-1.08-.08-2.34-1.4-2.86-3.05a5.54,5.54,0,0,1-.2-2.43,1.91,1.91,0,0,1,.86-1.58.85.85,0,0,1,1.08.17c.19.22.19.42.24.42s.16-.21,0-.57a1,1,0,0,0-.53-.47,1.25,1.25,0,0,0-.95,0,2.35,2.35,0,0,0-1.28,1.91,5.75,5.75,0,0,0,.17,2.74c.59,1.85,2,3.32,3.49,3.33a1.8,1.8,0,0,0,1.4-.67C234.93,149.31,234.92,149.08,234.89,149.08Z" style="fill: rgb(235, 153, 110); transform-origin: 232.247px 146.233px;" id="elu8z1wwbsw18" class="animable"></path><path d="M256.71,129.3c-.17.41-1.94,0-4,.36s-3.69,1.18-4,.83c-.13-.16.12-.63.77-1.15a6.62,6.62,0,0,1,6.16-.92C256.41,128.73,256.79,129.11,256.71,129.3Z" style="fill: rgb(38, 50, 56); transform-origin: 252.699px 129.306px;" id="el7t0t585gjah" class="animable"></path><path d="M272,128.27c-.18.4-1.21.35-2.32.68s-2,.85-2.33.6c-.17-.13-.14-.5.18-1a3.21,3.21,0,0,1,1.74-1.15,3.26,3.26,0,0,1,2.09.1C271.82,127.77,272,128.08,272,128.27Z" style="fill: rgb(38, 50, 56); transform-origin: 269.624px 128.445px;" id="elsrbgdzg0m9" class="animable"></path><path d="M248.28,139.16A7.51,7.51,0,0,1,248,138c-.13-.86-.31-2-.53-3.36l0-.15.16,0c3.22-.48,8.05-1.18,13.6-1.94l.26,0,0,.26c.17,1.25.35,2.55.53,3.88a7.44,7.44,0,0,1-.47,4.53,7,7,0,0,1-9.8,3.34,6.88,6.88,0,0,1-3.15-3.58,5.94,5.94,0,0,1-.33-1.27,1.28,1.28,0,0,1,0-.45c.06,0,.11.62.55,1.64a6.87,6.87,0,0,0,3.14,3.34,6.74,6.74,0,0,0,6.55-.24,6.65,6.65,0,0,0,2.61-3,7.09,7.09,0,0,0,.42-4.25c-.18-1.33-.36-2.63-.53-3.88l.29.22c-5.55.74-10.39,1.36-13.63,1.75l.14-.18c.15,1.38.28,2.51.38,3.37A6.53,6.53,0,0,1,248.28,139.16Z" style="fill: rgb(69, 90, 100); transform-origin: 254.825px 138.99px;" id="el0je7jlai0x0u" class="animable"></path><path d="M266.38,136.7a7,7,0,0,1-.24-1.19c-.14-.86-.32-2-.53-3.36l0-.15.16,0c3.23-.49,8.05-1.19,13.61-1.95l.25,0,0,.26c.18,1.25.35,2.55.54,3.88a7.6,7.6,0,0,1-.47,4.53,7.06,7.06,0,0,1-9.8,3.34,6.84,6.84,0,0,1-3.15-3.58,4.94,4.94,0,0,1-.33-1.27,2.19,2.19,0,0,1,0-.45c.06,0,.12.62.56,1.64a6.79,6.79,0,0,0,3.13,3.34,6.67,6.67,0,0,0,9.16-3.22,7.05,7.05,0,0,0,.42-4.26c-.18-1.33-.36-2.63-.52-3.88l.28.22c-5.55.74-10.39,1.36-13.63,1.75l.14-.18c.16,1.38.29,2.51.38,3.37A6.53,6.53,0,0,1,266.38,136.7Z" style="fill: rgb(69, 90, 100); transform-origin: 272.966px 136.478px;" id="elx6b5l2ls7lq" class="animable"></path><path d="M266.18,135.65a5.33,5.33,0,0,1-2.23.56,5.25,5.25,0,0,1-2.29,0,10.21,10.21,0,0,1,4.52-.61Z" style="fill: rgb(69, 90, 100); transform-origin: 263.92px 135.947px;" id="elof7besagsjj" class="animable"></path><path d="M247.84,136.69a68.14,68.14,0,0,1-8.27,1.38,68.78,68.78,0,0,1-8.33.87,68.18,68.18,0,0,1,8.26-1.38A64.48,64.48,0,0,1,247.84,136.69Z" style="fill: rgb(69, 90, 100); transform-origin: 239.54px 137.815px;" id="elfc01pjxnswr" class="animable"></path><path d="M267.72,151.87c0,.06-.39.31-1.16.48a6.51,6.51,0,0,1-3-.11,6.4,6.4,0,0,1-2.66-1.47c-.57-.54-.8-1-.75-1a11.48,11.48,0,0,0,3.55,2A11.34,11.34,0,0,0,267.72,151.87Z" style="fill: rgb(38, 50, 56); transform-origin: 263.932px 151.122px;" id="elzgch4asbug" class="animable"></path><path d="M235.86,153.09s.21.55-.3,1.26a2,2,0,0,1-3.62-1.45,2,2,0,0,1,.71-1.29c.68-.55,1.27-.42,1.24-.37s-.49.11-1,.64a1.87,1.87,0,0,0-.49,1.07,1.63,1.63,0,0,0,.53,1.27,1.6,1.6,0,0,0,1.3.45,1.81,1.81,0,0,0,1-.55C235.77,153.59,235.77,153.08,235.86,153.09Z" style="fill: rgb(38, 50, 56); transform-origin: 233.909px 153.201px;" id="elmmn70zzx3oj" class="animable"></path><path d="M261.34,148.13c.15,0,.19,1-.64,1.83s-1.85.79-1.83.65.79-.32,1.46-1S261.2,148.11,261.34,148.13Z" style="fill: rgb(38, 50, 56); transform-origin: 260.147px 149.409px;" id="elt5zhibzp62" class="animable"></path><path d="M263.34,214.43c-.14,0-1.24-4.62-2.47-10.38s-2.1-10.46-2-10.49,1.25,4.62,2.47,10.38S263.48,214.4,263.34,214.43Z" style="fill: rgb(38, 50, 56); transform-origin: 261.108px 203.995px;" id="elz50ofj7qli" class="animable"></path><path d="M263.3,195.17c.07.06-.38.38-.39,1.12a1.48,1.48,0,0,0,.44,1.08,1.33,1.33,0,0,0,2.1-1,1.5,1.5,0,0,0-.53-1,2.27,2.27,0,0,0-1.1-.43c-.05,0,.54-.37,1.32.13a1.79,1.79,0,0,1,.79,1.32,1.7,1.7,0,0,1-1,1.58,1.67,1.67,0,0,1-1.86-.25,1.77,1.77,0,0,1-.49-1.46C262.67,195.35,263.31,195.11,263.3,195.17Z" style="fill: rgb(38, 50, 56); transform-origin: 264.248px 196.477px;" id="elqe7onwz8e0f" class="animable"></path><path d="M264.92,204.08c.06.06-.39.38-.4,1.12a1.42,1.42,0,0,0,.45,1.07,1.2,1.2,0,0,0,1.32.13,1.22,1.22,0,0,0,.77-1.08,1.45,1.45,0,0,0-.53-1,2.27,2.27,0,0,0-1.1-.43c-.05,0,.55-.37,1.32.13a1.77,1.77,0,0,1,.79,1.32,1.67,1.67,0,0,1-1,1.58,1.69,1.69,0,0,1-1.87-.25,1.76,1.76,0,0,1-.48-1.46C264.29,204.26,264.92,204,264.92,204.08Z" style="fill: rgb(38, 50, 56); transform-origin: 265.857px 205.427px;" id="elsjwm0ydar2" class="animable"></path><path d="M289.84,215.52l24,36.66,31.37-27.59s-36.5-38.77-44.5-42.29Z" style="fill: #FFB6B9; transform-origin: 317.525px 217.24px;" id="el08ikxpws2pr3" class="animable"></path><path d="M303.77,233.84a2.36,2.36,0,0,1-.42-.44l-1.1-1.33c-.95-1.17-2.32-2.86-4-5-.83-1.06-1.72-2.24-2.61-3.55s-1.78-2.76-2.69-4.29a31,31,0,0,1-4.31-10.75,22.6,22.6,0,0,1,.67-11.55A19.7,19.7,0,0,1,294.5,189a16.36,16.36,0,0,1,5.44-3.35,12.75,12.75,0,0,1,1.67-.47,2.71,2.71,0,0,1,.6-.1,2.53,2.53,0,0,1-.57.2,16.12,16.12,0,0,0-1.63.56,16.85,16.85,0,0,0-5.26,3.43,19.5,19.5,0,0,0-4.95,7.81,22.37,22.37,0,0,0-.62,11.29A31.32,31.32,0,0,0,293.39,219c.9,1.53,1.76,3,2.63,4.29s1.75,2.49,2.55,3.57l3.84,5.08,1,1.39A3.38,3.38,0,0,1,303.77,233.84Z" style="fill: rgb(38, 50, 56); transform-origin: 295.978px 209.46px;" id="elrlzcccjx8ci" class="animable"></path><g id="eloi31g9wjdw"><g style="opacity: 0.3; transform-origin: 295.303px 251.19px;" class="animable" id="elqy3qhg818db"><path d="M296,224c6.48,15.81,2.28,35.4-10.12,47.15a9.24,9.24,0,0,0-2.46,3,2.82,2.82,0,0,0,.82,3.47,4.83,4.83,0,0,0,2.66.76c6.9-.77,13.67-2,20.57-2.8l-2.36-11.74L301.52,231Z" id="elpfk09n4b5q" class="animable" style="transform-origin: 295.303px 251.19px;"></path></g></g></g><g id="freepik--Character--inject-6" class="animable" style="transform-origin: 395.948px 297.444px;"><path d="M383.67,458l-.22-9.57-17.92.3.17,14,1.11,0c4.95.19,25.19.64,28.48-.42C399,461.18,383.67,458,383.67,458Z" style="fill: #FFB6B9; transform-origin: 380.7px 455.709px;" id="elb4gx1mxekv5" class="animable"></path><g id="elmrkl9flq78"><g style="opacity: 0.4; transform-origin: 380.807px 461.445px;" class="animable" id="el8sngc6vypps"><path d="M391.14,459.82s5.37,1.45,4.72,2.34-21.12,1.22-30.16.57l0-.4,23.88-.18S390.1,459.88,391.14,459.82Z" style="fill: rgb(255, 255, 255); transform-origin: 380.807px 461.445px;" id="elppfuesorc7m" class="animable"></path></g></g><path d="M365.44,462.32a1.2,1.2,0,0,0,.31,0l.88,0,3.26.09c2.76,0,6.56.08,10.76,0s8-.21,10.76-.35l3.26-.18.88-.07.31,0h-.31l-.89,0-3.26.12c-2.75.1-6.55.22-10.75.28s-8,.06-10.76,0l-3.26,0h-1.19Z" style="fill: rgb(38, 50, 56); transform-origin: 380.65px 462.128px;" id="elqkcan8xjfan" class="animable"></path><path d="M389.6,462.43a6.76,6.76,0,0,1,.58-1.56,8.28,8.28,0,0,1,1.09-1.27,2.46,2.46,0,0,0-1.28,1.16A2.34,2.34,0,0,0,389.6,462.43Z" style="fill: rgb(38, 50, 56); transform-origin: 390.423px 461.015px;" id="elcssn0rm5hgt" class="animable"></path><path d="M384.26,459.83c.06,0,.3-.28.56-.69s.42-.78.37-.81-.3.28-.56.69S384.21,459.8,384.26,459.83Z" style="fill: rgb(38, 50, 56); transform-origin: 384.725px 459.079px;" id="elhiv9h9q86wj" class="animable"></path><path d="M382.8,459.09s.32-.15.63-.43.51-.55.47-.59-.32.14-.62.43S382.76,459,382.8,459.09Z" style="fill: rgb(38, 50, 56); transform-origin: 383.35px 458.577px;" id="ela06wktb4eeg" class="animable"></path><path d="M381.86,457.41a2,2,0,0,0,.93.1,2.11,2.11,0,0,0,.94-.11,2.2,2.2,0,0,0-.94-.1A2.09,2.09,0,0,0,381.86,457.41Z" style="fill: rgb(38, 50, 56); transform-origin: 382.795px 457.407px;" id="elsierpyv3qq" class="animable"></path><path d="M381.52,456.22a1.8,1.8,0,0,0,1.05.29,1.88,1.88,0,0,0,1.08-.16,6.23,6.23,0,0,0-1.07-.06A6,6,0,0,0,381.52,456.22Z" style="fill: rgb(38, 50, 56); transform-origin: 382.585px 456.374px;" id="elz257ejdmqrq" class="animable"></path><path d="M384.85,458.26a3.44,3.44,0,0,0,1.15,0,6.23,6.23,0,0,0,1.22-.29,3,3,0,0,0,.7-.3.58.58,0,0,0,.28-.36.48.48,0,0,0-.18-.46,2.13,2.13,0,0,0-2.61.66,2.17,2.17,0,0,0-.36.78c0,.2,0,.31,0,.31a3.17,3.17,0,0,1,.5-1,2.18,2.18,0,0,1,1-.66,1.77,1.77,0,0,1,1.37.08c.19.13.12.34-.08.47a4.63,4.63,0,0,1-.64.29,7.94,7.94,0,0,1-1.19.32C385.29,458.22,384.85,458.22,384.85,458.26Z" style="fill: rgb(38, 50, 56); transform-origin: 386.528px 457.625px;" id="ele2leded860q" class="animable"></path><path d="M385.15,458.31a1.18,1.18,0,0,0,.12-.8,1.91,1.91,0,0,0-.33-.84,1.17,1.17,0,0,0-1-.57.47.47,0,0,0-.35.54,1.31,1.31,0,0,0,.21.51,3.4,3.4,0,0,0,.55.69c.37.35.66.48.67.45s-.23-.2-.56-.56a4.44,4.44,0,0,1-.49-.68c-.16-.24-.28-.68,0-.74s.59.25.77.48a2,2,0,0,1,.34.75A4.93,4.93,0,0,1,385.15,458.31Z" style="fill: rgb(38, 50, 56); transform-origin: 384.438px 457.205px;" id="el3x5kmv6npyg" class="animable"></path><path d="M365.73,457.41s.51-.06,1.32,0a5.7,5.7,0,0,1,2.91,1.14,5.77,5.77,0,0,1,1.84,2.52c.29.77.32,1.28.37,1.28a1.42,1.42,0,0,0,0-.36,4.51,4.51,0,0,0-.21-1,5.47,5.47,0,0,0-4.89-3.77,5.45,5.45,0,0,0-1,0A1.08,1.08,0,0,0,365.73,457.41Z" style="fill: rgb(38, 50, 56); transform-origin: 368.956px 459.774px;" id="elfcqvzau2pxm" class="animable"></path><path d="M367.47,449.92a30,30,0,0,0-.1,3.68,32.41,32.41,0,0,0,.12,3.69,32.69,32.69,0,0,0,.1-3.69A32.31,32.31,0,0,0,367.47,449.92Z" style="fill: rgb(38, 50, 56); transform-origin: 367.478px 453.605px;" id="el0kp8qz0wh8yk" class="animable"></path><path d="M374.42,460.7a10.62,10.62,0,0,0,2.62.22,9.86,9.86,0,0,0,2.62-.26c0-.06-1.17,0-2.62,0S374.43,460.63,374.42,460.7Z" style="fill: rgb(38, 50, 56); transform-origin: 377.04px 460.781px;" id="ell7xb1u5qcp" class="animable"></path><path d="M370.91,460.75s.1.24.22.51.2.5.26.5.08-.28-.06-.59S371,460.7,370.91,460.75Z" style="fill: rgb(38, 50, 56); transform-origin: 371.173px 461.25px;" id="elq248b24dbqd" class="animable"></path><path d="M369.56,459.12s.08.23.26.41.38.3.42.26-.08-.23-.26-.41S369.6,459.08,369.56,459.12Z" style="fill: rgb(38, 50, 56); transform-origin: 369.904px 459.455px;" id="elmx4s8ausq5" class="animable"></path><path d="M367.65,458.4c0,.06.25.05.52.14s.46.23.5.19-.11-.29-.43-.4S367.63,458.34,367.65,458.4Z" style="fill: rgb(38, 50, 56); transform-origin: 368.163px 458.511px;" id="elo75pjgskkmi" class="animable"></path><path d="M366.3,458.06c0,.06.08.15.23.21s.29.05.31,0-.08-.14-.23-.2S366.32,458,366.3,458.06Z" style="fill: rgb(38, 50, 56); transform-origin: 366.571px 458.165px;" id="el0u64wqyj0x7" class="animable"></path><g id="elk4f75014zvt"><g style="opacity: 0.3; transform-origin: 374.615px 455.56px;" class="animable" id="el5x3k85ltwr4"><polygon points="365.74 456.93 383.65 456.35 383.58 454.19 365.58 455.8 365.74 456.93" id="elicok57b28n" class="animable" style="transform-origin: 374.615px 455.56px;"></polygon></g></g><path d="M400.33,456l3-9.07-17-5.81-4.59,13.23,1,.43c4.6,1.86,23.48,9.14,26.94,9.26C413.63,464.19,400.33,456,400.33,456Z" style="fill: #FFB6B9; transform-origin: 396.077px 452.581px;" id="el30ziq76atbm" class="animable"></path><g id="elz71eco7zrd"><g style="opacity: 0.4; transform-origin: 396.155px 459.05px;" class="animable" id="el3lrn3fy6sdw"><path d="M406.74,460.26s4.55,3.19,3.64,3.8-20.28-6-28.57-9.7L382,454l22.52,7.94S405.74,460,406.74,460.26Z" style="fill: rgb(255, 255, 255); transform-origin: 396.155px 459.05px;" id="elvizv2gxr3u" class="animable"></path></g></g><path d="M381.71,453.89l.28.13.82.34,3,1.19c2.57,1,6.14,2.3,10.11,3.67s7.6,2.52,10.24,3.33l3.12.92.86.24a1.59,1.59,0,0,0,.3.07l-.29-.11-.84-.28-3.11-1c-2.62-.84-6.23-2-10.21-3.39s-7.55-2.66-10.13-3.6l-3.06-1.13L382,454Z" style="fill: rgb(38, 50, 56); transform-origin: 396.075px 458.835px;" id="el6qrqb0mk9fm" class="animable"></path><path d="M404.4,462.19a7.25,7.25,0,0,1,1.08-1.27,7,7,0,0,1,1.45-.82,2.35,2.35,0,0,0-1.59.65A2.39,2.39,0,0,0,404.4,462.19Z" style="fill: rgb(38, 50, 56); transform-origin: 405.665px 461.145px;" id="elvr202mdy0hi" class="animable"></path><path d="M400.26,457.94s.38-.17.76-.47.66-.59.62-.64a2,2,0,0,0-.75.47C400.5,457.6,400.23,457.89,400.26,457.94Z" style="fill: rgb(38, 50, 56); transform-origin: 400.951px 457.385px;" id="elivj2y09804f" class="animable"></path><path d="M399.14,456.74c0,.05.35,0,.73-.19s.68-.34.65-.4-.35,0-.73.2S399.12,456.68,399.14,456.74Z" style="fill: rgb(38, 50, 56); transform-origin: 399.831px 456.443px;" id="elsrxez9htp9q" class="animable"></path><path d="M398.82,454.84c0,.06.36.24.85.42a2.08,2.08,0,0,0,.92.21c0-.06-.36-.24-.85-.42A2.11,2.11,0,0,0,398.82,454.84Z" style="fill: rgb(38, 50, 56); transform-origin: 399.705px 455.155px;" id="elm6ikdq0gd9e" class="animable"></path><path d="M398.91,453.61a1.83,1.83,0,0,0,.89.63,1.78,1.78,0,0,0,1.06.21,6.15,6.15,0,0,0-1-.41A5.52,5.52,0,0,0,398.91,453.61Z" style="fill: rgb(38, 50, 56); transform-origin: 399.885px 454.036px;" id="eln3vmklfpmz" class="animable"></path><path d="M401.35,456.65a3.06,3.06,0,0,0,1.09.37,6.26,6.26,0,0,0,1.25.14,3.26,3.26,0,0,0,.75,0,.65.65,0,0,0,.39-.25.44.44,0,0,0,0-.49,2.13,2.13,0,0,0-3.27.34.61.61,0,0,0-.13.29,2.94,2.94,0,0,1,.81-.76,2,2,0,0,1,1.14-.29,1.83,1.83,0,0,1,1.27.53c.13.19,0,.37-.24.42a2.72,2.72,0,0,1-.7,0,8.47,8.47,0,0,1-1.22-.09C401.77,456.76,401.36,456.62,401.35,456.65Z" style="fill: rgb(38, 50, 56); transform-origin: 403.127px 456.494px;" id="elku9jtili33" class="animable"></path><path d="M401.61,456.81a1.2,1.2,0,0,0,.39-.72,2,2,0,0,0,0-.9,1.15,1.15,0,0,0-.72-.86.45.45,0,0,0-.5.38,1.31,1.31,0,0,0,0,.56,3.64,3.64,0,0,0,.29.83,2,2,0,0,0,.47.66s-.15-.27-.33-.72a3.92,3.92,0,0,1-.23-.81c-.07-.28,0-.73.26-.69s.47.44.56.71a1.77,1.77,0,0,1,.06.81A3.63,3.63,0,0,1,401.61,456.81Z" style="fill: rgb(38, 50, 56); transform-origin: 401.401px 455.568px;" id="elqso270g8ute" class="animable"></path><path d="M383.65,449.37s.5.12,1.23.47a5.84,5.84,0,0,1,2.35,2.07,5.69,5.69,0,0,1,.88,3c0,.81-.13,1.31-.09,1.32a1.31,1.31,0,0,0,.12-.34,5.09,5.09,0,0,0,.12-1,5.46,5.46,0,0,0-.85-3.12A5.56,5.56,0,0,0,385,449.7a4.9,4.9,0,0,0-.94-.29A1,1,0,0,0,383.65,449.37Z" style="fill: rgb(38, 50, 56); transform-origin: 385.957px 452.797px;" id="el9krf8fwoedd" class="animable"></path><path d="M387.82,442.91a34.93,34.93,0,0,0-1.34,3.44,30.31,30.31,0,0,0-1.13,3.5,34.09,34.09,0,0,0,1.34-3.43A30.78,30.78,0,0,0,387.82,442.91Z" style="fill: rgb(38, 50, 56); transform-origin: 386.585px 446.38px;" id="elx7k5eg5q42j" class="animable"></path><path d="M390.71,455.41a10.6,10.6,0,0,0,2.39,1.1,11,11,0,0,0,2.55.65c0-.06-1.11-.38-2.47-.86S390.74,455.35,390.71,455.41Z" style="fill: rgb(38, 50, 56); transform-origin: 393.18px 456.282px;" id="el8s5n1w573z6" class="animable"></path><path d="M387.39,454.27c-.06,0,0,.26,0,.56s0,.53.07.55.18-.24.14-.58S387.44,454.24,387.39,454.27Z" style="fill: rgb(38, 50, 56); transform-origin: 387.486px 454.824px;" id="el0v6kqvkbw5rp" class="animable"></path><path d="M386.67,452.28c-.05,0,0,.24.11.48s.25.41.31.38,0-.24-.11-.48S386.73,452.25,386.67,452.28Z" style="fill: rgb(38, 50, 56); transform-origin: 386.882px 452.71px;" id="el63dhhbc64m4" class="animable"></path><path d="M385.12,451c0,.06.22.14.44.31s.35.37.41.35,0-.31-.28-.52S385.12,450.89,385.12,451Z" style="fill: rgb(38, 50, 56); transform-origin: 385.556px 451.301px;" id="elf7129clfoa" class="animable"></path><path d="M384,450.18s0,.16.15.27.26.15.29.1,0-.17-.15-.27S384,450.13,384,450.18Z" style="fill: rgb(38, 50, 56); transform-origin: 384.225px 450.366px;" id="el7syeroaamk3" class="animable"></path><g id="elvn099k8ilrh"><g style="opacity: 0.3; transform-origin: 392.68px 451.125px;" class="animable" id="el4tjb2rsamx"><polygon points="383.82 448.92 400.86 454.45 401.54 452.4 384.06 447.8 383.82 448.92" id="elp816kqrnfom" class="animable" style="transform-origin: 392.68px 451.125px;"></polygon></g></g><path d="M331.12,191c0,7.82.07,22.31,3.44,36.09.61,2.53,18.14-26.48,18.14-26.48l8.62,18.48s-4.88,18.92-22.73,27.18c-21.3,9.85-23.71-42.33-22.22-57.18" style="fill: rgb(255, 190, 157); transform-origin: 338.667px 218.294px;" id="el7qz5v7jkbsd" class="animable"></path><path d="M413.1,278.84l-21.09.92h0l-32.35-.92,3.69,177.35,26.07-.86s0-2,0-5.43l13.77,3.56s25.95-53.29,31.53-76C439.38,358.52,413.1,278.84,413.1,278.84Zm-23.78,144c-.43-40.93,1.39-110.55,2-119.06,0,0,16,61.29,16.11,66.12C407.51,372.8,396.3,401.09,389.32,422.8Z" style="fill: rgb(38, 50, 56); transform-origin: 397.467px 367.515px;" id="el1u8hxcmfg7p" class="animable"></path><path d="M389.2,411.18a11.8,11.8,0,0,1,.1,1.72c0,1.19.05,2.77.09,4.69.06,4,.1,9.43.12,15.47s0,11.51,0,15.47c0,1.92-.05,3.5-.07,4.69a13.09,13.09,0,0,1-.09,1.72,10.23,10.23,0,0,1-.1-1.72c0-1.19-.06-2.77-.1-4.69-.05-4-.1-9.43-.11-15.47s0-11.51,0-15.47c0-1.92,0-3.5.06-4.69A10.23,10.23,0,0,1,389.2,411.18Z" style="fill: rgb(69, 90, 100); transform-origin: 389.277px 433.06px;" id="elt2ixbshkrla" class="animable"></path><path d="M376.65,281.25a3.06,3.06,0,0,1,0,.91,10.36,10.36,0,0,1-.51,2.45,11.9,11.9,0,0,1-13,8.09,10.1,10.1,0,0,1-2.42-.61,3.24,3.24,0,0,1-.82-.4,27.71,27.71,0,0,0,3.28.66,12,12,0,0,0,12.61-7.86A25.83,25.83,0,0,0,376.65,281.25Z" style="fill: rgb(69, 90, 100); transform-origin: 368.292px 287.035px;" id="el4wsx0ijsi9m" class="animable"></path><path d="M393.66,281.51a3.62,3.62,0,0,1,.1.93c0,.6.07,1.47.1,2.54.05,2.14.1,5.1.12,8.36V298a6.67,6.67,0,0,1-.86,3.72,3.17,3.17,0,0,1-2.14,1.42A1.38,1.38,0,0,1,390,303a5.84,5.84,0,0,0,.9-.07,3.13,3.13,0,0,0,1.89-1.42,6.72,6.72,0,0,0,.69-3.53c0-1.43,0-3,0-4.61,0-3.26,0-6.22,0-8.36,0-1.07,0-1.94.06-2.54A3.13,3.13,0,0,1,393.66,281.51Z" style="fill: rgb(69, 90, 100); transform-origin: 391.997px 292.342px;" id="el0e78p2imq8pa" class="animable"></path><path d="M415.05,292.56a2.42,2.42,0,0,1-.72,0,11,11,0,0,1-1.93-.31,16.06,16.06,0,0,1-10.09-7.59,10.54,10.54,0,0,1-.82-1.77,2.11,2.11,0,0,1-.2-.69c.09,0,.46.91,1.33,2.28a17.58,17.58,0,0,0,9.87,7.43C414,292.37,415.06,292.47,415.05,292.56Z" style="fill: rgb(69, 90, 100); transform-origin: 408.17px 287.393px;" id="elvy5rerbydyf" class="animable"></path><polyline points="471.24 173.2 471.06 173.52 463.4 186.49 469.38 189.5 474.08 182.27" style="fill: rgb(255, 190, 157); transform-origin: 468.74px 181.35px;" id="el4zgzw3efng" class="animable"></polyline><path d="M415.81,223.12s14.71,4.78,26.75,8.2a15.07,15.07,0,0,0,18.71-10.78l9.3-32.71-10.18-3.48-13.72,28.84-24.17-9.77" style="fill: rgb(255, 190, 157); transform-origin: 443.19px 208.12px;" id="elag9vbgrv7ns" class="animable"></path><path d="M470.57,170.77l-6.52,15.47-3.66-1.89s.29-1.28,1.44-4.85a10.55,10.55,0,0,1,5-5.95s2.29-8.76,3.64-8.17S470.57,170.77,470.57,170.77Z" style="fill: rgb(255, 190, 157); transform-origin: 465.744px 175.796px;" id="el0n1yzh7hy3x9" class="animable"></path><path d="M471.31,161.57c-.26.69-7.91,26.52-7.91,26.52l2.75.45,8.27-26.09Z" style="fill: rgb(38, 50, 56); transform-origin: 468.91px 175.055px;" id="elq02193kqkyo" class="animable"></path><path d="M470.57,187.83s4.71-4.3,5.05-6.83c.13-.9.64-12.29.07-12.36s-7.92,4.51-6.88,5.69a2.06,2.06,0,0,0,2.53.28s-4.71,2.68-3.66,3.62,3.94-.74,3.94-.74-6,2.78-4.76,4.19,6.3-.82,6.3-.82Z" style="fill: rgb(255, 190, 157); transform-origin: 471.323px 178.235px;" id="elwyg2bv21ztp" class="animable"></path><path d="M474.91,172.21a13,13,0,0,1-2.94,2.1,7.5,7.5,0,0,1-1.28.68,2,2,0,0,1-1.25,0c-.69-.23-.91-.66-.86-.69s.36.24.95.33a1.77,1.77,0,0,0,1-.12,9.28,9.28,0,0,0,1.18-.67A12.56,12.56,0,0,1,474.91,172.21Z" style="fill: rgb(235, 153, 110); transform-origin: 471.742px 173.65px;" id="elcnjjadta8ih" class="animable"></path><path d="M475.09,175.29a21.55,21.55,0,0,1-5.59,3.4,2,2,0,0,1-1.44.27.92.92,0,0,1-.62-.55,1.05,1.05,0,0,1,.06-.77,3.22,3.22,0,0,1,.72-.93A8.59,8.59,0,0,1,469,176a4.4,4.4,0,0,1,1.66-1,17.18,17.18,0,0,1-1.42,1.27c-.21.2-.43.43-.65.68a3.36,3.36,0,0,0-.6.83c-.13.31,0,.55.26.64a1.59,1.59,0,0,0,1.08-.26C472.54,176.72,475,175.16,475.09,175.29Z" style="fill: rgb(235, 153, 110); transform-origin: 471.242px 176.998px;" id="eldag8y8r2dnt" class="animable"></path><path d="M474.36,179.09a8.9,8.9,0,0,1-1.83,1l-2,1-1.21.57a6.49,6.49,0,0,1-1.4.54,1.45,1.45,0,0,1-.87-.1,1.05,1.05,0,0,1-.57-.7,1.5,1.5,0,0,1,.49-1.44,5.32,5.32,0,0,1,1.05-.7l.93-.51a9,9,0,0,1,1.89-.9,7.86,7.86,0,0,1-1.7,1.22l-.9.56a5.18,5.18,0,0,0-.94.67,1,1,0,0,0-.33,1,.7.7,0,0,0,.86.42,6.62,6.62,0,0,0,1.28-.5l1.22-.53,2.09-.89A8.07,8.07,0,0,1,474.36,179.09Z" style="fill: rgb(235, 153, 110); transform-origin: 470.404px 180.038px;" id="elyrh13nhu91" class="animable"></path><path d="M370.79,191.72l18.8-1.5c.11-2.2,0-10.69,0-10.69s7.82-1.21,7.91-9-1.26-25.77-1.26-25.77h0a27.16,27.16,0,0,0-27.3,3.43l-1.16.89Z" style="fill: rgb(255, 190, 157); transform-origin: 382.642px 167.135px;" id="el28yvon12rjl" class="animable"></path><path d="M394.4,158.65a1.14,1.14,0,1,1,1.61-.08A1.14,1.14,0,0,1,394.4,158.65Z" style="fill: rgb(38, 50, 56); transform-origin: 395.165px 157.805px;" id="el3i2d1ralsq" class="animable"></path><path d="M396.3,156.86c-.12.14-.89-.45-2-.46s-1.86.55-2,.41.06-.3.4-.56a2.65,2.65,0,0,1,3.15,0C396.24,156.56,396.36,156.8,396.3,156.86Z" style="fill: rgb(38, 50, 56); transform-origin: 394.285px 156.306px;" id="elxv4ufag2wl" class="animable"></path><path d="M383.89,157.32a1.13,1.13,0,1,1-1.56.37A1.14,1.14,0,0,1,383.89,157.32Z" style="fill: rgb(38, 50, 56); transform-origin: 383.294px 158.282px;" id="el58m69kh7t7m" class="animable"></path><path d="M384.6,157.33c-.12.13-.89-.46-2-.46s-1.86.55-2,.41.06-.31.4-.57a2.67,2.67,0,0,1,1.58-.49,2.59,2.59,0,0,1,1.57.53C384.55,157,384.66,157.27,384.6,157.33Z" style="fill: rgb(38, 50, 56); transform-origin: 382.585px 156.784px;" id="el7qpi68d6m7v" class="animable"></path><path d="M388.92,166.21a5.33,5.33,0,0,1,1.74-.37c.28,0,.51-.09.53-.24a1.48,1.48,0,0,0-.21-.81c-.27-.71-.55-1.43-.85-2.19-1.17-3.12-2-5.69-1.84-5.75s1.24,2.42,2.42,5.53c.27.77.54,1.49.8,2.21a1.79,1.79,0,0,1,.16,1.17.75.75,0,0,1-.49.45,1.46,1.46,0,0,1-.48.06A5.42,5.42,0,0,1,388.92,166.21Z" style="fill: rgb(38, 50, 56); transform-origin: 389.988px 161.583px;" id="eldto255viy0a" class="animable"></path><path d="M389.56,179.42a18.18,18.18,0,0,1-10.19-2.9s2.41,5.63,10.21,4.93Z" style="fill: rgb(235, 153, 110); transform-origin: 384.475px 179.015px;" id="eluuclc9q9ijn" class="animable"></path><path d="M394.93,142.82A2.93,2.93,0,1,0,393,137.5a8.66,8.66,0,0,0,2.06-2.94,3,3,0,0,0-.76-3.3,3.26,3.26,0,0,0-3.38,0c-1.61.8-2.83,2.28-4.49,3s-3.58.52-5.4.71a9.7,9.7,0,0,0-5.49,2.28,6.48,6.48,0,0,0-2.18,5.4c-2.56-.16-5.38,0-7.29,1.69a7.36,7.36,0,0,0-2.1,5.91c.13,2.16,1.15,4.15,1.91,6.18h0a4.46,4.46,0,0,0,.88,1.58l1.29,5.52,3.47-.28-.95-11.61s-.65-4.88,3.6-4.71,10.26,4.57,18.4,2.86a8.92,8.92,0,0,0,3.76-1.33,3.79,3.79,0,0,0,1.54-3.52A2.57,2.57,0,0,0,394.93,142.82Z" style="fill: rgb(38, 50, 56); transform-origin: 380.916px 147.159px;" id="ellu7s27ccca" class="animable"></path><path d="M367.72,156.62c-.17-.06-5.83-.44-4.89,6.15s7.29,3.46,7.27,3.27S367.72,156.62,367.72,156.62Z" style="fill: rgb(255, 190, 157); transform-origin: 366.412px 161.772px;" id="elmlxeim8m7t" class="animable"></path><path d="M367.75,164s-.1.09-.28.21a1.18,1.18,0,0,1-.86.14,2.87,2.87,0,0,1-1.67-2.36,3.79,3.79,0,0,1,.08-1.69,1.39,1.39,0,0,1,.74-1,.59.59,0,0,1,.72.22c.12.17.1.31.13.32s.13-.13,0-.4a.78.78,0,0,0-.32-.37.87.87,0,0,0-.66-.08,1.65,1.65,0,0,0-1.06,1.19,4,4,0,0,0-.13,1.9,3,3,0,0,0,2.08,2.6,1.22,1.22,0,0,0,1-.32C367.77,164.18,367.78,164,367.75,164Z" style="fill: rgb(235, 153, 110); transform-origin: 366.071px 161.825px;" id="el76f2ce61eoa" class="animable"></path><path d="M431.18,204.91c-8.56-4.4-14.63-7-19.3-10-14.54-9.33-18.37-7.27-21.79-7.69a33.26,33.26,0,0,1-20,0h0c-5.31.23-8.23,1.15-11.48,3.15a31.76,31.76,0,0,0-11.3,12.21l-11.49,19.84,19.35,18L358,236s-.17,7.91-.14,6.57l-.75,37.18h58.7l-5-32.27-3.09-28.23,15.68,7.83,7.74-22.18" style="fill: #FFB6B9; transform-origin: 383.5px 233.485px;" id="elbn41dn4wums" class="animable"></path><path d="M331.15,196.78,316,195s-.54-12,1.69-12.46c0,0,1.32.1,1.18,1,0,0,.58-1.82,2-1.5s1.2,2.14,1.2,2.14,1.49-13.07,3.28-12.76c1.57.28,1.06,1.57.09,10.35,0,0-.32,4.11.48,3.35s3.13-8.79,4.06-10.67c.5-1,1.95.22,1.33,2.72-.52,2.08-2,7.76-1.82,8.88a3.28,3.28,0,0,0,.38.89c.42.54,1.47,2.07,1.47,5.29,0,.91-.16,4.51-.16,4.51" style="fill: rgb(255, 190, 157); transform-origin: 323.702px 184.097px;" id="el445luzj26mm" class="animable"></path><path d="M328.11,195.3a7.76,7.76,0,0,1-2.12-1.72,16.5,16.5,0,0,1-1.87-2.31,16.8,16.8,0,0,1-.92-1.51,3.86,3.86,0,0,1-.63-1.89,1.22,1.22,0,0,1,.76-1.08,1.82,1.82,0,0,1,1.22.13,8.55,8.55,0,0,1,1.76,1,8.3,8.3,0,0,1,2.17,2.37l-.28,0a3.25,3.25,0,0,1,.95-1.15c.28-.2.46-.27.47-.24a5.31,5.31,0,0,0-1.13,1.52l-.12.25-.16-.23a8.8,8.8,0,0,0-3.85-3.09,1.34,1.34,0,0,0-.86-.11.69.69,0,0,0-.41.64,3.63,3.63,0,0,0,.56,1.6c.28.53.57,1,.87,1.48a21,21,0,0,0,1.74,2.33C327.36,194.58,328.16,195.24,328.11,195.3Z" style="fill: rgb(235, 153, 110); transform-origin: 326.095px 191.019px;" id="elvnb0aidk21b" class="animable"></path><path d="M321.9,185.08a13.78,13.78,0,0,1,.48,2.66c.12.88.25,1.86.39,2.91a9.63,9.63,0,0,1,.13,1.76,1.49,1.49,0,0,1-.42,1,1,1,0,0,1-1.16.24,2.62,2.62,0,0,1-1.07-1.71c-.18-.58-.32-1.14-.44-1.68-.25-1.09-.42-2.07-.56-2.89a16.56,16.56,0,0,1-.35-2.68,12.36,12.36,0,0,1,.72,2.61c.18.81.39,1.78.65,2.84.14.53.29,1.09.47,1.65s.39,1.18.8,1.38.84-.27.86-.79a11.71,11.71,0,0,0-.11-1.67q-.15-1.58-.27-2.91A14.1,14.1,0,0,1,321.9,185.08Z" style="fill: rgb(235, 153, 110); transform-origin: 320.901px 189.215px;" id="elqoro17vpcnb" class="animable"></path><path d="M319.57,188.88a2.39,2.39,0,0,1,.5,1.56,5,5,0,0,1,0,.84,2.08,2.08,0,0,1-.36,1,.81.81,0,0,1-.6.34.82.82,0,0,1-.65-.3,5.88,5.88,0,0,1-.6-1,10,10,0,0,1-1.3-5.34,30.86,30.86,0,0,0,1.76,5.1,5.51,5.51,0,0,0,.52.89c.18.21.32.2.5,0a3,3,0,0,0,.4-1.51C319.73,189.49,319.48,188.91,319.57,188.88Z" style="fill: rgb(235, 153, 110); transform-origin: 318.32px 189.3px;" id="elcximv6avaha" class="animable"></path><path d="M327.82,196.39c0,.08-.56-.11-1.44-.13a2.84,2.84,0,0,0-1.44.33,2.66,2.66,0,0,0-1.19,1.32l-.3.69-.2-.73c-.05-.18-.1-.38-.17-.58a6.7,6.7,0,0,0-2.26-3.09c-.8-.61-1.41-.83-1.38-.91a3,3,0,0,1,1.59.61,6.19,6.19,0,0,1,2.54,3.22c.08.22.13.43.19.64l-.5,0a3.06,3.06,0,0,1,1.47-1.55,2.89,2.89,0,0,1,1.67-.27A2.55,2.55,0,0,1,327.82,196.39Z" style="fill: rgb(235, 153, 110); transform-origin: 323.629px 195.945px;" id="els1wi12c02xi" class="animable"></path><path d="M384.58,152.48c-.23.38-1.41.07-2.81.11s-2.56.33-2.8,0c-.11-.18.08-.54.57-.88a4.11,4.11,0,0,1,2.21-.64,4,4,0,0,1,2.23.59C384.48,152,384.68,152.3,384.58,152.48Z" style="fill: rgb(38, 50, 56); transform-origin: 381.772px 151.907px;" id="el550i6mhrjd" class="animable"></path><path d="M395.14,153.19c-.24.37-.92.38-1.62.49s-1.37.25-1.69,0c-.15-.15-.13-.46.12-.78a2.2,2.2,0,0,1,2.86-.39C395.14,152.72,395.24,153,395.14,153.19Z" style="fill: rgb(38, 50, 56); transform-origin: 393.456px 152.985px;" id="ell6i2v29heq" class="animable"></path><path d="M377.87,158.46a3,3,0,0,1-.08-.84c0-.65-.05-1.42-.08-2.35v-.16h.16c2.26-.05,5.64-.09,9.52-.1h.26v3a5.25,5.25,0,0,1-.76,3.11,4.94,4.94,0,0,1-7.13,1.38,4.79,4.79,0,0,1-1.83-2.79,3.8,3.8,0,0,1-.09-.91c0-.21,0-.31,0-.31s0,.43.26,1.17a4.68,4.68,0,0,0,1.84,2.54,4.57,4.57,0,0,0,7.16-4.19v-2.71l.26.25c-3.88,0-7.26,0-9.52-.1l.16-.15c0,.93,0,1.7-.07,2.35A3.21,3.21,0,0,1,377.87,158.46Z" style="fill: rgb(69, 90, 100); transform-origin: 382.686px 159.236px;" id="elrayyq35x98d" class="animable"></path><path d="M390.53,158.46a3.21,3.21,0,0,1-.09-.84c0-.65,0-1.42-.07-2.35v-.16h.17c2.25-.05,5.63-.09,9.51-.1h.26v3a5.32,5.32,0,0,1-.75,3.11,5,5,0,0,1-2.28,1.95,5,5,0,0,1-4.86-.57,4.71,4.71,0,0,1-1.82-2.79,3.43,3.43,0,0,1-.1-.91c0-.21,0-.31,0-.31s0,.43.25,1.17a4.79,4.79,0,0,0,1.84,2.54,4.57,4.57,0,0,0,7.16-4.19c0-.93,0-1.84,0-2.71l.25.25c-3.88,0-7.26,0-9.51-.1l.15-.15c0,.93-.05,1.7-.07,2.35A3.59,3.59,0,0,1,390.53,158.46Z" style="fill: rgb(69, 90, 100); transform-origin: 395.346px 159.232px;" id="elzpe3842fmn" class="animable"></path><path d="M390.48,157.72c0,.14-.7.26-1.58.26s-1.57-.12-1.57-.26.7-.26,1.57-.26S390.48,157.57,390.48,157.72Z" style="fill: rgb(69, 90, 100); transform-origin: 388.905px 157.72px;" id="elfcory0hv8kb" class="animable"></path><path d="M377.8,156.72a64.93,64.93,0,0,1-11.61,0,64.93,64.93,0,0,1,11.61,0Z" style="fill: rgb(69, 90, 100); transform-origin: 371.995px 156.72px;" id="el43y05ypxber" class="animable"></path><path d="M390,169c0,.06-.29.21-.84.27a4.41,4.41,0,0,1-2.11-.34,4.25,4.25,0,0,1-1.7-1.29c-.33-.44-.43-.77-.38-.8a11.62,11.62,0,0,0,2.29,1.61A11.83,11.83,0,0,0,390,169Z" style="fill: rgb(38, 50, 56); transform-origin: 387.479px 168.063px;" id="el28u8grq43jq" class="animable"></path><path d="M368.05,166.86c.06,0,.14.42-.28.88a1.49,1.49,0,0,1-1,.46,1.42,1.42,0,0,1-1.2-.56,1.45,1.45,0,0,1-.3-1.29,1.5,1.5,0,0,1,.65-.85c.55-.31.95-.15.92-.09s-.34.08-.7.39a1.07,1.07,0,1,0,1.35,1.67C367.9,167.18,368,166.85,368.05,166.86Z" style="fill: rgb(38, 50, 56); transform-origin: 366.662px 166.758px;" id="elrokfa0bzes" class="animable"></path><path d="M389,283.29c0,.08-.6.17-.94,1a1.57,1.57,0,0,0,0,1.34,1.35,1.35,0,0,0,1.42.6,1.33,1.33,0,0,0,1.15-1,1.56,1.56,0,0,0-.41-1.28c-.57-.64-1.21-.53-1.2-.62s.13-.1.41-.1a1.63,1.63,0,0,1,1.05.46,1.91,1.91,0,0,1,.63,1.61,1.9,1.9,0,0,1-3.47.57,1.91,1.91,0,0,1,.08-1.73,1.7,1.7,0,0,1,.85-.77C388.81,283.23,389,283.26,389,283.29Z" style="fill: rgb(69, 90, 100); transform-origin: 389.295px 285.002px;" id="el46tmmopnp11" class="animable"></path><path d="M366.68,220.51a17.94,17.94,0,0,1-1.44,3c-1,1.82-2.33,4.3-3.93,7s-3.12,5.09-4.26,6.8a19.68,19.68,0,0,1-1.94,2.71,23.31,23.31,0,0,1,1.63-2.9l4.12-6.87,4.06-6.91A25,25,0,0,1,366.68,220.51Z" style="fill: rgb(38, 50, 56); transform-origin: 360.895px 230.265px;" id="eln0qf2v6x8g" class="animable"></path><path d="M408.28,230.26a21.62,21.62,0,0,1-.25-3c-.15-2-.34-4.56-.54-7.34s-.37-5.48-.39-7.37a14.19,14.19,0,0,1,.12-3.06,23.75,23.75,0,0,1,.25,3.05c.15,2,.33,4.55.54,7.34s.37,5.47.39,7.36A15,15,0,0,1,408.28,230.26Z" style="fill: rgb(38, 50, 56); transform-origin: 407.747px 219.875px;" id="elu6c4esy4rf9" class="animable"></path><g id="ela2gq9ixi48a"><polygon points="369.66 214.96 357.83 253.54 358 236.01 369.66 214.96" style="opacity: 0.3; transform-origin: 363.745px 234.25px;" class="animable" id="elyr3vqmsf9uq"></polygon></g><g id="ellpi65mv7zf8"><path d="M407.51,216.63s14,7.77,18.22,3.88l-2.29,6.58-15.68-7.83Z" style="opacity: 0.3; transform-origin: 416.62px 221.86px;" class="animable" id="elze1e4v2vwpf"></path></g><path d="M384.28,210.92c-.14,0-.63-4.93-1.08-11s-.71-11.06-.56-11.07.62,4.93,1.08,11S384.42,210.91,384.28,210.92Z" style="fill: rgb(38, 50, 56); transform-origin: 383.459px 199.885px;" id="elr29qjih2k7k" class="animable"></path><path d="M385,191.43c.05.07-.26.26-.31.74a.92.92,0,0,0,.2.72.78.78,0,0,0,.82.18.77.77,0,0,0,.58-.6.92.92,0,0,0-.24-.71c-.31-.38-.67-.36-.67-.44s.42-.25.93.17a1.26,1.26,0,0,1,.45,1,1.21,1.21,0,0,1-.9,1,1.23,1.23,0,0,1-1.34-.37,1.24,1.24,0,0,1-.19-1.1C384.55,191.46,385,191.36,385,191.43Z" style="fill: rgb(38, 50, 56); transform-origin: 385.518px 192.387px;" id="elw8k668j3czf" class="animable"></path><path d="M385.71,200.36c0,.07-.27.26-.32.74a1,1,0,0,0,.2.72.78.78,0,0,0,.82.18.77.77,0,0,0,.58-.6,1,1,0,0,0-.23-.72c-.31-.37-.67-.35-.68-.43s.42-.25.94.17a1.3,1.3,0,0,1,.45,1,1.3,1.3,0,0,1-2.25.68A1.29,1.29,0,0,1,385,201C385.22,200.38,385.71,200.29,385.71,200.36Z" style="fill: rgb(38, 50, 56); transform-origin: 386.215px 201.338px;" id="elhq0hh1z45zc" class="animable"></path><path d="M350.48,236.06a11.33,11.33,0,0,1-1,1.19,41.49,41.49,0,0,0-2.37,3.42,24.72,24.72,0,0,1-4.2,4.59,13.24,13.24,0,0,1-6.89,3.21,11.41,11.41,0,0,1-7.37-1.83,14.91,14.91,0,0,1-4.39-4.41,19,19,0,0,1-1.9-3.73A6.45,6.45,0,0,1,322,237s.23.49.63,1.39a23.12,23.12,0,0,0,2,3.6,14.88,14.88,0,0,0,4.35,4.21A11.06,11.06,0,0,0,336,248a13.09,13.09,0,0,0,6.65-3.06,26.19,26.19,0,0,0,4.2-4.44,31.52,31.52,0,0,1,2.52-3.33c.33-.36.6-.63.79-.81S350.47,236.05,350.48,236.06Z" style="fill: rgb(235, 153, 110); transform-origin: 336.24px 242.291px;" id="elco2reswplbg" class="animable"></path></g><g id="freepik--Plant--inject-6" class="animable" style="transform-origin: 562.751px 415.476px;"><path d="M560.24,406.58c-2.64,3.77-7.76,2.52-10.13.22s-3.38-5.62-4.29-8.79c-2.09-7.25-4.19-14.86-2.64-22.25a12.31,12.31,0,0,1,2.84-6,6.45,6.45,0,0,1,6.12-2c2.58.68,4.18,3.21,5.34,5.62a52.88,52.88,0,0,1,5.24,22.75c0,3.66-.42,7.51-2.48,10.53" style="fill: #FFB6B9; transform-origin: 552.682px 388.302px;" id="elsz67tg7hj7g" class="animable"></path><g id="elrgn5zvhbflb"><g style="opacity: 0.2; transform-origin: 552.682px 388.302px;" class="animable" id="elz2jmouse43"><path d="M560.24,406.58c-2.64,3.77-7.76,2.52-10.13.22s-3.38-5.62-4.29-8.79c-2.09-7.25-4.19-14.86-2.64-22.25a12.31,12.31,0,0,1,2.84-6,6.45,6.45,0,0,1,6.12-2c2.58.68,4.18,3.21,5.34,5.62a52.88,52.88,0,0,1,5.24,22.75c0,3.66-.42,7.51-2.48,10.53" id="elst6wn6px3pc" class="animable" style="transform-origin: 552.682px 388.302px;"></path></g></g><path d="M550.37,425.64c-4.31-2.23-9.38-2.52-14.17-1.73-2.56.43-5.24,1.2-7,3.13s-2.08,5.32-.07,7a6.66,6.66,0,0,0,4.41,1.12c3.74,0,7.89-.7,10.89,1.55,1.7,1.29,2.84,3.42,4.88,4.05a4.81,4.81,0,0,0,5.3-2.36,8.19,8.19,0,0,0,.6-6.08A9.24,9.24,0,0,0,550.37,425.64Z" style="fill: #FFB6B9; transform-origin: 541.643px 432.198px;" id="eloeb167u1mb9" class="animable"></path><path d="M567.47,412c-2.86-3.39-3.4-8.34-2.13-12.59s4.15-7.87,7.46-10.83a40.21,40.21,0,0,1,13.36-7.88,14.3,14.3,0,0,1,6-1,6.3,6.3,0,0,1,5,3c1.41,2.68.06,5.93-1.4,8.59A101.87,101.87,0,0,1,587,404.66c-2.63,3.39-5.64,6.74-9.65,8.27s-8.17,1.35-10.29-1.43" style="fill: #FFB6B9; transform-origin: 581.224px 396.786px;" id="el1iwqy344up2" class="animable"></path><path d="M560.41,463.33a7.63,7.63,0,0,1-.23-1.71c-.13-1.24-.28-2.8-.46-4.66a66.76,66.76,0,0,0-1.05-6.84,51.65,51.65,0,0,0-2.49-8.08,30,30,0,0,0-4.12-7.31,15.36,15.36,0,0,0-5.21-4.33,14.85,14.85,0,0,0-4.39-1.37,7.9,7.9,0,0,1-1.71-.25,8.37,8.37,0,0,1,1.74,0,13,13,0,0,1,4.57,1.19,15.3,15.3,0,0,1,5.5,4.37,28.79,28.79,0,0,1,4.28,7.46,49.35,49.35,0,0,1,2.47,8.2,58.44,58.44,0,0,1,.91,6.93c.15,2,.2,3.59.23,4.7A7.93,7.93,0,0,1,560.41,463.33Z" style="fill: rgb(38, 50, 56); transform-origin: 550.614px 446.032px;" id="elsi6whyh2qa" class="animable"></path><path d="M560.09,459.74a3.43,3.43,0,0,1,0-.79v-2.27c0-2,0-4.82-.1-8.33-.17-7-.78-16.75-2-27.42s-2.74-20.29-4.16-27.18c-.34-1.73-.68-3.28-1-4.64s-.56-2.54-.81-3.49-.39-1.63-.53-2.21a3.16,3.16,0,0,1-.14-.78,3.21,3.21,0,0,1,.27.74c.18.57.4,1.29.66,2.18s.59,2.11.94,3.47.73,2.9,1.09,4.63a255.08,255.08,0,0,1,4.38,27.2c1.18,10.7,1.7,20.43,1.75,27.49,0,3.52,0,6.38-.12,8.35-.06.92-.11,1.67-.14,2.27A2.89,2.89,0,0,1,560.09,459.74Z" style="fill: rgb(38, 50, 56); transform-origin: 555.895px 421.185px;" id="el7n3fi91fgvn" class="animable"></path><path d="M560,441a16.53,16.53,0,0,1,0-2.37c.09-1.52.3-3.72.73-6.42a85.15,85.15,0,0,1,2.08-9.35,82.22,82.22,0,0,1,3.92-11.07,59,59,0,0,1,11.48-17.89,29.81,29.81,0,0,1,2.7-2.51c.42-.35.78-.7,1.16-1l1-.73a14.71,14.71,0,0,1,2-1.27,68.51,68.51,0,0,0-6.54,5.83A62.33,62.33,0,0,0,567.43,412a89.8,89.8,0,0,0-3.93,11,93,93,0,0,0-2.22,9.26c-.49,2.67-.77,4.85-.94,6.36A15.71,15.71,0,0,1,560,441Z" style="fill: rgb(38, 50, 56); transform-origin: 572.514px 414.695px;" id="elf96xa6sgol7" class="animable"></path></g><defs>     <filter id="active" height="200%">         <feMorphology in="SourceAlpha" result="DILATED" operator="dilate" radius="2"></feMorphology>                <feFlood flood-color="#32DFEC" flood-opacity="1" result="PINK"></feFlood>        <feComposite in="PINK" in2="DILATED" operator="in" result="OUTLINE"></feComposite>        <feMerge>            <feMergeNode in="OUTLINE"></feMergeNode>            <feMergeNode in="SourceGraphic"></feMergeNode>        </feMerge>    </filter>    <filter id="hover" height="200%">        <feMorphology in="SourceAlpha" result="DILATED" operator="dilate" radius="2"></feMorphology>                <feFlood flood-color="#ff0000" flood-opacity="0.5" result="PINK"></feFlood>        <feComposite in="PINK" in2="DILATED" operator="in" result="OUTLINE"></feComposite>        <feMerge>            <feMergeNode in="OUTLINE"></feMergeNode>            <feMergeNode in="SourceGraphic"></feMergeNode>        </feMerge>            <feColorMatrix type="matrix" values="0   0   0   0   0                0   1   0   0   0                0   0   0   0   0                0   0   0   1   0 "></feColorMatrix>    </filter></defs></svg>