<?xml version="1.0" standalone="yes"?>
<svg xmlns="http://www.w3.org/2000/svg" width="1365" height="695">
<path style="fill:#f37778; stroke:none;" d="M0 0L0 52L1365 52L1365 0L0 0z"/>
<path style="fill:#eaf9c6; stroke:none;" d="M7 23L7 30L11 23L15 23L15 30L17 30L18 12L7 23M64 12C60.92 17.8746 59.6802 23.6656 62 30L66 25L67 25L68 30C74.0905 26.1546 74.9445 18.6989 75 12L73 12C72.9833 18.0679 72.475 23.5334 68 28L70 13L62 28L66 12L64 12M1052 12L1052 24L1053 24L1053 19L1059 19L1059 24L1060 24L1060 12L1059 12L1059 17L1053 17L1052 12M1122 12L1118 24L1119 24C1122.26 20.5004 1123.92 21.1012 1128 23L1124 12L1122 12M1130 12L1130 24C1140.38 23.9564 1136.92 15.3777 1130 12M1197 19L1196 19C1189.86 24.5582 1186.48 13.05 1197 16C1193.97 10.8187 1186.6 12.2668 1187.29 18.9568C1187.99 25.8303 1195.18 23.9398 1197 19M1275 24L1276 24L1276 19L1283 24C1284.28 10.171 1273.13 9.20862 1275 24M1309 12L1309 14L1311 12L1309 12z"/>
<path style="fill:#f37778; stroke:none;" d="M16 13L12 22L16 22L16 13z"/>
<path style="fill:#eaf9c6; stroke:none;" d="M89 13C86.5607 18.608 84.8741 22.3726 79 25L82 18C74.3098 21.881 79.0358 27.8696 86 22C88.0702 28.214 92.0544 22.2144 96 21L96 20L90 19L88 25L91 13L89 13M1163 13C1162.34 17.1743 1162.23 22.0402 1167 23L1165 13L1163 13M1221 13C1220.34 17.1743 1220.23 22.0402 1225 23L1223 13L1221 13M1250 13C1249.34 17.1743 1249.23 22.0402 1254 23L1252 13L1250 13M1324 13C1323.34 17.1743 1323.23 22.0402 1328 23L1326 13L1324 13z"/>
<path style="fill:#f37778; stroke:none;" d="M1276 14L1276 17L1282 14L1276 14z"/>
<path style="fill:#eaf9c6; stroke:none;" d="M1066.74 16.0471C1063.47 18.557 1066.69 24.7367 1070.4 21.9529C1073.62 19.537 1070.33 13.2894 1066.74 16.0471M1075 15L1075 24L1077 24L1077 17L1080 17L1080 24L1081 24L1085 17L1085 24C1088.52 15.5986 1081.41 15.1437 1075 15z"/>
<path style="fill:#f37778; stroke:none;" d="M1122 15L1124 18L1122 15z"/>
<path style="fill:#eaf9c6; stroke:none;" d="M1142.74 16.0471C1139.47 18.557 1142.69 24.7367 1146.4 21.9529C1149.62 19.537 1146.33 13.2894 1142.74 16.0471M1152 15C1152.07 20.5608 1153.02 23.5442 1159 24L1159 15L1157 15L1157 22L1152 15M1201.74 16.0471C1198.47 18.5571 1201.69 24.7366 1205.4 21.9529C1208.62 19.5369 1205.33 13.2895 1201.74 16.0471M1211 15L1211 24L1213 24L1213 17C1216.12 18.8068 1216.18 20.4912 1216 24C1221.29 19.3759 1215.91 15.4304 1211 15M1235 24C1234.94 8.22687 1221.89 22.889 1235 24M1246 20L1240 21L1241 17L1246 18C1235.73 7.93494 1241.65 33.0707 1246 20M1303 26L1298 24C1303.71 32.7753 1305 18.8705 1305 15C1296.24 15.9175 1298.1 21.2938 1303 26M1309 15L1309 24L1311 24L1311 15L1309 15M1314 23C1319.87 23.7692 1320.88 19.2802 1315 18L1315 17L1320 18C1316 11.8845 1314.22 19.163 1314 23M1342 15L1342 24L1344 24L1347 15L1342 15M1097 24L1097 22L1092 22L1092 21L1098 21C1094.88 10.7065 1084.65 23.058 1097 24M1294 24L1294 22L1289 22L1289 21L1295 21C1291.88 10.7065 1281.65 23.058 1294 24M1338 24L1338 22L1333 22L1333 21L1339 21C1335.88 10.7065 1325.65 23.058 1338 24M24 17L21 26L22 26L26 21L26 27L31 23C32.2899 29.0195 39.52 24.9636 41 21L40 21L37 25L38 19L35 25L32 24L34 19L26 25C27.4495 22.3408 28.3776 20.7388 25 20L24 17z"/>
<path style="fill:#f37778; stroke:none;" d="M1066 18L1067 22L1071 18L1066 18M1092 18L1092 19L1096 19L1092 18M1132 17L1132 22L1136 21L1135 17L1132 17M1142 18L1143 22L1147 18L1142 18M1201 18L1202 22L1206 18L1201 18M1229 22L1233 22L1233 17L1229 22M1289 18L1289 19L1293 19L1289 18M1299 21C1302.14 21.4943 1303 21.0358 1304 18L1299 21M1333 18L1333 19L1337 19L1333 18z"/>
<path style="fill:#eaf9c6; stroke:none;" d="M43 19L42 26L43 26L47 20L46 26L52 21L51 21L48 25L49 20L43 19z"/>
<path style="fill:#f37778; stroke:none;" d="M80 19L79 22L80 19M1315 20L1315 22L1319 22L1319 20L1315 20M9 23L10 24L9 23M1303 23L1304 24L1303 23z"/>
<path style="fill:#eaf9c6; stroke:none;" d="M0 52L0 693L1365 693L1365 52L0 52z"/>
<path style="fill:#f37778; stroke:none;" d="M471 344C471 351.375 467.237 369.239 477 370C471.833 361.807 473 353.597 473 344L471 344M771 344L771 370L773 367C791.373 379.115 791.804 342.591 773 355L773 344L771 344M844 344C844 351.375 840.237 369.239 850 370C844.833 361.807 846 353.597 846 344L844 344M889 344L889 348L891 348L891 344L889 344M411 345L421 370L423 370L428 358L429 358L433 370L436 370L446 345C439.98 346.753 436.287 361.232 435 367L434 367C431.807 357.746 431.471 354.246 434 345L428 353L423 345C424.413 353.207 427.788 359.004 421 366L413 345L411 345M640 345L630 370C634.709 367.28 639.128 357.016 646.302 363.603C648.652 365.761 649.103 368.327 652 370L642 345L640 345M588 346L586 352L586 353L586 354C587.904 356.514 589.079 377.626 596 367C589.377 366.695 591 359.004 591 354L595 354L595 352L591 352L591 346L588 346M876 346L874 352L874 353L874 354C875.904 356.514 877.079 377.626 884 367C877.377 366.695 879 359.004 879 354L883 354L883 352L879 352L879 346L876 346z"/>
<path style="fill:#eaf9c6; stroke:none;" d="M640 349L636 360L646 360L640 349z"/>
<path style="fill:#f37778; stroke:none;" d="M464 365C457.762 367.435 453.706 368.753 450 362L466 362C463.168 352.336 447.427 347.041 447.427 361C447.427 370.424 459.919 372.777 464 365M497 365C494.259 365.679 490.905 367.863 488.044 367.114C482.461 365.653 482.047 357.632 487.109 355.237C490.087 353.828 493.253 355.934 496 357C493.52 349.149 482.336 351.6 480.616 359.004C478.277 369.069 492.391 373.784 497 365M506.043 352.746C495.184 356.992 502.173 373.439 512.956 369.106C523.072 365.04 516.509 348.654 506.043 352.746M524 352L524 370L526 370C526 366.741 526.081 350.319 533.567 355.712C537.331 358.424 536 366.005 536 370L538 370C538 366.913 539.608 349.236 546.397 356.377C549.259 359.387 548 366.19 548 370L551 370C551 360.959 550.152 345.724 538 356C534.752 351.003 530.493 352.037 526 355L524 352M571 365C564.762 367.435 560.706 368.753 557 362L573 362C570.168 352.336 554.427 347.041 554.427 361C554.427 370.424 566.919 372.777 571 365M605.043 352.746C594.184 356.992 601.173 373.439 611.956 369.106C622.072 365.04 615.509 348.654 605.043 352.746M657 352L657 370L659 370C659 360.653 661.352 359.168 666 352L659 355L657 352M669 352C669 361.74 670.519 375.961 683 366L686 370L685 352L683 352C683 355.508 680.853 373.529 673.603 365.638C670.763 362.547 672 355.868 672 352L669 352M692 352L692 370L694 370C694 366.545 694.79 350.113 702.436 355.851C706.055 358.567 705 366.083 705 370L707 370C707 360.597 706.903 347.097 694 355L692 352M719 352C720.343 357.655 723.105 367.981 729 370L732 362L736 370L738 370L746 352C741.009 353.454 739.204 361.354 738 366L736 366L736 352L732 357L728 352L728 368L727 368C726.046 362.63 723.702 355.083 719 352M764 365C757.762 367.435 753.706 368.753 750 362L766 362C763.168 352.336 747.427 347.041 747.427 361C747.427 370.424 759.919 372.777 764 365M802 366C805.335 369.779 819.807 371.384 815.712 363.39C814.034 360.115 808.163 359.181 805 358C808.422 353.906 811.235 354.28 816 356C813.614 351.916 803.636 349.997 803.636 356.989C803.636 358.914 821.25 370.868 806.045 366.995C804.67 366.644 803.395 366.286 802 366M826.043 352.746C815.184 356.992 822.173 373.439 832.956 369.106C843.072 365.04 836.509 348.654 826.043 352.746M854 352C854 361.74 855.519 375.961 868 366L871 370L870 352L868 352C868 355.508 865.853 373.529 858.603 365.638C855.763 362.547 857 355.868 857 352L854 352M889 352L889 370L891 370L891 352L889 352M902.043 352.746C891.184 356.992 898.173 373.439 908.956 369.106C919.072 365.04 912.509 348.654 902.043 352.746M920 352L920 370L922 370C922 366.545 922.79 350.114 930.436 355.851C934.055 358.566 933 366.083 933 370L935 370C935 360.597 934.903 347.097 922 355L920 352M939 366C942.335 369.779 956.807 371.384 952.712 363.39C951.034 360.115 945.163 359.181 942 358C945.422 353.906 948.235 354.28 953 356C950.614 351.916 940.636 349.997 940.636 356.989C940.636 358.914 958.25 370.868 943.045 366.995C941.67 366.644 940.395 366.286 939 366z"/>
<path style="fill:#eaf9c6; stroke:none;" d="M450 360L463 360C460.761 352.46 452.537 352.945 450 360M507.109 354.762C500.138 357.421 503.351 369.808 510.981 367.353C519.205 364.707 515.055 351.73 507.109 354.762M557 360L570 360C567.761 352.46 559.537 352.945 557 360M606.109 354.762C599.138 357.421 602.351 369.808 609.982 367.353C618.205 364.707 614.055 351.73 606.109 354.762M750 360L763 360C760.761 352.46 752.537 352.945 750 360M777.109 354.762C770.119 357.432 773.164 369.875 780.956 367.214C788.919 364.494 784.909 351.781 777.109 354.762M827.109 354.762C820.138 357.421 823.351 369.808 830.982 367.353C839.205 364.707 835.055 351.73 827.109 354.762M903.109 354.762C896.138 357.421 899.351 369.808 906.982 367.353C915.205 364.707 911.055 351.729 903.109 354.762z"/>
<path style="fill:#292929; stroke:none;" d="M0 693L0 695L48 695L48 693L0 693z"/>
<path style="fill:#5c5c5c; stroke:none;" d="M48 695C61.3831 691.814 77.2708 694 91 694L175 694L321 694C343.272 694 370.338 689.843 392 695C388.394 690.873 377.217 693 372 693L317 693L115 693L66 693C61.0991 693 51.4072 691.101 48 695z"/>
<path style="fill:#292929; stroke:none;" d="M392 693L392 695L688 695L688 693L392 693z"/>
<path style="fill:#515151; stroke:none;" d="M688 693L688 695L736 695L736 693L688 693z"/>
<path style="fill:#292929; stroke:none;" d="M736 693L736 695L1361 695L1361 693L736 693z"/>
<path style="fill:#5c5c5c; stroke:none;" d="M1361.33 693.667L1361.67 694.333L1361.33 693.667z"/>
<path style="fill:#292929; stroke:none;" d="M1362 693L1362 695L1365 695L1365 693L1362 693M49 694L49 695L391 695L360 694L291 694L49 694z"/>
</svg>
