<?xml version="1.0" standalone="yes"?>
<svg xmlns="http://www.w3.org/2000/svg" width="1366" height="694">
<path style="fill:#907175; stroke:none;" d="M0 0L0 47L1366 47L1366 0L0 0z"/>
<path style="fill:#f0c9d0; stroke:none;" d="M534 11L530 26L543 26L539 11L534 11M551 11L551 26L554 26L554 21L555 21L560 26L560 15L554 18L554 11L551 11M608 11L611 26C616.519 25.0417 616.613 19.8593 617 15L618 15C618.387 19.8593 618.481 25.0417 624 26L627 11C622.62 12.5347 622.346 16.77 622 21L621 21L619 11L616 11L614 21L613 21L611 11L608 11M653 11L653 26C655.546 25.8666 659.343 26.4141 661.272 24.3858C665.547 19.8886 660.952 14.8826 656 16L656 11L653 11M693 21L693 22L685 21C688.732 30.7543 702.588 20.8404 688 16L688 15L696 16C692.251 6.20129 678.844 16.0356 693 21M724 11L724 26L727 26L727 11L724 11M757 11C753.892 15.8614 752.817 24.8012 760 26L760 17L760 16L760 15L757 11M769 11L769 13L772 13L772 11L769 11z"/>
<path style="fill:#907175; stroke:none;" d="M536 14L535 20L538 20L536 14z"/>
<path style="fill:#f0c9d0; stroke:none;" d="M644 23L638 21L644 21C643.347 16.9081 638.096 12.1721 635.608 18.1481C632.905 24.6395 639.891 27.1762 644 23M708.225 15.7863C702.659 17.9993 705.818 27.5826 711.775 25.2137C717.341 23.0007 714.182 13.4174 708.225 15.7863M736 15C736.007 23.4746 737.603 25.5364 746 26L746 15L743 15L742 24L740 24L739 15L736 15M769 15L769 26L772 26L772 15L769 15M784.225 15.7863C778.659 17.9993 781.818 27.5826 787.775 25.2137C793.341 23.0008 790.182 13.4174 784.225 15.7863M800 15L800 26L803 26L804 17L806 17L807 26L810 26C809.993 17.5254 808.397 15.4636 800 15M825 24L819 23C820.797 24.8268 827.892 27.6198 827.079 22.1651C826.757 19.9999 823.477 18.3762 822 17L828 18C826.247 16.2189 819.086 13.3637 819.921 18.7847C820.238 20.8439 823.614 22.614 825 24z"/>
<path style="fill:#907175; stroke:none;" d="M638 17L638 19L641 19L641 17L638 17M657 17L657 24L659 24L659 17L657 17M709 17L709 24L711 24L711 17L709 17M785 17L785 24L787 24L787 17L785 17z"/>
<path style="fill:#f0c9d0; stroke:none;" d="M582 19L582 22L588 22L588 19L582 19M0 47L0 620L1366 620L1366 47L0 47z"/>
<path style="fill:#d4a9b0; stroke:none;" d="M901 214L901 405L901 455C901 461.014 902.822 470.704 899.258 475.895C894.003 483.549 880.963 481 873 481L800 481L562 481L500 481C487.839 481 475.807 482.409 465 476C469.195 492.057 499.015 486 512 486L658 486L841 486L885 486C890.924 486 898.3 487.065 902.486 481.867C909.049 473.717 905 452.055 905 442L905 334L905 246C905 236.879 908.22 220.672 901 214z"/>
<path style="fill:#907175; stroke:none;" d="M799 272L793 271C794.622 273.284 800.801 274.996 800.079 270.165C799.756 268 796.478 266.377 795 265L801 266C799.41 263.761 793.179 261.984 793.921 266.785C794.238 268.844 797.614 270.614 799 272M844.299 264.176C840.547 266.008 842.182 275.03 846.701 272.824C850.453 270.993 848.818 261.97 844.299 264.176z"/>
<path style="fill:#f0c9d0; stroke:none;" d="M845 265L845 272L846 272L845 265z"/>
<path style="fill:#907175; stroke:none;" d="M809 271L805 272L805 268L809 269C803.059 260.182 803.059 279.818 809 271M813.303 267.176C810.023 268.811 812.231 274.552 815.697 272.824C818.977 271.189 816.769 265.448 813.303 267.176M820 266L820 274L822 274L825 266L820 266M833 273L833 272L828 272L828 271L833 271C829.859 260.69 821.834 275.488 833 273M835 266L835 268L837 268L837 266L835 266z"/>
<path style="fill:#f0c9d0; stroke:none;" d="M814 268L814 272L815 272L814 268M828 268L828 269L831 269L828 268z"/>
<path style="fill:#907175; stroke:none;" d="M835 272L835 274L837 274L837 272L835 272z"/>
<path style="fill:#292727; stroke:none;" d="M575 307L577 320C582.233 319.092 582.615 314.711 583 310L584 310C584.385 314.711 584.767 319.092 590 320L592 307C587.791 308.231 588.048 312.102 588 316L587 316L585 307L582 307L580 316L579 316L578 307L575 307M593 307L593 320L596 320L599 312L599 320L602 320C601.996 314.989 602.492 309.522 596 311L596 307L593 307M615 307C612.823 311.968 612.634 318.938 619 320L619 312L619 311L619 310L617 307L615 307M625 307L625 309L628 309L628 307L625 307M645 311L650 309L645 320L653 320L653 318L649 318C653.108 311.677 649.61 302.672 645 311M655 314L660 313L660 318L655 317C661.044 323.078 665.112 314.433 658 310L662 307C657.178 307.385 656.301 309.609 655 314M698 307L698 320L701 320L701 307L698 307M704 307C701.823 311.968 701.634 318.938 708 320L708 312L708 311L708 310L706 307L704 307M709 307L709 309L712 309L712 307L709 307M725 307L725 320L728 320L728 307L725 307M746 307L746 320C748.332 319.871 751.671 320.232 753.435 318.372C757.182 314.422 753.182 310.389 749 311L749 307L746 307M773 313L776 311L776 320L779 320L779 307L773 313M785.418 308.086C781.26 310.557 783.258 322.077 788.582 318.914C792.739 316.443 790.743 304.923 785.418 308.086z"/>
<path style="fill:#f0c9d0; stroke:none;" d="M786 309L786 318L788 318L788 309L786 309z"/>
<path style="fill:#292727; stroke:none;" d="M604 313L609 312L609 313C601.031 317.481 607.281 319.684 613 320C611.742 314.734 610.567 306.32 604 313M625 310L625 320L628 320L628 310L625 310M635 317L635 318L630 317C633.72 322.733 640.66 317.308 633 313L633 312L638 313C634.28 307.267 627.339 312.692 635 317M670 310L670 320L673 320L676 312L676 320L679 320L682 312L682 320L685 320C684.991 308.623 679.57 310.526 670 310M687 310C687.006 317.928 688.151 319.567 696 320L696 310L693 310L690 318L690 310L687 310M709 310L709 320L712 320L712 310L709 310M714 310L714 324L717 324L717 319C721.159 319.607 725.238 315.533 721.41 311.628C719.623 309.804 716.338 310.137 714 310M729 310L733 321L730 324C736.609 322.924 738.419 315.781 740 310L735 317L734 317L732 310L729 310M756 310L760 321L757 324C763.609 322.924 765.419 315.781 767 310L762 317L761 317L759 310L756 310z"/>
<path style="fill:#f0c9d0; stroke:none;" d="M718 312L718 318L719 318L718 312M750 312L750 318L751 318L750 312M608 315L607 318L608 315z"/>
<path style="fill:#d4a9b0; stroke:none;" d="M518.148 345.028C514.627 347.113 515.007 351.46 515 355C514.985 362.393 511.043 387.33 520.019 389.682C527.476 391.636 537.303 390 545 390L598 390L768 390L827 390C832.567 390 844.187 392.184 848.682 388.397C851.612 385.928 850.998 381.414 851 378C851.003 370.702 854.894 346.654 845.981 344.318C838.524 342.364 828.697 344 821 344L769 344L602 344L542 344C535.643 344 523.733 341.721 518.148 345.028z"/>
<path style="fill:#f0c9d0; stroke:none;" d="M519.228 345.742C515.689 347.396 516.018 351.703 516.001 355C515.966 361.688 512.364 386.181 520.109 388.566C527.044 390.702 536.771 389 544 389L596 389L767 389L825 389C830.827 389 842.608 391.234 847.566 387.821C850.581 385.746 849.995 381.172 850 378C850.011 371.402 853.585 347.803 845.891 345.434C838.956 343.298 829.229 345 822 345L771 345L604 345L544 345C537.094 345 525.553 342.788 519.228 345.742z"/>
<path style="fill:#292727; stroke:none;" d="M683 356L683 379L684 379L683 356z"/>
<path style="fill:#907175; stroke:none;" d="M605 359L605 374L615 374L615 372L607 372L607 367L614 367L614 365L607 365L607 361L615 361L615 359L605 359M627 360C626.301 364.898 625.495 372.173 631 374L631 365L631 364L631 363L627 360M617 363L617 374L619 374C619.049 369.839 619.17 367.112 623 365L623 374L625 374C624.999 366.472 624.937 363.613 617 363M642 371L635 369L642 369C637.848 349.089 628.229 385.006 642 371M644 363L644 374L646 374L650 363L644 363M656 363C657.399 368.89 659.627 372.178 657 378C663.38 376.107 664.641 368.876 666 363L661 371L656 363M669.43 364.047C664.978 366.907 668.367 376.296 673.57 372.953C678.022 370.093 674.633 360.704 669.43 364.047M678 363C678.001 368.023 677.043 373.006 683 374L680 372L680 363L678 363M684 363L684 374L686 374L686 363L684 363M688 363L688 374L690 374L694 363L688 363M701 366L707 365C700.949 371.05 700.508 373.403 710 374C708.993 369.772 707.022 357.485 701 366M712 363L712 374L714 374C714.049 369.839 714.17 367.112 718 365L718 374L720 374C719.999 366.472 719.936 363.613 712 363M728 372L722 371C723.636 372.645 729.858 375.258 729.079 370.215C728.761 368.155 725.387 366.387 724 365L730 366C728.377 364.362 721.221 361.666 722.751 366.835C723.366 368.914 726.519 370.519 728 372M731 363C731.621 367.122 732.657 372.731 737 374L738 366L739 366L740 374C744.343 372.731 745.379 367.122 746 363L742 371L741 371L739 363L738 363L736 371L735 371L731 363M756 371L749 369L756 369C751.848 349.089 742.229 385.006 756 371M758 363L758 374L760 374L764 363L758 363z"/>
<path style="fill:#f0c9d0; stroke:none;" d="M635 366L635 367L640 367L635 366M670.549 366.175C668.365 367.579 669.869 372.485 672.451 370.825C674.634 369.421 673.131 364.515 670.549 366.175M749 366L749 367L754 367L749 366M703 372L707 369L703 372z"/>
<path style="fill:#d4a9b0; stroke:none;" d="M638.228 409.742C631.82 412.736 634.969 432.94 635.001 439C635.016 441.953 634.656 445.909 637.434 447.821C641.883 450.883 651.805 449 657 449L708 449C713.406 449 723.946 451.001 728.566 447.821C731.344 445.91 730.984 441.953 730.999 439C731.031 432.94 734.18 412.736 727.772 409.742C722.352 407.211 712.894 409 707 409L660 409C653.853 409 643.875 407.105 638.228 409.742z"/>
<path style="fill:#f0c9d0; stroke:none;" d="M664 429C662.001 432.581 659.918 432.86 657 430L656 430C659.946 437.149 668.899 429.926 657 426L657 424L665 425C658.966 418.867 653.66 427.352 664 429M678 422L678 434C685.017 433.266 686.941 424.84 679 426L678 422M702 422L703 423L702 422M707 422C706.46 425.897 705.41 433.016 710 434L710 433C708.02 430.345 708.02 428.655 710 426L710 425L707 422M668 425C668.022 431.145 668.629 433.46 675 434L675 425L674 425C673.861 429.265 673.292 431.697 669 433L668 425M688 425L688 434L689 434C689.125 430.122 689.502 427.928 693 426L693 434L694 434C694.125 430.122 694.502 427.928 698 426L698 434L699 434C698.968 425.091 695.801 425.663 688 425M702 425L702 434L703 434L702 425z"/>
<path style="fill:#d4a9b0; stroke:none;" d="M680.549 427.175C678.365 428.579 679.869 433.485 682.451 431.825C684.634 430.421 683.131 425.515 680.549 427.175z"/>
<path style="fill:#907175; stroke:none;" d="M476 480L476 481L894 481C884.211 476.892 867.634 480 857 480L772 480L476 480M0 620L0 692L1006 692L1267 692L1335 692C1342.23 692 1355.1 689.528 1361 694L1362 694L1366 692L1366 620L0 620z"/>
<path style="fill:#f0c9d0; stroke:none;" d="M456 634L456 635L460 635L460 645L461 645L461 635L465 635L456 634M466 634L466 645L467 645L471 638L471 645L472 645C471.951 640.825 471.971 637.24 467 638L466 634M474 634L475 635L474 634M510 634L510 645L511 645L510 634M517 634L518 635L517 634M528 634L528 645L529 645L528 634M531 634L532 635L531 634M554 634L555 635L554 634M593 634L594 635L593 634M627 634L627 645C633.096 644.355 634.917 636.943 628 638L627 634M643 634L644 635L643 634M662 634L663 635L662 634M703 634L703 638C696.063 636.94 697.947 644.315 704 645L703 634M718 634L718 645C724.096 644.355 725.917 636.943 719 638L718 634M739 634L735 645L736 645C738.696 642.355 740.304 642.355 743 645L744 645L739 634M770 634L770 645L771 645L774 639L779 645L774 639L774 638L778 634L771 640L770 634M808 634L808 645L809 645L813 638L813 645L814 645C813.951 640.825 813.971 637.24 809 638L808 634M843 634L841 637C844.359 637 843 642.203 843 645L844 645L843 634M849.584 635.086C846.611 637.175 848.192 646.88 852.416 643.914C855.389 641.825 853.808 632.12 849.584 635.086M858 634L855 645L856 645L858 634M861.584 635.086C858.611 637.175 860.192 646.88 864.416 643.914C867.389 641.825 865.808 632.12 861.584 635.086M869.595 635.083C866.753 637.066 868.153 646.885 872.405 643.917C875.246 641.934 873.847 632.115 869.595 635.083M878 634L875 645L876 645L878 634M880 637L881 637L885 635L880 645L886 645L886 644L882 644C885.685 639.379 884.4 630.274 880 637M889.584 635.086C886.611 637.175 888.192 646.88 892.416 643.914C895.389 641.825 893.808 632.12 889.584 635.086M896 637L897 637L901 635L896 645L902 645L902 644L898 644C901.685 639.379 900.4 630.274 896 637M904 637L905 637L909 635L904 645L910 645L910 644L906 644C909.685 639.379 908.4 630.274 904 637M513 635C512.401 638.658 511.765 644.092 516 645L516 644L516 638L516 637L513 635M550 635C549.401 638.658 548.765 644.092 553 645L553 644L553 638L553 637L550 635M646 635C645.401 638.658 644.765 644.092 649 645L649 644L649 638L649 637L646 635z"/>
<path style="fill:#907175; stroke:none;" d="M739 635L737 641L742 641L739 635z"/>
<path style="fill:#f0c9d0; stroke:none;" d="M788 635C787.401 638.658 786.765 644.092 791 645L791 644L791 638L791 637L788 635z"/>
<path style="fill:#907175; stroke:none;" d="M849 635L849 644L853 644L853 635L849 635M861 635L861 644L865 644L865 635L861 635M869 635L869 639L873 639L873 635L869 635M889 635L889 644L893 644L893 635L889 635z"/>
<path style="fill:#f0c9d0; stroke:none;" d="M474 637L474 645L475 645L474 637M477 638L477 640L482 644L477 643L477 644L483 644L483 642L478 638L483 639L477 638M489 637L489 645L490 645L494 638L494 645L495 645L499 638L499 645L500 645C499.901 636.669 496.036 637.598 489 637M502 637C502.061 642.109 502.662 644.396 508 645L508 637L507 637L503 644L502 637M517 637L517 645L518 645L517 637M520 637L520 648L521 648L521 644C527.937 645.06 526.053 637.685 520 637M531 637L531 645L532 645L531 637M540 644L540 643L535 644L535 638L540 639C533.959 634.629 531.739 645.88 540 644M542 638L542 639L547 638L542 644L548 645C547.944 640.241 547.512 636.746 542 638M554 637L554 645L555 645L554 637M558.585 638.086C555.793 640.06 558.068 646.28 561.415 643.914C564.207 641.94 561.932 635.72 558.585 638.086M565 637L565 645L566 645L570 638L570 645L571 645C570.939 639.891 570.338 637.604 565 637M582 644L582 648L583 648L583 637C576.904 637.645 575.083 645.057 582 644M585 637C585.061 642.109 585.662 644.396 591 645L591 637L590 637L586 644L585 637M593 637L593 645L594 645L593 637M596 637L596 638L600 638L596 645L602 645L602 644L598 644L602 637L596 637M607 637L609 645L610 645L612 638L613 638L615 645L616 645L618 637L617 637L616 643L615 643L613 637L612 637L610 643L609 643L607 637M625 644L625 643L620 644L620 641L625 641C622.018 632.028 614.672 646.35 625 644M635 638L635 640L640 644L635 643L635 644L641 644L641 642L636 638L641 639L635 638M643 637L643 645L644 645L643 637M656 644L656 643L651 644L651 641L656 641C653.018 632.028 645.672 646.35 656 644M662 637L662 645L663 645L662 637M665 638L665 640L670 644L665 643L665 644L671 644L671 642L666 638L671 639L665 638M677 637L677 645L678 645L682 638L682 645L683 645L687 638L687 645L688 645C687.901 636.669 684.036 637.598 677 637M690 638L690 639L695 638L690 644L696 645C695.944 640.241 695.512 636.746 690 638M712 644L712 643L707 644L707 641L712 641C709.018 632.028 701.672 646.35 712 644M725 637L726 647L726 648L732 637L731 637L729 644L728 644L725 637M745 637L745 645L746 645L749 638L749 637L745 637M750 637C750.061 642.109 750.662 644.396 756 645L756 637L755 637L751 644L750 637M758 637L758 645L759 645L763 638L763 645L764 645C763.939 639.891 763.338 637.604 758 637M780 638L780 639L785 638L780 644L786 645C785.944 640.241 785.512 636.746 780 638M793.585 638.086C790.793 640.06 793.068 646.28 796.415 643.914C799.207 641.94 796.932 635.72 793.585 638.086M806 644L806 643L801 644L801 638L806 639C799.959 634.629 797.739 645.88 806 644M821.585 638.086C818.794 640.06 821.068 646.28 824.415 643.914C827.207 641.94 824.932 635.72 821.585 638.086M828 637L828 645L829 645L833 638L833 645L834 645C833.939 639.891 833.338 637.604 828 637z"/>
<path style="fill:#907175; stroke:none;" d="M525 644L525 638C520.799 639.396 520.799 642.604 525 644M558 638L558 644L562 644L562 638L558 638M578 638L578 644C582.201 642.604 582.201 639.396 578 638M620 638L620 640L624 640L624 638L620 638M632 644L632 638C627.799 639.396 627.799 642.604 632 644M651 638L651 640L655 640L655 638L651 638M699 638L699 644C703.201 642.604 703.201 639.396 699 638M707 638L707 640L711 640L711 638L707 638M723 644L723 638C718.799 639.396 718.799 642.604 723 644M793 638L793 644L797 644L797 638L793 638M821 638L821 644L825 644L825 638L821 638M869 640L869 644L873 644L873 640L869 640M543 644L547 641L543 644M691 644L695 641L691 644M781 644L785 641L781 644z"/>
<path style="fill:#f0c9d0; stroke:none;" d="M589 651L589 662L597 662L597 661L590 661L590 657L597 657L597 656L590 656L590 652L597 652L589 651M620 651L621 652L620 651M623 651L623 662L624 662L623 651M642 651L642 662L643 662L644 658L645 658L647 662L648 662L645 658L645 657L648 654L643 658L642 651M649 651L650 652L649 651M661 651L660 662L661 662L663 655L663 654L663 652L661 651M673 651L672 657L677 656C676.225 658.582 675.694 660.103 673 659L672 659C675.679 664.691 680.726 656.29 673 655L678 652L673 651M681 651L680 657L685 656C684.225 658.582 683.694 660.102 681 659L680 659C683.679 664.691 688.726 656.29 681 655L686 652L681 651M692 651L687 659L692 662L693 662L692 651M709 663L709 662C703.2 664.11 689.99 660.441 699.229 653.758C704.758 649.759 709.079 656.485 705 661L706 654C694.745 655.062 700.653 665.253 706.656 660.922C712.768 656.512 704.775 649.082 699.109 652.183C688.496 657.991 700.292 667.189 709 663M740 651L741 652L740 651M743 651L743 662L744 662L743 651z"/>
<path style="fill:#907175; stroke:none;" d="M691 653L688 658L692 658L691 653z"/>
<path style="fill:#f0c9d0; stroke:none;" d="M599 654L599 662L600 662L604 655L604 662L605 662L609 655L609 662L610 662C609.901 653.669 606.036 654.598 599 654M612 655L612 656L617 655L612 661L618 662C617.944 657.241 617.512 653.746 612 655M620 654L620 662L621 662L620 654M626 654L627 655L626 654M634 655L634 656L639 655L634 661L640 662C639.944 657.241 639.512 653.746 634 655M649 654L649 662L650 662L649 654M652 654L652 662L653 662L657 655L657 662L658 662C657.939 656.891 657.338 654.604 652 654M665.585 655.086C662.793 657.06 665.068 663.28 668.415 660.914C671.207 658.94 668.932 652.72 665.585 655.086M716 661L711 663L711 664C717.91 665.573 716.999 659.107 717 654C710.904 654.645 709.083 662.057 716 661M719 654L719 662L720 662L724 655L724 662L725 662L729 655L729 662L730 662C729.901 653.669 726.036 654.598 719 654M732 655L732 656L737 655L732 661L738 662C737.944 657.241 737.512 653.746 732 655M740 654L740 662L741 662L740 654M756 661L756 660L751 661L751 655L756 656C749.959 651.629 747.739 662.88 756 661M759.585 655.086C756.794 657.06 759.068 663.28 762.415 660.914C765.207 658.94 762.932 652.72 759.585 655.086M766 654L766 662L767 662L771 655L771 662L772 662L776 655L776 662L777 662C776.901 653.669 773.036 654.598 766 654z"/>
<path style="fill:#907175; stroke:none;" d="M665 655L665 661L669 661L669 655L665 655M705 656C697.099 654.844 701.401 664.466 705 656M712 655L712 661C716.201 659.604 716.201 656.396 712 655M759 655L759 661L763 661L763 655L759 655M613 661L617 658L613 661M635 661L639 658L635 661M733 661L737 658L733 661z"/>
<path style="fill:#f0c9d0; stroke:none;" d="M626 661L627 662L626 661M747 661L748 662L747 661M618.318 669.029C612.569 672.816 618.78 681.86 624.682 677.971C630.431 674.184 624.22 665.14 618.318 669.029M634 668L630 679L631 679C633.696 676.355 635.304 676.355 638 679L639 679L634 668M640 668L640 679L641 679L640 668M643 668L643 679L644 679L643 668M655 668L656 669L655 668M666 668L666 679L667 679L671 672L671 679L672 679C671.951 674.825 671.971 671.24 667 672L666 668M744 668L744 672C737.063 670.94 738.947 678.315 745 679L744 668z"/>
<path style="fill:#907175; stroke:none;" d="M618.603 670.029C614.17 673.511 619.862 680.534 624.397 676.971C628.83 673.489 623.138 666.466 618.603 670.029M634 669L632 675L637 675L634 669z"/>
<path style="fill:#f0c9d0; stroke:none;" d="M674 669C673.401 672.658 672.765 678.092 677 679L677 678L677 672L677 671L674 669M624 675L624 674L620 675L620 671L624 672C619.423 668.878 617.909 675.932 624 675M650 671L650 679L651 679L654 672L654 671L650 671M655 671L655 679L656 679L655 671M663 678L658 680L658 681C664.91 682.573 663.999 676.107 664 671C657.904 671.645 656.083 679.057 663 678M678 672L678 674L683 678L678 677L678 678L684 678L684 676L679 672L684 673L678 672M690 671L690 679L691 679L694 672L694 671L690 671M701 678L701 677L696 678L696 675L701 675C698.018 666.028 690.672 680.35 701 678M703 672L703 674L708 678L703 677L703 678L709 678L709 676L704 672L709 673L703 672M717 678L717 677L712 678L712 675L717 675C714.018 666.028 706.672 680.35 717 678M719 671L719 679L720 679L721 672L723 672L726 679L727 679L730 671L729 671L727 677L726 677L724 671L719 671M737 678L737 677L732 678L732 675L737 675C734.018 666.028 726.672 680.351 737 678z"/>
<path style="fill:#907175; stroke:none;" d="M659 672L659 678C663.201 676.604 663.201 673.396 659 672M696 672L696 674L700 674L700 672L696 672M712 672L712 674L716 674L716 672L712 672M732 672L732 674L736 674L736 672L732 672M740 672L740 678C744.201 676.604 744.201 673.396 740 672z"/>
<path style="fill:#f0c9d0; stroke:none;" d="M748 678L749 679L748 678z"/>
<path style="fill:#292727; stroke:none;" d="M0 692L0 694L48 694L48 692L0 692z"/>
<path style="fill:#5d5c5c; stroke:none;" d="M48 694C61.3831 690.814 77.2708 693 91 693L175 693L321 693C343.272 693 370.338 688.843 392 694C388.394 689.873 377.217 692 372 692L317 692L115 692L66 692C61.0991 692 51.4072 690.101 48 694z"/>
<path style="fill:#292727; stroke:none;" d="M392 692L392 694L688 694L688 692L392 692z"/>
<path style="fill:#5d5c5c; stroke:none;" d="M688 692L688 694L736 694L736 692L688 692z"/>
<path style="fill:#292727; stroke:none;" d="M736 692L736 694L1361 694L1361 692L736 692M1362 692L1362 694L1366 694L1366 692L1362 692M49 693L49 694L391 694L360 693L291 693L49 693z"/>
</svg>
