<?xml version="1.0" standalone="yes"?>
<svg xmlns="http://www.w3.org/2000/svg" width="1344" height="669">
<path style="fill:#ffbf01; stroke:none;" d="M0 0L0 56L1344 56L1344 0L0 0z"/>
<path style="fill:#3e3e3e; stroke:none;" d="M33 14L33 20L29 20C29 25.0782 26.9004 36.2571 30.179 40.3966C32.7113 43.5939 53.4405 43.5931 55.9722 40.3966C59.8078 35.5538 57 20.0747 57 14L33 14z"/>
<path style="fill:#e7e7e7; stroke:none;" d="M34 16L34 22L31 22C31 26.3006 29.2098 35.7747 32.0278 39.2577C34.5405 42.3634 51.486 42.5357 53.9722 39.3966C57.4742 34.975 55 21.5105 55 16L34 16z"/>
<path style="fill:#24aee8; stroke:none;" d="M36 18L36 19L54 19L36 18z"/>
<path style="fill:#e7e7e7; stroke:none;" d="M73 18L73 37L77 37L77 26L78 26C80.1958 33.3048 84.8041 33.3049 87 26L88 26L88 37L93 37L93 18C86.4001 18.2166 84.7033 22.0446 83 28C80.5471 22.8251 79.288 18.4854 73 18M125 18L125 37L130 37L130 30L142 37C136.942 28.1184 136.08 26.6776 142 18C136.235 18.4382 133.282 21.8843 131 27L130 27L130 18L125 18z"/>
<path style="fill:#3e3e3e; stroke:none;" d="M36 21L36 22L54 22L36 21z"/>
<path style="fill:#e7e7e7; stroke:none;" d="M96 23C98.2307 29.5939 101.672 34.9611 100 42C107.407 40.7917 109.843 29.3362 112 23L107 23L105 31L104 31L102 23L96 23M159 32C154.934 33.4451 152.32 34.0687 149 31L159 31C157.99 22.0114 144.296 20.1877 144.296 30C144.296 37.7208 157.62 39.9495 159 32M177 32C172.934 33.4451 170.32 34.0687 167 31L177 31C175.99 22.0114 162.296 20.1877 162.296 30C162.296 37.7208 175.62 39.9495 177 32M181 23L181 42L186 42L186 36C192.234 37.645 198.301 31.1448 193.397 25.3187C190.699 22.1143 184.766 23.0878 181 23z"/>
<path style="fill:#ffbf01; stroke:none;" d="M149 27L149 28L154 28L149 27M167 27L167 28L172 28L167 27M186 26L186 34C190.773 32.4155 190.773 27.5845 186 26z"/>
<path style="fill:#e7e7e7; stroke:none;" d="M199 32L199 37L204 37L204 32L199 32M209 32L209 37L214 37L214 32L209 32M219 32L219 37L224 37L224 32L219 32M0 56L0 653L1344 653L1344 56L0 56z"/>
<path style="fill:#24aee8; stroke:none;" d="M862 97L862 244L863 244L863 141C863 128.532 866.807 108.456 862 97z"/>
<path style="fill:#3e3e3e; stroke:none;" d="M503 108L499 123L512 123L508 108L503 108M556 108L556 123L559 123L562 116L568 123C566.176 116.663 564.329 114.062 568 108L559 114L559 108L556 108M585 108C581.891 112.861 580.817 121.801 588 123L588 114L588 113L588 112L585 108M616 108L616 123L619 123C619.049 118.839 619.17 116.112 623 114L623 123L626 123C625.996 117.506 626.128 111.412 619 113L619 108L616 108z"/>
<path style="fill:#e7e7e7; stroke:none;" d="M505 111L504 117L507 117L505 111z"/>
<path style="fill:#3e3e3e; stroke:none;" d="M514 112L514 123L517 123L521 112L514 112M523 112C523.007 120.475 524.603 122.536 533 123L533 112L530 112L529 121L527 121L526 112L523 112M536 112L536 123L539 123L540 114L542 114L543 123L546 123C545.993 114.525 544.397 112.464 536 112M571 115L577 114C569.955 120.561 571.617 122.547 581 123C579.696 117.539 578.047 107.838 571 115M594.225 112.786C588.659 114.999 591.818 124.583 597.775 122.214C603.341 120.001 600.182 110.417 594.225 112.786M613 120L612 119L608 121L608 114L612 116L613 115C602.555 104.458 602.555 130.542 613 120z"/>
<path style="fill:#e7e7e7; stroke:none;" d="M595 114L595 121L597 121L597 114L595 114M574 121L577 118L574 121z"/>
<path style="fill:#3e3e3e; stroke:none;" d="M528 169L528 170C529.98 172.655 529.979 174.345 528 177L528 178L533 178L533 177L531 169L528 169M598 169L598 170C599.98 172.655 599.979 174.345 598 177L598 178L603 178L603 177L601 169L598 169M605 169L605 170C606.98 172.655 606.979 174.345 605 177L605 178L610 178L610 177L608 169L605 169M647 169L647 178L648 178L648 175L652 178L649 174L652 173L652 172L648 174L647 169M675 169L675 178C682.037 176.825 678.319 172.426 675 169M717 169L717 170C718.98 172.655 718.979 174.345 717 177L717 178L722 178L722 177L720 169L717 169M789 169L789 171L791 171L791 169L789 169M500 170L500 178L501 178L501 174L505 174L505 173L501 173L501 171L505 171L500 170M584 170L584 178L585 178L585 174L589 174L589 173L585 173L585 171L589 171L584 170M627 170L625 172L625 173L627 178L631 178L631 177L628 177L631 173L631 172L627 170M661 170L661 178L663 176L664 176L666 178L666 170L665 170L665 176L664 176L664 173L663 173L663 176L662 176L661 170M689 170L689 178C695.648 176.94 695.648 171.06 689 170M766 170L766 178C772.648 176.94 772.648 171.06 766 170z"/>
<path style="fill:#e7e7e7; stroke:none;" d="M690 171L690 177C694.201 175.604 694.201 172.396 690 171M767 171L767 177C771.201 175.604 771.201 172.396 767 171z"/>
<path style="fill:#3e3e3e; stroke:none;" d="M507 172L507 178L508 178L512 174L507 172M520 178L520 177L515 176L515 175L520 175C516.414 169.519 511.403 177.33 520 178M527 178L527 177L522 176L522 175L527 175C523.414 169.519 518.403 177.33 527 178M536 172L536 173L539 173L539 174L535 175L535 177L540 178C539.737 174.59 539.321 173.099 536 172M542 172L542 178L543 178L546 173L546 178C547.419 174.264 545.686 172.615 542 172M554 178L554 177L550 176L550 174L554 173C548.806 171.298 548.653 177.108 554 178M562 178L562 177L557 176L557 175L562 175C558.414 169.519 553.403 177.33 562 178M563 172L563 178L564 178L568 174L563 172M591 172C591.3 175.864 592.089 177.348 596 178L596 172L595 172L592 177L591 172M619 175L623 176L623 177L619 177L619 178L624 177L624 175L620 174L620 173L624 173L619 175M634 172L634 173L637 173L637 174L633 175L633 177L638 178C637.737 174.59 637.321 173.099 634 172M645 178L645 177L641 176L641 174L645 173C639.806 171.298 639.653 177.108 645 178M674 178L674 177L669 176L669 175L674 175C670.414 169.519 665.403 177.33 674 178M702 178L702 177L697 176L697 175L702 175C698.414 169.519 693.403 177.33 702 178M703 172L705 178L706 178L708 172L707 172L706 177L705 177L703 172M716 178L716 177L711 176L711 175L716 175C712.414 169.519 707.403 177.33 716 178M725.603 173.082C723.132 174.872 725.918 178.713 728.397 176.918C730.868 175.128 728.082 171.287 725.603 173.082M731 172L731 181C734.319 177.574 738.038 173.175 731 172M744 178L744 177L739 176L739 175L744 175C740.414 169.519 735.403 177.33 744 178M745 172L745 178L746 178L750 174L745 172M779 178L779 177L774 176L774 175L779 175C775.414 169.519 770.403 177.33 779 178M780 175L784 176L784 177L780 177L780 178L785 177L785 175L781 174L781 173L785 173L780 175M787 172L787 173L787 177L787 178L792 178L792 177L790 172L787 172M800 180L800 178L795 177L795 176L800 172C792.659 172.572 792.45 181.718 800 180M801 172L801 178L802 178L805 173L805 178C806.419 174.264 804.686 172.615 801 172M814 178L814 177L809 176L809 175L814 175C810.414 169.519 805.403 177.33 814 178M815 172L815 178L816 178L820 174L815 172z"/>
<path style="fill:#e7e7e7; stroke:none;" d="M515 173L515 174L519 174L515 173M522 173L522 174L526 174L522 173M557 173L557 174L561 174L557 173M669 173L669 174L673 174L669 173M677 173L676 177L679 173L677 173M697 173L697 174L701 174L697 173M711 173L711 174L715 174L711 173M726 173L725 174L725 176L726 177L728 177L729 176L729 174L728 173L726 173M733 173L732 177L735 173L733 173M739 173L739 174L743 174L739 173M774 173L774 174L778 174L774 173M795 173L795 175L798 175L798 173L795 173M809 173L809 174L813 174L809 173M536 177L539 175L536 177M634 177L637 175L634 177z"/>
<path style="fill:#3e3e3e; stroke:none;" d="M572 176L571 180L574 176L572 176M754 176L753 180L756 176L754 176z"/>
<path style="fill:#e7e7e7; stroke:none;" d="M795 178L795 180L799 180L799 178L795 178z"/>
<path style="fill:#ffbf01; stroke:none;" d="M810 226.529C780.853 233.256 792.62 277.467 822 270.468C849.881 263.825 838.045 220.057 810 226.529z"/>
<path style="fill:#e7e7e7; stroke:none;" d="M813 241L813 247L807 247L807 250L813 250L813 256L816 256L816 250L822 250L822 247L816 247L816 241L813 241z"/>
<path style="fill:#24aee8; stroke:none;" d="M486 251L486 252C509.747 256.409 536.852 253 561 253L707 253L761 253C772.816 253 783.523 251.78 794 258C792.151 249.261 783.084 251 776 251L721 251L486 251z"/>
<path style="fill:#3e3e3e; stroke:none;" d="M790 251L793 253L790 251M838 251L837 256L843 252L838 251z"/>
<path style="fill:#24aee8; stroke:none;" d="M834 263C842.287 257.168 846.893 253.904 857 252C846.931 247.775 837.539 253.353 834 263z"/>
<path style="fill:#da4630; stroke:none;" d="M837 254L838 255L837 254M836 257L837 258L836 257z"/>
<path style="fill:#24aee8; stroke:none;" d="M794 258L795 259L794 258M833 263L834 264L833 263M832 264L833 265L832 264M831 265L832 266L831 265M830 266L831 267L830 266M828 267L829 268L828 267M827 268L828 269L827 268M825 269L826 270L825 269M822.667 270.333L823.333 270.667L822.667 270.333M813 271L813 272L820 272L813 271M362 336L362 499L363 499L363 385C363 371.223 367.306 348.645 362 336z"/>
<path style="fill:#3e3e3e; stroke:none;" d="M146 345L146 359L149 359L149 355L150 355L155 359L155 350L150 353L149 353L149 345L146 345M193 345L193 359C195.558 358.866 199.466 359.421 201.407 357.386C205.541 353.049 199.749 350.165 196 351L196 345L193 345M234 345L234 359L237 359L237 345L234 345M260 345L260 348L263 348L263 345L260 345M131 359L144 359C139.532 345.268 135.517 345.14 131 359M162 346L165 359L169 359L171 351L172 351L173 359L177 359L180 346C176.118 347.136 176.118 350.304 176 354L175 354L173 346L167 354L165 346L162 346M216 357L211 356C211.94 360.388 218.778 359.657 218.778 355.028C218.778 352.428 215.346 350.028 214 348L219 349C218.06 344.612 211.222 345.343 211.222 349.972C211.222 352.732 214.971 354.529 216 357M254 347C251.855 351.893 251.839 357.972 258 359L258 352L258 351L258 350L256 347L254 347z"/>
<path style="fill:#e7e7e7; stroke:none;" d="M137 348L136 354L139 354L137 348z"/>
<path style="fill:#3e3e3e; stroke:none;" d="M190 356L185 356L185 355L191 355C189.959 349.224 181.443 348.366 182.139 355C182.618 359.568 189.034 360.51 190 356M224.319 351.032C219.353 354.257 225.021 360.994 229.681 357.968C234.647 354.743 228.978 348.006 224.319 351.032M240 350C240.027 357.559 241.793 358.602 249 359L249 350L246 350L246 357L243 357L243 350L240 350M260 350L260 359L263 359L263 350L260 350M268.319 351.032C263.353 354.257 269.021 360.994 273.681 357.968C278.647 354.743 272.979 348.006 268.319 351.032M278 350L278 359L281 359L281 352L284 352L284 359L287 359C286.973 351.441 285.207 350.398 278 350M294 356L294 357L290 356C290.841 359.925 293.708 358.885 297 358L293 353L293 352L296 353C294.767 347.246 286.496 352.401 294 356z"/>
<path style="fill:#e7e7e7; stroke:none;" d="M185 352L185 353L188 353L185 352M197 352L197 357L199 357L199 352L197 352M226 352L226 357L228 357L228 352L226 352M270 352L270 357L272 357L272 352L270 352z"/>
<path style="fill:#3e3e3e; stroke:none;" d="M153 385L153 396C159.773 395.483 161.557 387.896 154 389L153 385M175 385C171.939 389.972 165.727 394.85 176 396L175 385M278 385L278 396C284.773 395.483 286.557 387.896 279 389L278 385M197 386L198 387L197 386M221 386L222 387L221 386M132 388L134 396L135 396L136 390L137 390L138 396L139 396L141 388L140 388L139 394L138 394L137 388L136 388L135 394L134 394L132 388M150 395L150 394L145 392L150 392C145.96 384.901 141.377 396.259 150 395M185 395L185 394L180 392L185 392C180.96 384.901 176.377 396.259 185 395M188 389L188 391L193 395L188 394L188 395L194 395L194 393L189 389L194 390L188 389M197 388L197 396L198 396L197 388M207 395L202 397L202 398C208.492 398.948 207.996 392.951 208 388C201.227 388.517 199.443 396.104 207 395M211 388L211 396L212 396C212.301 392.048 213.118 390.178 217 389L217 396L218 396C217.931 390.167 216.808 388.492 211 388M221 388L221 396L222 396L221 388M225 388L225 396L226 396C226.301 392.048 227.118 390.178 231 389L231 396L232 396C231.931 390.167 230.808 388.492 225 388M241 395L236 397L236 398C242.492 398.948 241.996 392.951 242 388C235.227 388.517 233.443 396.104 241 395M257 388L259 396L260 396L261 390L262 390L263 396L264 396L266 388L265 388L264 394L263 394L262 388L261 388L260 394L259 394L257 388M275 395L275 394L270 392L275 392C270.96 384.901 266.377 396.259 275 395z"/>
<path style="fill:#e7e7e7; stroke:none;" d="M145 390L145 391L149 391L145 390M154 395C162.144 393.641 154.718 385.778 154 395M175 389C166.856 390.359 174.282 398.222 175 389M180 390L180 391L184 391L180 390M207 389C198.856 390.359 206.282 398.222 207 389M241 389C232.856 390.359 240.282 398.222 241 389M270 390L270 391L274 391L270 390M279 395C287.144 393.641 279.718 385.778 279 395z"/>
<path style="fill:#3e3e3e; stroke:none;" d="M246 394L245 398L246 398L246 394M138 402C134.939 406.972 128.727 411.85 139 413L138 402M169 402L169 413L170 413L169 402M281 402L281 413L282 413C282.301 409.048 283.118 407.178 287 406L287 413L288 413C287.944 408.241 287.512 404.746 282 406L281 402M227 403C226.519 407.337 226.389 411.471 231 413L231 412L228 412L231 406L231 405L227 403M291 403L292 404L291 403M148 412L148 411L143 409L148 409C143.96 401.901 139.377 413.259 148 412M151 405L154 413L157 405L156 405L154 410L151 405M166 412L166 411L161 409L166 409C161.96 401.901 157.377 413.259 166 412M175.303 406.176C172.023 407.811 174.231 413.552 177.697 411.824C180.977 410.189 178.769 404.448 175.303 406.176M183 405L183 416L184 416L184 413C191.69 411.773 189.684 405.748 183 405M193 405L193 413L194 413L198 406L198 413L199 413L203 406L203 413L204 413C203.901 404.669 200.036 405.598 193 405M213 412L213 411L208 409L213 409C208.96 401.901 204.377 413.259 213 412M216 405L216 413L217 413C217.301 409.048 218.118 407.178 222 406L222 413L223 413C222.931 407.167 221.808 405.492 216 405M251 412L246 414L246 415C252.492 415.948 251.996 409.951 252 405C245.227 405.517 243.443 413.104 251 412M255 405L255 413L256 413L260 406L260 405L255 405M263 406L263 407L267 406C263.06 409.575 261.282 412.24 268 413C267.951 408.825 267.971 405.24 263 406M271 405L271 416L272 416L272 413C279.69 411.773 277.684 405.748 271 405M291 405L291 413L292 413L291 405M301 412L301 411C296.345 410.787 296.345 407.213 301 407C295.461 403.335 293.342 413.118 301 412z"/>
<path style="fill:#e7e7e7; stroke:none;" d="M138 406C129.856 407.359 137.282 415.222 138 406M143 407L143 408L147 408L143 407M161 407L161 408L165 408L161 407M175.564 407.171C173.573 408.471 175.241 412.261 177.436 410.829C179.427 409.529 177.759 405.739 175.564 407.171M184 412C192.144 410.641 184.718 402.778 184 412M208 407L208 408L212 408L208 407M251 406C242.856 407.359 250.282 415.222 251 406M272 412C280.144 410.641 272.718 402.778 272 412M263 412L267 409L263 412z"/>
<path style="fill:#3e3e3e; stroke:none;" d="M234 411L233 415L234 415L234 411M138 419C134.939 423.972 128.727 428.85 139 430L138 419M220 419L220 430L221 430L220 419M283 419L283 430L284 430L284 427L289 430L289 422L284 426L283 419M160 420L161 421L160 420M184 420L185 421L184 420M292 420L293 421L292 420M148 429L148 428L143 426L148 426C143.96 418.901 139.377 430.259 148 429M151 423L151 425L156 429L151 428L151 429L157 429L157 427L152 423L157 424L151 423M160 422L160 430L161 430L160 422M170 429L165 431L165 432C171.492 432.948 170.996 426.951 171 422C164.227 422.517 162.443 430.104 170 429M174 422L174 430L175 430C175.301 426.048 176.118 424.178 180 423L180 430L181 430C180.931 424.167 179.807 422.492 174 422M184 422L184 430L185 430L184 422M188 422L188 430L189 430C189.301 426.048 190.118 424.178 194 423L194 430L195 430C194.931 424.167 193.807 422.492 188 422M204 429L199 431L199 432C205.492 432.948 204.996 426.951 205 422C198.227 422.517 196.443 430.104 204 429M226.303 423.176C223.023 424.811 225.231 430.552 228.697 428.824C231.977 427.189 229.769 421.448 226.303 423.176M240 429L235 431L235 432C241.492 432.948 240.996 426.951 241 422C234.227 422.517 232.443 430.104 240 429M246.303 423.176C243.023 424.811 245.231 430.552 248.697 428.824C251.977 427.189 249.769 421.448 246.303 423.176M260 422L260 430L261 430L265 423L265 430L266 430L270 423L270 430L271 430C270.901 421.669 267.036 422.598 260 422M275 423L275 424L279 423C275.059 426.575 273.282 429.24 280 430C279.951 425.825 279.971 422.24 275 423M292 422L292 430L293 430L292 422M296 422L296 430L297 430C297.301 426.048 298.118 424.178 302 423L302 430L303 430C302.931 424.167 301.808 422.492 296 422M312 429L307 431L307 432C313.492 432.948 312.996 426.951 313 422C306.227 422.517 304.443 430.104 312 429z"/>
<path style="fill:#e7e7e7; stroke:none;" d="M138 423C129.856 424.359 137.282 432.222 138 423M143 424L143 425L147 425L143 424M170 423C161.856 424.359 169.282 432.222 170 423M204 423C195.856 424.359 203.282 432.222 204 423M226.564 424.171C224.573 425.471 226.241 429.261 228.436 427.829C230.427 426.529 228.759 422.739 226.564 424.171M240 423C231.856 424.359 239.282 432.222 240 423M246.564 424.171C244.573 425.471 246.241 429.261 248.436 427.829C250.427 426.529 248.759 422.739 246.564 424.171M312 423C303.856 424.359 311.282 432.222 312 423M275 429L279 426L275 429z"/>
<path style="fill:#3e3e3e; stroke:none;" d="M209 428L208 432L209 432L209 428M317 428L316 432L317 432L317 428M132 436L132 447C138.773 446.483 140.557 438.896 133 440L132 436M214 436C210.939 440.972 204.727 445.85 215 447L214 436M245 436L245 447L246 447L245 436M161 437L162 438L161 437M303 437C302.519 441.338 302.389 445.471 307 447L307 446L304 446L307 440L307 439L303 437M142 439C142.069 444.833 143.192 446.508 149 447L149 439L148 439C147.699 442.952 146.882 444.822 143 446L142 439M152 440L152 442L157 446L152 445L152 446L158 446L158 444L153 440L158 441L152 440M161 439L161 447L162 447L161 439M165 439L165 447L166 447C166.301 443.048 167.118 441.178 171 440L171 447L172 447C171.931 441.167 170.807 439.492 165 439M181 446L181 445L176 443L181 443C176.96 435.901 172.377 447.259 181 446M184 440L184 442L189 446L184 445L184 446L190 446L190 444L185 440L190 441L184 440M193 440L193 442L198 446L193 445L193 446L199 446L199 444L194 440L199 441L193 440M224 446L224 445L219 443L224 443C219.96 435.901 215.377 447.259 224 446M227 439L230 447L233 439L232 439L230 444L227 439M242 446L242 445L237 443L242 443C237.96 435.901 233.377 447.259 242 446M251.303 440.176C248.023 441.811 250.231 447.552 253.697 445.824C256.977 444.189 254.769 438.448 251.303 440.176M259 439L259 450L260 450L260 447C267.69 445.773 265.684 439.748 259 439M269 439L269 447L270 447L274 440L274 447L275 447L279 440L279 447L280 447C279.901 438.669 276.036 439.598 269 439M289 446L289 445L284 443L289 443C284.96 435.901 280.377 447.259 289 446M292 439L292 447L293 447C293.301 443.048 294.118 441.178 298 440L298 447L299 447C298.931 441.167 297.808 439.492 292 439z"/>
<path style="fill:#e7e7e7; stroke:none;" d="M133 446C141.144 444.641 133.718 436.778 133 446M176 441L176 442L180 442L176 441M214 440C205.856 441.359 213.282 449.222 214 440M219 441L219 442L223 442L219 441M237 441L237 442L241 442L237 441M251.564 441.171C249.573 442.471 251.241 446.261 253.436 444.829C255.427 443.529 253.759 439.739 251.564 441.171M260 446C268.144 444.641 260.718 436.778 260 446M284 441L284 442L288 442L284 441z"/>
<path style="fill:#ffbf01; stroke:none;" d="M322 460.529C296.03 466.531 307.054 505.773 333 499.467C357.855 493.426 346.794 454.8 322 460.529z"/>
<path style="fill:#e7e7e7; stroke:none;" d="M322 474L323 485L330 485L331 474L322 474z"/>
<path style="fill:#ffbf01; stroke:none;" d="M324 478L324 484L329 484L329 478L324 478z"/>
<path style="fill:#24aee8; stroke:none;" d="M342 493L343 494L342 493M341 494L342 495L341 494M340 495L341 496L340 495M339 496L340 497L339 496M336 498L337 499L336 498M333 499L334 500L333 499M326 500L326 501L330 501L326 500M126 510L126 511C163.045 515.682 202.642 512 240 512C277.358 512 316.955 515.682 354 511L333 510L287 510L126 510z"/>
<path style="fill:#3e3e3e; stroke:none;" d="M0 653L0 669L18 669L19 669L28 665L28 669C36.825 669 54.8802 672.394 62 667C65.2363 669.266 67.7637 669.266 71 667C76.871 671.448 92.5567 668.997 100 669L175 669C224.653 669 276.554 673.415 325.981 668.941C334.671 668.155 337.1 655.182 348 655.187C358.595 655.191 360.031 667.46 368.105 668.852C394.382 673.382 425.294 669 452 669L452 664L473 665L473 669L500 669L500 666L505 666L505 662L518 662L518 666L523 666L523 669C530.487 669 547.957 672.332 552 665L557 665L558 668L563 661L565 661C571.476 673.002 588.331 669 600 669C602.902 658.86 617.068 658.857 620 669C630.72 669 644.723 671.074 655 668.272C658.825 667.23 660.949 662.512 664.995 662.176C669.056 661.839 670.506 665.831 671 669C678.292 669 687.844 670.654 694.871 668.682C700.049 667.23 701.712 661.168 708 661.213C714.826 661.261 717.372 668.686 724.015 668.981C759.52 670.556 795.455 669 831 669L1044 669L1142 669C1151.72 669 1170.95 672.639 1179 667L1179 669L1180 669L1180 667C1184.07 669.848 1189.19 669 1194 669C1205.3 669 1220.56 671.424 1231 667C1234.85 671.385 1248.43 669 1254 669L1321 669L1321 665L1337 665L1337 669L1344 669L1344 653L0 653z"/>
<path style="fill:#24aee8; stroke:none;" d="M344.667 655.333L345.333 655.667L344.667 655.333z"/>
<path style="fill:#e7e7e7; stroke:none;" d="M331 669L332 669C335.899 660.137 345.457 653.3 354.999 659.009C359.286 661.574 361.159 666.223 365 669C359.143 653.246 334.738 649.683 331 669z"/>
<path style="fill:#24aee8; stroke:none;" d="M349 655L349 656L352 656L349 655M341 656L342 657L341 656M354 656L355 657L354 656z"/>
<path style="fill:#ffbf01; stroke:none;" d="M332 669L333 669C338.864 655.705 356.872 653.926 362 669C363.657 662.662 355.54 657.649 350 657.105C341.169 656.238 334.535 660.468 332 669z"/>
<path style="fill:#24aee8; stroke:none;" d="M356 657L357 658L356 657M337 658L338 659L337 658z"/>
<path style="fill:#da4630; stroke:none;" d="M342.667 658.333L343.333 658.667L342.667 658.333z"/>
<path style="fill:#3e3e3e; stroke:none;" d="M333 669C337.443 669 344.151 669.534 345 664L346 664C347.556 665.813 348.444 665.813 350 664L351 664L353 666L362 669C356.879 653.945 338.835 655.742 333 669z"/>
<path style="fill:#da4630; stroke:none;" d="M352 658L353 659L352 658M340 659L341 660L340 659M354 659L355 660L354 659z"/>
<path style="fill:#e7e7e7; stroke:none;" d="M1257 660L1259 668L1260 668L1260 659L1257 660M1268 659L1265 666L1269 668L1270 668C1274.5 666.502 1279.5 665.44 1273 661L1276 660L1276 659L1271 665L1270 665L1270 659L1268 659z"/>
<path style="fill:#24aee8; stroke:none;" d="M1276 659L1277 660L1276 659z"/>
<path style="fill:#e7e7e7; stroke:none;" d="M1281 659L1281 668C1284.32 664.574 1288.04 660.175 1281 659z"/>
<path style="fill:#24aee8; stroke:none;" d="M1285 659L1286 660L1285 659z"/>
<path style="fill:#e7e7e7; stroke:none;" d="M1288 659L1288 668L1289 668L1289 662L1290 662L1292 668L1293 668L1295 662L1296 662L1296 668L1297 668L1297 659L1293 665L1288 659z"/>
<path style="fill:#24aee8; stroke:none;" d="M1297 659L1297 668L1298 668L1297 659z"/>
<path style="fill:#da4630; stroke:none;" d="M356 660L357 661L356 660z"/>
<path style="fill:#24aee8; stroke:none;" d="M360 660L361 661L360 660M1282 660L1282 664L1283 664L1282 660z"/>
<path style="fill:#3e3e3e; stroke:none;" d="M1283 660L1283 664L1284 664L1283 660z"/>
<path style="fill:#24aee8; stroke:none;" d="M1290 660L1291 661L1290 660z"/>
<path style="fill:#da4630; stroke:none;" d="M337 661L338 662L337 661M357 661L358 662L357 661z"/>
<path style="fill:#ffbf01; stroke:none;" d="M563 661C559.929 667.766 565.109 668.874 571 669L565 661L563 661z"/>
<path style="fill:#da4630; stroke:none;" d="M600 669C608.436 664.505 611.576 664.816 620 669C618.327 658.476 601.682 658.37 600 669z"/>
<path style="fill:#24aee8; stroke:none;" d="M656 669L671 669C670.122 657.487 660.478 662.666 656 669z"/>
<path style="fill:#da4630; stroke:none;" d="M698 669L719 668C714.096 660.263 699.846 657.318 698 669z"/>
<path style="fill:#e7e7e7; stroke:none;" d="M1262 661L1262 663L1264 663L1264 661L1262 661z"/>
<path style="fill:#24aee8; stroke:none;" d="M1286.33 661.667L1286.67 662.333L1286.33 661.667M333 662L334 663L333 662z"/>
<path style="fill:#da4630; stroke:none;" d="M336 662L337 663L336 662M358 662L359 663L358 662z"/>
<path style="fill:#24aee8; stroke:none;" d="M505 662L505 668L507 668L507 664L516 664L516 668L518 668L518 662L505 662z"/>
<path style="fill:#e7e7e7; stroke:none;" d="M563.333 662.667L563.667 663.333L563.333 662.667z"/>
<path style="fill:#da4630; stroke:none;" d="M565 662L566 663L565 662z"/>
<path style="fill:#24aee8; stroke:none;" d="M1266 662L1267 663L1266 662M1268 662L1269 665L1268 662M1289 662L1289 668L1290 668L1289 662M1295 662L1296 663L1295 662M332 663L333 664L332 663z"/>
<path style="fill:#da4630; stroke:none;" d="M335 663L336 664L335 663M359 663L360 664L359 663z"/>
<path style="fill:#24aee8; stroke:none;" d="M362 663L363 664L362 663M1273 663L1274 664L1273 663z"/>
<path style="fill:#3e3e3e; stroke:none;" d="M1274 663L1274 667L1275 667L1274 663z"/>
<path style="fill:#24aee8; stroke:none;" d="M1293 663L1294 664L1293 663z"/>
<path style="fill:#da4630; stroke:none;" d="M345 664L346 665L345 664M350 664L351 665L350 664M360 664L361 665L360 664M452 664L452 667L453 667L452 664z"/>
<path style="fill:#ffbf01; stroke:none;" d="M453 664L452 669L473 669L473 667L462 667L462 666L473 666L453 664z"/>
<path style="fill:#da4630; stroke:none;" d="M461 664L462 665L461 664z"/>
<path style="fill:#3e3e3e; stroke:none;" d="M507 664L507 666L516 666L516 664L507 664M1267 664L1268 665L1267 664z"/>
<path style="fill:#24aee8; stroke:none;" d="M22 665L23 666L22 665z"/>
<path style="fill:#e7e7e7; stroke:none;" d="M19 666L19 669L28 669L28 665L19 666M63 666L63 667L70 667L63 666z"/>
<path style="fill:#24aee8; stroke:none;" d="M331 665L332 666L331 665z"/>
<path style="fill:#da4630; stroke:none;" d="M334 665L335 666L334 665M342 665L343 666L342 665z"/>
<path style="fill:#ffbf01; stroke:none;" d="M345 665L343 666L341 668L341 669L353 669L351 665L345 665z"/>
<path style="fill:#e7e7e7; stroke:none;" d="M404 665C404.974 669.546 414.026 669.546 415 665L414 665C410.636 667.545 407.577 666.989 404 665M418 665L418 668L419 668L418 665z"/>
<path style="fill:#da4630; stroke:none;" d="M552 665L553 666L552 665z"/>
<path style="fill:#ffbf01; stroke:none;" d="M553 665L552 668L558 669L557 666L553 665z"/>
<path style="fill:#da4630; stroke:none;" d="M556 665L557 666L556 665z"/>
<path style="fill:#e7e7e7; stroke:none;" d="M602 669L607 669L607 668L605 668L605 667L615 667L615 668L613 668L613 669L617 669C614.45 662.656 605.365 664.077 602 669M1262 665L1262 667L1264 667L1264 665L1262 665z"/>
<path style="fill:#24aee8; stroke:none;" d="M1282 665L1282 668L1283 668L1282 665z"/>
<path style="fill:#e7e7e7; stroke:none;" d="M1321 665L1321 669L1322 669L1322 666C1326.74 666 1333.15 664.6 1336 669L1337 669L1337 665L1321 665M12 669C15.1942 668.987 17.2708 669.403 18 666L12 669z"/>
<path style="fill:#da4630; stroke:none;" d="M352 666L353 667L352 666M361 666L362 667L361 666z"/>
<path style="fill:#e7e7e7; stroke:none;" d="M462 666L462 667L473 667L462 666M500 666L500 669L523 669L523 666L518 668L517 668L516 668C513.653 665.314 509.347 665.314 507 668L506 668L500 666z"/>
<path style="fill:#da4630; stroke:none;" d="M555 666L556 667L555 666M560 666L558 669L565 669L565 668L560 666z"/>
<path style="fill:#ffbf01; stroke:none;" d="M603 666L604 667L603 666M616 666L617 667L616 666z"/>
<path style="fill:#24aee8; stroke:none;" d="M1268.33 666.667L1268.67 667.333L1268.33 666.667M1273 666L1274 667L1273 666z"/>
<path style="fill:#3e3e3e; stroke:none;" d="M1322 666L1322 669L1336 669L1336 666L1322 666z"/>
<path style="fill:#e7e7e7; stroke:none;" d="M62 667L61 669L63 669L62 667M70 667L70 669L72 669L70 667z"/>
<path style="fill:#da4630; stroke:none;" d="M333 667L334 668L333 667M340 667L341 668L340 667z"/>
<path style="fill:#24aee8; stroke:none;" d="M364 667L365 668L364 667z"/>
<path style="fill:#e7e7e7; stroke:none;" d="M453 667L453 668L461 668L453 667z"/>
<path style="fill:#da4630; stroke:none;" d="M550 669L553 669L552 667L550 669z"/>
<path style="fill:#ffbf01; stroke:none;" d="M602 667L603 668L602 667M605 667L605 668L609 669L609 668L605 667z"/>
<path style="fill:#da4630; stroke:none;" d="M611 669L614 668L611 669z"/>
<path style="fill:#ffbf01; stroke:none;" d="M614 667L615 668L614 667z"/>
<path style="fill:#24aee8; stroke:none;" d="M647 668L647 669L652 669L647 668z"/>
<path style="fill:#ffbf01; stroke:none;" d="M705 667L706 668L705 667z"/>
<path style="fill:#e7e7e7; stroke:none;" d="M704 668L704 669L712 669L704 668z"/>
<path style="fill:#ffbf01; stroke:none;" d="M711 667L711 668L719 669L711 667z"/>
<path style="fill:#e7e7e7; stroke:none;" d="M1178.33 667.667L1178.67 668.333L1178.33 667.667M1180.33 667.667L1180.67 668.333L1180.33 667.667z"/>
<path style="fill:#24aee8; stroke:none;" d="M1229 667L1228 669L1229 667z"/>
<path style="fill:#e7e7e7; stroke:none;" d="M1230 667L1229 669L1231 669L1230 667z"/>
<path style="fill:#24aee8; stroke:none;" d="M1272 667L1273 668L1272 667z"/>
<path style="fill:#e7e7e7; stroke:none;" d="M84 668L84 669L91 669L84 668M120 668L121 669L120 668M205 668L206 669L205 668z"/>
<path style="fill:#24aee8; stroke:none;" d="M330 668L331 669L330 668z"/>
<path style="fill:#da4630; stroke:none;" d="M353 668L354 669L353 668z"/>
<path style="fill:#ffbf01; stroke:none;" d="M354 668L355 669L354 668M612 668L613 669L612 668M617 668L618 669L617 668z"/>
<path style="fill:#3e3e3e; stroke:none;" d="M663.667 668.333L664.333 668.667L663.667 668.333z"/>
<path style="fill:#24aee8; stroke:none;" d="M697 668L698 669L697 668M706 668L706 669L710 669L706 668M1212 668L1213 669L1212 668z"/>
<path style="fill:#e7e7e7; stroke:none;" d="M1213 668L1213 669L1216 669L1213 668M1235 668L1236 669L1235 668z"/>
</svg>
