<?xml version="1.0" standalone="yes"?>
<svg xmlns="http://www.w3.org/2000/svg" width="1365" height="633">
<path style="fill:#748b9e; stroke:none;" d="M0 0L0 40L1365 40L1365 0L0 0z"/>
<path style="fill:#f7f7f8; stroke:none;" d="M136 10L137 15C125.878 15.8483 131.048 24.9683 140 25L139 10L136 10M146 10L148 13L146 10M10 11L10 12L10 25L14 25L14 24L12 15L13 15L19 25L22 15L23 15L22 25L27 25L27 24C24.1086 20.1834 24.937 15.4647 26 11L18 22L14 11L10 11M52 15L53 15L58 12L56 25L61 25L61 24L59 12L63 15L64 15L64 11C59.1789 11 54.0696 9.8515 52 15M115 11L115 25C119.64 24.9995 124.035 25.8893 126 21L125 21L118 24L118 18L122 20L123 20L123 16L118 17L118 12L124 15L125 15L125 11L115 11M1114 11L1111 24L1114 18L1121 18L1119 24L1124 11L1121 17L1115 17L1116 11L1114 11M1193 24C1199.04 21.6751 1199.24 21.1876 1205 24L1203 11L1193 24M1210 11L1207 24C1214.03 23.4948 1221.33 14.6124 1211 15L1212 11L1210 11M1246 11L1243 16C1245.27 19.5591 1242.45 23.0264 1248 24L1248 23L1245 22L1249 16L1249 15L1246 11M1291 20L1284 23C1281.86 14.9084 1285.71 12.9275 1292 16C1289.65 8.27228 1281.62 12.114 1281.25 18.9807C1280.87 25.933 1288.44 23.934 1291 20M1320 11L1317 16C1319.27 19.5591 1316.45 23.0264 1322 24L1322 23L1319 22L1323 16L1323 15L1320 11M1351 11L1348 16C1350.27 19.5591 1347.45 23.0264 1353 24L1353 23L1350 22L1354 16L1354 15L1351 11M98 12L95 15C97.4855 19.4681 96.385 25.5054 103 24L103 23L99 24L102 16L102 15L98 12M156 12L153 15C155.486 19.4681 154.385 25.5054 161 24L161 23L157 24L160 16L160 15L156 12M1130 14.9707C1125 16.1804 1125.29 25.301 1130.87 23.338C1134.73 21.9832 1135 13.76 1130 14.9707M1138 15L1136 24L1143 16L1142 24L1149 16L1148 24C1157.44 16.3618 1143.38 14.5736 1138 15M1162 21L1156 23L1163 19C1157.17 3.80945 1150.2 33.0065 1162 21z"/>
<path style="fill:#748b9e; stroke:none;" d="M1201 14L1198 20L1202 20L1201 14z"/>
<path style="fill:#f7f7f8; stroke:none;" d="M1224 14.9707C1219 16.1805 1219.29 25.301 1224.87 23.338C1228.73 21.9833 1229 13.76 1224 14.9707M1298 14.9707C1293 16.1804 1293.29 25.301 1298.87 23.338C1302.73 21.9833 1303 13.76 1298 14.9707M1306 15L1304 24L1312 16L1311 24C1316.79 19.1277 1311.95 14.572 1306 15M1334 15C1318.81 13.9107 1330.53 32.8212 1334 15M1345 21L1339 23C1338.83 18.4575 1340.55 16.7693 1345 18C1340.88 3.35602 1332.8 34.8615 1345 21M30 15L34 29L32 28L31 28C35.3336 32.4904 38.9768 18.0244 40 15L37 15L37 16L36 22L34 15L30 15M77 24L77 23C73.0045 23.6587 71.2024 22.9521 70 19L77 19C71.026 8.17596 62.4309 28.1376 77 24M81 15L81 16C83.9115 18.9932 84.0276 21.0871 81 24L81 25L85 25L85 21L91 25C88.8454 21.2548 87.5246 19.1766 91 16L91 15L87 19L86 19L86 15L81 15M145 15L145 25L149 25L148 15L145 15M167.317 16.0324C162.279 19.2998 167.459 27.3843 172.566 23.9676C177.498 20.6677 172.475 12.6876 167.317 16.0324M180 15L180 25L184 25L184 16L188 16L180 15M1232 15C1230.56 21.1506 1231.72 23.4683 1238 24L1240 15L1238 15L1233 23L1234 15L1232 15z"/>
<path style="fill:#748b9e; stroke:none;" d="M70 17L70 18L75 18L75 16L70 17M137 24L137 16C130.997 17.0019 130.997 22.9981 137 24M168.56 17.0864C165.823 19.0882 168.081 25.2977 171.412 22.9136C174.116 20.9781 171.759 14.7471 168.56 17.0864M1133 17C1124.28 15.6967 1130.11 27.7016 1133 17M1156 19L1161 19L1161 16L1156 19M1211 23L1215 16C1210.71 16.7446 1210.01 18.9489 1211 23M1227 17C1218.28 15.6967 1224.11 27.7016 1227 17M1301 17C1292.28 15.6967 1298.11 27.7016 1301 17M1327 23L1332 17C1327.52 16.3301 1326.22 18.7984 1327 23z"/>
<path style="fill:#f7f7f8; stroke:none;" d="M0 40L0 633L1365 633L1365 40L0 40z"/>
<path style="fill:#748b9e; stroke:none;" d="M393 135L393 150L398 150L397 135L393 135M602 135L603 140C598.238 139.32 592.625 145.035 597.529 149.218C599.932 151.269 604.131 150.115 607 150L607 149L605 135L602 135M609 136L609 137L612 138L612 135L609 136M361 136L367 151L371 142L375 151L382 137L382 136L377 136L375 145L370 136L368 145L367 145L366 136L361 136M461 136L461 141L463 141L463 137L466 137L465 150L470 150L469 137L474 141L474 136L461 136M494 136L494 150L498 150L497 142L498 142L503 151L506 141L507 141L506 150L511 150L510 136L506 136L502 146C500.43 141.391 499.243 136.901 494 136M530 136L530 141L532 141L532 137L535 137L534 150L539 150L538 137L543 141L543 136L530 136M583 136L583 150L594 150L594 146L587 149L587 143L591 145L589 140L587 142L587 137L592 140L593 140L593 136L583 136M570 137L567 140C569.169 143.899 568.972 153.978 575 148L572 149C571.193 145.451 570.777 143.096 574 141L574 140L570 137M618 137L615 140C617.169 143.899 616.972 153.979 623 148L620 149C619.193 145.451 618.777 143.096 622 141L622 140L618 137M664 138L664 150L668 150L667 145L670 146L670 142L669 142L667 144L667 140L672 142L672 138L664 138M727 138L730 150L735 150L735 149C732.511 144.929 736.102 141.73 738 138L734 138L732 144L731 138L727 138M771 138L771 142L775 140L774 150L778 150L777 140L780 142L781 142L781 138L771 138M813 138L813 150L817 150L816 145L821 145L820 150L824 150L824 138L820 138L821 144L816 144L817 138L813 138M862 138L858 150L860 148L865 147L864 150L869 150L869 149L862 138M883 138L883 150L887 150L886 146C894.879 144.103 889.16 138.559 883 138M916 138L919 150L924 150L924 149C921.511 144.929 925.102 141.73 927 138L923 138L921 144L920 138L916 138M961 138L961 150L964 150L964 149L963 143L971 151L972 138L968 138L969 146L968 146L961 138M998 138L999 141C990.479 144.065 994.257 150.555 1002 150L1001 138L998 138M391 147C387.558 147.967 386.48 147.56 384 145L391 144C389.481 139.196 383.555 138.045 382.362 144.015C381.066 150.496 388.043 152.044 391 147M409 147C400.912 149.674 402.536 138.656 408 144C408.095 138.126 401.263 138.994 399.931 144.04C398.219 150.53 406.132 151.892 409 147M415.133 140.137C409.246 142.804 412.674 153.033 418.856 149.777C424.141 146.993 420.952 137.5 415.133 140.137M424 142C427.731 142 425.745 147.428 425 150L429 150L429 141L431 141L431 150L435 150L435 141L437 141L437 150L442 150C440.496 147.296 440.835 142.975 438.972 140.756C436.112 137.349 426.361 138.82 424 142M453 147C449.558 147.967 448.48 147.56 446 145L453 144C451.481 139.196 445.555 138.045 444.362 144.015C443.066 150.496 450.043 152.044 453 147M478.133 140.137C472.246 142.804 475.674 153.033 481.856 149.777C487.141 146.993 483.952 137.5 478.133 140.137M553 147C549.558 147.967 548.48 147.56 546 145L553 144C551.481 139.196 545.555 138.045 544.362 144.015C543.066 150.496 550.043 152.044 553 147M611 139L608 142C611.731 142 609.745 147.428 609 150L613 150L611 139M628.133 140.137C622.246 142.804 625.674 153.033 631.856 149.777C637.141 146.993 633.952 137.5 628.133 140.137M637 142C640.731 142 638.745 147.428 638 150L642 150L641 142L646 142L645 139L637 142M717 139C715.956 142.028 716.228 154.139 721 148L718 149L721 143L721 142L717 139M802 139C800.956 142.028 801.228 154.139 806 148L803 149L806 143L806 142L802 139M512 140C515.143 147.559 515.323 148.801 513 156C519.07 154.089 520.462 145.342 523 140L519 140L518 146L517 140L512 140M555 140C557.446 144.272 557.616 145.805 555 150L559 150L559 147L561 147L561 150L566 150L566 149L561 145L561 144L565 140L561 140L561 143L560 143L560 140L555 140z"/>
<path style="fill:#f7f7f8; stroke:none;" d="M886 140L886 145L889 140L886 140M385 141L389 143L385 141M415 141C414.076 145.303 414.237 148.173 419 149C418.953 145.065 419.046 142.343 415 141M447 141L451 143L447 141M478 141C477.076 145.303 477.237 148.173 482 149C481.953 145.065 482.046 142.343 478 141M547 141L551 143L547 141M602 149L603 141C597.597 141.938 597.437 146.476 602 149M628 141C627.076 145.303 627.237 148.173 632 149C631.953 145.065 632.046 142.343 628 141z"/>
<path style="fill:#748b9e; stroke:none;" d="M677.066 142.086C672.519 143.067 673.186 150.438 677.985 149.824C682.956 149.188 682.203 140.979 677.066 142.086M683 142L683 150L687 150L687 143L690 144L689 141L683 142M691 142L691 150L695 150L694 143L697 143L696 150L700 150L699 143L702 143L701 150L705 150C702.758 140.748 700.032 141.449 691 142M707 145L711 143L706 147L706 149L714 150C713.147 146.633 709.469 136.216 707 145M741.066 142.086C736.519 143.067 737.186 150.438 741.985 149.824C746.956 149.188 746.203 140.979 741.066 142.086M758 142L758 150L762 150L762 143L765 144L764 141L758 142M789 149L789 148L784 149L784 146L789 146C785.482 134.521 776.382 153.71 789 149M833 149L833 148L828 149L828 146L833 146C829.482 134.521 820.382 153.71 833 149M835 142L835 150L839 150L839 143L842 144L841 141L835 142M851 149L851 148L846 149L846 146L851 146C847.482 134.521 838.382 153.71 851 149M870 150C872.803 150.245 877.098 149.068 874 146L874 145L876 142C869.932 141.534 870.28 144.928 870 150M901 149L901 148L896 149L896 146L901 146C897.482 134.521 888.382 153.71 901 149M903 142L903 150L907 150L907 143L910 144L909 141L903 142M930.066 142.086C925.518 143.067 926.186 150.438 930.985 149.824C935.956 149.188 935.203 140.979 930.066 142.086M947 142L947 150L951 150L951 143L954 144L953 141L947 142M981 149L981 148L976 149L976 146L981 146C977.482 134.521 968.382 153.71 981 149M991 149L991 148L986 149L986 146L991 146C987.482 134.521 978.382 153.71 991 149M747 142C748.506 148.024 749.275 150.634 756 150C755.086 146.601 755.827 142.82 752 142L753 149L750 149L750 142L747 142M791 142L791 150L794 148L795 148L796 148L800 150L800 149L796 146L796 145L799 142L794 144L791 142z"/>
<path style="fill:#f7f7f8; stroke:none;" d="M862 142L861 146C863.922 145.361 863.856 144.134 862 142z"/>
<path style="fill:#748b9e; stroke:none;" d="M936 142C937.506 148.024 938.275 150.634 945 150C944.086 146.601 944.827 142.82 941 142L942 149L939 149L939 142L936 142M648 143L648 145L656 145L656 143L648 143z"/>
<path style="fill:#f7f7f8; stroke:none;" d="M676 143L676 149C680.201 147.604 680.201 144.396 676 143M740 143L740 149C744.201 147.604 744.201 144.396 740 143M784 143L784 144L787 144L784 143M828 143L828 144L831 144L828 143M846 143L846 144L849 144L846 143M871 143L874 145L871 143M896 143L896 144L899 144L896 143M929 143L929 149C933.201 147.604 933.201 144.396 929 143M976 143L976 144L979 144L976 143M986 143L986 144L989 144L986 143M996 143L996 149L999 149L999 143L996 143M710 146L708 149C710.251 148.527 711.118 148.14 710 146M871 147L871 149L874 149L874 147L871 147z"/>
<path style="fill:#c6c6c6; stroke:none;" d="M357 173L357 174C372.751 170.25 391.828 173 408 173L511 173L837 173L958 173L991 173C995.178 173 1001.15 171.951 1004.94 174.028C1011.15 177.427 1009 188.117 1009 194L1009 251L1009 455L1009 506C1009 511.305 1010.79 520.577 1006.68 524.682C1000.49 530.879 978.381 527 970 527L865 527L486 527L391 527C383.112 527 363.19 530.554 357.318 524.682C352.702 520.066 355 508.026 355 502L355 440L355 261L355 205C355 195.251 353.733 184.521 356 175C350.652 180.534 352 188.845 352 196L352 247L352 451L352 507C352 514.808 350.746 524.154 358.044 529.297C367.434 535.914 387.938 532 399 532L504 532L873 532L970 532C980.434 532 999.069 535.56 1007.96 529.297C1014.74 524.516 1014 516.328 1014 509L1014 459L1014 250L1014 195C1014 187.192 1015.25 177.846 1007.96 172.703C998.4 165.968 977.27 170 966 170L856 170L499 170L401 170C387.616 170 369.1 166.657 357 173M360.109 174.742C353.829 177.443 356 188.538 356 194L356 251L356 456L356 506C356 510.987 354.169 520.63 358.434 524.258C361.394 526.776 366.409 526 370 526L397 526L505 526L869 526L967 526C976.494 526 996.595 529.821 1004.77 524.821C1009.7 521.805 1008 512.869 1008 508L1008 458L1008 250L1008 194C1008 188.818 1010.01 178.38 1004.77 175.179C1001.33 173.075 995.854 174 992 174L962 174L851 174L502 174L402 174C390.447 174 370.733 170.173 360.109 174.742z"/>
<path style="fill:#f7f7f8; stroke:none;" d="M360.318 177.028C356.159 179.803 358 189.688 358 194L358 244L358 449L358 504C358 508.6 355.922 520.039 360.318 522.972C363.287 524.954 368.611 524 372 524L400 524L505 524L871 524L968 524C976.51 524 996.557 527.727 1003.68 522.972C1007.84 520.197 1006 510.312 1006 506L1006 456L1006 251L1006 196C1006 191.4 1008.08 179.961 1003.68 177.028C996.557 172.273 976.51 176 968 176L871 176L505 176L400 176L372 176C368.611 176 363.287 175.046 360.318 177.028z"/>
<path style="fill:#010101; stroke:none;" d="M362 180L362 199L363 199L362 180z"/>
<path style="fill:#c6c6c6; stroke:none;" d="M1054 227L1055 228L1054 227z"/>
<path style="fill:#748b9e; stroke:none;" d="M1055 227L1056 228L1055 227z"/>
<path style="fill:#424242; stroke:none;" d="M1056.11 227.742C1049.75 230.476 1049.6 256.697 1053.74 261.566C1057.87 266.42 1082.25 265.684 1087.89 263.258C1094.25 260.524 1094.4 234.303 1090.26 229.434C1086.13 224.58 1061.75 225.316 1056.11 227.742z"/>
<path style="fill:#748b9e; stroke:none;" d="M1088 227L1089 228L1088 227z"/>
<path style="fill:#c6c6c6; stroke:none;" d="M1089 227L1090 228L1089 227z"/>
<path style="fill:#748b9e; stroke:none;" d="M1053 228L1054 229L1053 228M1090 228L1091 229L1090 228z"/>
<path style="fill:#c6c6c6; stroke:none;" d="M1052 229L1053 230L1052 229M1091 229L1092 230L1091 229z"/>
<path style="fill:#748b9e; stroke:none;" d="M1052 230L1053 231L1052 230M1091 230L1092 231L1091 230z"/>
<path style="fill:#f7f7f8; stroke:none;" d="M1067 241L1067 250C1073.86 249.919 1074.12 248.22 1074 242L1067 241z"/>
<path style="fill:#424242; stroke:none;" d="M1070 242L1070 245L1072 245L1072 242L1070 242M1070 246L1070 249L1073 249L1073 246L1070 246z"/>
<path style="fill:#748b9e; stroke:none;" d="M1052 260L1053 261L1052 260M1091 260L1092 261L1091 260z"/>
<path style="fill:#c6c6c6; stroke:none;" d="M1052 261L1053 262L1052 261M1091 261L1092 262L1091 261z"/>
<path style="fill:#748b9e; stroke:none;" d="M1053 262L1054 263L1053 262M1090 262L1091 263L1090 262z"/>
<path style="fill:#c6c6c6; stroke:none;" d="M1054 263L1055 264L1054 263z"/>
<path style="fill:#748b9e; stroke:none;" d="M1055 263L1056 264L1055 263M1088 263L1089 264L1088 263z"/>
<path style="fill:#c6c6c6; stroke:none;" d="M1089 263L1090 264L1089 263M1054 284L1055 285L1054 284z"/>
<path style="fill:#748b9e; stroke:none;" d="M1055 284L1056 285L1055 284z"/>
<path style="fill:#424242; stroke:none;" d="M1056.11 284.742C1049.75 287.476 1049.6 313.697 1053.74 318.566C1057.87 323.42 1082.25 322.684 1087.89 320.258C1094.25 317.524 1094.4 291.303 1090.26 286.434C1086.13 281.58 1061.75 282.316 1056.11 284.742z"/>
<path style="fill:#748b9e; stroke:none;" d="M1088 284L1089 285L1088 284z"/>
<path style="fill:#c6c6c6; stroke:none;" d="M1089 284L1090 285L1089 284z"/>
<path style="fill:#748b9e; stroke:none;" d="M1053 285L1054 286L1053 285M1090 285L1091 286L1090 285z"/>
<path style="fill:#c6c6c6; stroke:none;" d="M1052 286L1053 287L1052 286M1091 286L1092 287L1091 286z"/>
<path style="fill:#748b9e; stroke:none;" d="M1052 287L1053 288L1052 287M1091 287L1092 288L1091 287z"/>
<path style="fill:#f7f7f8; stroke:none;" d="M1072 298L1070 307L1073 306L1075 298L1072 298z"/>
<path style="fill:#748b9e; stroke:none;" d="M1052 317L1053 318L1052 317M1091 317L1092 318L1091 317z"/>
<path style="fill:#c6c6c6; stroke:none;" d="M1052 318L1053 319L1052 318M1091 318L1092 319L1091 318z"/>
<path style="fill:#748b9e; stroke:none;" d="M1053 319L1054 320L1053 319M1090 319L1091 320L1090 319z"/>
<path style="fill:#c6c6c6; stroke:none;" d="M1054 320L1055 321L1054 320z"/>
<path style="fill:#748b9e; stroke:none;" d="M1055 320L1056 321L1055 320M1088 320L1089 321L1088 320z"/>
<path style="fill:#c6c6c6; stroke:none;" d="M1089 320L1090 321L1089 320M1054 341L1055 342L1054 341z"/>
<path style="fill:#748b9e; stroke:none;" d="M1055 341L1056 342L1055 341z"/>
<path style="fill:#424242; stroke:none;" d="M1056.11 341.742C1049.75 344.476 1049.6 370.697 1053.74 375.566C1057.87 380.42 1082.25 379.684 1087.89 377.258C1094.25 374.524 1094.4 348.303 1090.26 343.434C1086.13 338.58 1061.75 339.316 1056.11 341.742z"/>
<path style="fill:#748b9e; stroke:none;" d="M1088 341L1089 342L1088 341z"/>
<path style="fill:#c6c6c6; stroke:none;" d="M1089 341L1090 342L1089 341z"/>
<path style="fill:#748b9e; stroke:none;" d="M1053 342L1054 343L1053 342M1090 342L1091 343L1090 342z"/>
<path style="fill:#c6c6c6; stroke:none;" d="M1052 343L1053 344L1052 343M1091 343L1092 344L1091 343z"/>
<path style="fill:#748b9e; stroke:none;" d="M1052 344L1053 345L1052 344M1091 344L1092 345L1091 344z"/>
<path style="fill:#f7f7f8; stroke:none;" d="M1066 355C1068.43 365.043 1073.39 365.435 1076 355L1073 355L1073 356C1073.73 359.89 1072.83 361.791 1069 363L1070 355L1066 355z"/>
<path style="fill:#c6c6c6; stroke:none;" d="M1066 365L1067 366L1066 365z"/>
<path style="fill:#f7f7f8; stroke:none;" d="M1067 365L1067 366L1077 366L1067 365z"/>
<path style="fill:#748b9e; stroke:none;" d="M1077 365L1078 366L1077 365M1052 374L1053 375L1052 374M1091 374L1092 375L1091 374z"/>
<path style="fill:#c6c6c6; stroke:none;" d="M1052 375L1053 376L1052 375M1091 375L1092 376L1091 375z"/>
<path style="fill:#748b9e; stroke:none;" d="M1053 376L1054 377L1053 376M1090 376L1091 377L1090 376z"/>
<path style="fill:#c6c6c6; stroke:none;" d="M1054 377L1055 378L1054 377z"/>
<path style="fill:#748b9e; stroke:none;" d="M1055 377L1056 378L1055 377M1088 377L1089 378L1088 377z"/>
<path style="fill:#c6c6c6; stroke:none;" d="M1089 377L1090 378L1089 377M1054 398L1055 399L1054 398z"/>
<path style="fill:#748b9e; stroke:none;" d="M1055 398L1056 399L1055 398z"/>
<path style="fill:#424242; stroke:none;" d="M1056.11 398.742C1049.67 401.51 1049.52 429.604 1053.74 434.566C1057.87 439.42 1082.25 438.684 1087.89 436.258C1094.33 433.49 1094.48 405.396 1090.26 400.434C1086.13 395.58 1061.75 396.316 1056.11 398.742z"/>
<path style="fill:#748b9e; stroke:none;" d="M1088 398L1089 399L1088 398z"/>
<path style="fill:#c6c6c6; stroke:none;" d="M1089 398L1090 399L1089 398z"/>
<path style="fill:#748b9e; stroke:none;" d="M1053 399L1054 400L1053 399M1090 399L1091 400L1090 399z"/>
<path style="fill:#c6c6c6; stroke:none;" d="M1052 400L1053 401L1052 400M1091 400L1092 401L1091 400z"/>
<path style="fill:#748b9e; stroke:none;" d="M1052 401L1053 402L1052 401M1091 401L1092 402L1091 401z"/>
<path style="fill:#c6c6c6; stroke:none;" d="M1073 419L1073 420L1068 420L1068 421L1076 419L1076 418L1070 418L1073 411C1066.97 408.955 1068.24 417.434 1073 419z"/>
<path style="fill:#748b9e; stroke:none;" d="M1073 410L1073 413L1076 413L1073 410M1068 411L1069 412L1068 411z"/>
<path style="fill:#424242; stroke:none;" d="M1070 411L1073 415L1070 411z"/>
<path style="fill:#748b9e; stroke:none;" d="M1071.33 411.667L1071.67 412.333L1071.33 411.667z"/>
<path style="fill:#f7f7f8; stroke:none;" d="M1072.67 411.333L1073.33 411.667L1072.67 411.333z"/>
<path style="fill:#748b9e; stroke:none;" d="M1067 412L1068 413L1067 412z"/>
<path style="fill:#c6c6c6; stroke:none;" d="M1072 412L1072 413L1075 414L1075 413L1075 412L1072 412z"/>
<path style="fill:#f7f7f8; stroke:none;" d="M1067 413L1067 420L1068 420L1067 413M1072 413L1073 414L1072 413M1075 413L1075 418L1076 418L1075 413z"/>
<path style="fill:#748b9e; stroke:none;" d="M1068 414L1068 419L1069 419L1068 414M1073.67 414.333L1074.33 414.667L1073.67 414.333M1070 415L1070 416L1074 418L1074 417L1070 415z"/>
<path style="fill:#c6c6c6; stroke:none;" d="M1071 415L1071 416L1074 416L1071 415z"/>
<path style="fill:#424242; stroke:none;" d="M1074 415L1075 418L1074 415M1070.33 416.667L1070.67 417.333L1070.33 416.667z"/>
<path style="fill:#f7f7f8; stroke:none;" d="M1069 418L1070 419L1069 418z"/>
<path style="fill:#424242; stroke:none;" d="M1068 419L1068 420L1073 420L1068 419z"/>
<path style="fill:#748b9e; stroke:none;" d="M1067 420L1068 421L1067 420M1073 420L1074 421L1073 420M1052 433L1053 434L1052 433M1091 433L1092 434L1091 433z"/>
<path style="fill:#c6c6c6; stroke:none;" d="M1052 434L1053 435L1052 434M1091 434L1092 435L1091 434z"/>
<path style="fill:#748b9e; stroke:none;" d="M1053 435L1054 436L1053 435M1090 435L1091 436L1090 435z"/>
<path style="fill:#c6c6c6; stroke:none;" d="M1054 436L1055 437L1054 436z"/>
<path style="fill:#748b9e; stroke:none;" d="M1055 436L1056 437L1055 436M1088 436L1089 437L1088 436z"/>
<path style="fill:#c6c6c6; stroke:none;" d="M1089 436L1090 437L1089 436M1054 457L1055 458L1054 457z"/>
<path style="fill:#748b9e; stroke:none;" d="M1055 457L1056 458L1055 457z"/>
<path style="fill:#424242; stroke:none;" d="M1056.11 457.742C1049.67 460.51 1049.52 488.604 1053.74 493.566C1057.87 498.42 1082.25 497.684 1087.89 495.258C1094.33 492.49 1094.48 464.396 1090.26 459.434C1086.13 454.58 1061.75 455.316 1056.11 457.742z"/>
<path style="fill:#748b9e; stroke:none;" d="M1088 457L1089 458L1088 457z"/>
<path style="fill:#c6c6c6; stroke:none;" d="M1089 457L1090 458L1089 457z"/>
<path style="fill:#748b9e; stroke:none;" d="M1053 458L1054 459L1053 458M1090 458L1091 459L1090 458z"/>
<path style="fill:#c6c6c6; stroke:none;" d="M1052 459L1053 460L1052 459M1091 459L1092 460L1091 459z"/>
<path style="fill:#748b9e; stroke:none;" d="M1052 460L1053 461L1052 460M1091 460L1092 461L1091 460M1071 467L1072 468L1071 467z"/>
<path style="fill:#f7f7f8; stroke:none;" d="M1070.06 468.667C1062.8 470.265 1065.7 482.041 1073.85 479.681C1080.07 477.883 1076.82 467.177 1070.06 468.667z"/>
<path style="fill:#c6c6c6; stroke:none;" d="M1066 469L1067 470L1066 469z"/>
<path style="fill:#748b9e; stroke:none;" d="M1071 469L1072 470L1071 469z"/>
<path style="fill:#c6c6c6; stroke:none;" d="M1076 469L1077 470L1076 469z"/>
<path style="fill:#424242; stroke:none;" d="M1067 470L1067 479L1076 479L1076 470L1067 470z"/>
<path style="fill:#c6c6c6; stroke:none;" d="M1068 470L1069 471L1068 470M1074 470L1075 471L1074 470z"/>
<path style="fill:#748b9e; stroke:none;" d="M1069 471L1069 472L1074 472L1069 471z"/>
<path style="fill:#c6c6c6; stroke:none;" d="M1066 479L1067 480L1066 479M1076 479L1077 480L1076 479z"/>
<path style="fill:#748b9e; stroke:none;" d="M1052 492L1053 493L1052 492M1091 492L1092 493L1091 492z"/>
<path style="fill:#c6c6c6; stroke:none;" d="M1052 493L1053 494L1052 493M1091 493L1092 494L1091 493z"/>
<path style="fill:#748b9e; stroke:none;" d="M1053 494L1054 495L1053 494M1090 494L1091 495L1090 494z"/>
<path style="fill:#c6c6c6; stroke:none;" d="M1054 495L1055 496L1054 495z"/>
<path style="fill:#748b9e; stroke:none;" d="M1055 495L1056 496L1055 495M1088 495L1089 496L1088 495z"/>
<path style="fill:#c6c6c6; stroke:none;" d="M1089 495L1090 496L1089 495M408 550L406 553L408 550z"/>
<path style="fill:#748b9e; stroke:none;" d="M409.148 551.028C403.289 554.497 403.553 583.769 410.059 586.397C416.498 588.997 427.105 587 434 587L490 587C496.314 587 510.637 589.647 515.682 585.397C520.616 581.24 520.248 553.15 513.941 550.603C507.502 548.003 496.895 550 490 550L435 550C428.191 550 415.113 547.496 409.148 551.028z"/>
<path style="fill:#c6c6c6; stroke:none;" d="M515 550L516 551L515 550M540 550L538 553L540 550z"/>
<path style="fill:#748b9e; stroke:none;" d="M541.148 551.028C535.289 554.497 535.553 583.769 542.059 586.397C548.498 588.997 559.105 587 566 587L621 587C627.314 587 641.637 589.647 646.682 585.397C651.616 581.24 651.248 553.15 644.941 550.603C638.502 548.003 627.895 550 621 550L567 550C560.191 550 547.113 547.496 541.148 551.028z"/>
<path style="fill:#c6c6c6; stroke:none;" d="M646 550L647 551L646 550M671 550L669 553L671 550z"/>
<path style="fill:#748b9e; stroke:none;" d="M672.148 551.028C666.289 554.497 666.553 583.769 673.059 586.397C680.232 589.294 692.304 587 700 587L762 587C768.683 587 784.368 589.874 789.682 585.397C794.616 581.24 794.248 553.15 787.941 550.603C781.013 547.805 769.429 550 762 550L701 550C693.517 550 678.68 547.161 672.148 551.028z"/>
<path style="fill:#c6c6c6; stroke:none;" d="M789 550L790 551L789 550M814 550L812 553L814 550z"/>
<path style="fill:#748b9e; stroke:none;" d="M815.148 551.028C809.289 554.497 809.553 583.769 816.059 586.397C824.452 589.786 838.972 587 848 587L923 587C930.779 587 950.573 590.544 956.682 585.397C961.616 581.24 961.248 553.15 954.941 550.603C946.548 547.214 932.028 550 923 550L849 550C840.396 550 822.618 546.605 815.148 551.028z"/>
<path style="fill:#c6c6c6; stroke:none;" d="M956 550L957 551L956 550M516 551L517 552L516 551M647 551L648 552L647 551M790 551L791 552L790 551M957 551L958 552L957 551M517 552L518 553L517 552M648 552L649 553L648 552M791 552L792 553L791 552M958 552L959 553L958 552z"/>
<path style="fill:#f7f7f8; stroke:none;" d="M472 563L472 573L475 573L475 572L472 563M558 563L558 573L561 573L561 572L558 563M435 572L435 571C427.552 572.226 427.602 564.392 435 567C428.844 558.463 422.808 575.219 435 572M455 564L456 565L455 564M479 564L480 565L479 564M689 564C689.571 566.307 689.684 570.414 691.738 571.953C696.226 575.316 699.429 567.013 696 564C697.48 572.045 690.52 572.045 692 564L689 564M701 564L701 573L704 573L703 570C708.902 567.717 706.03 564.384 701 564M710 564L710 573L713 573L712 570C717.902 567.717 715.03 564.384 710 564M719 564L719 573L726 570L725 570L721 569L724 570L724 567L721 568L725 566L719 564M728 564L728 573L731 573L731 572L730 569L731 569L735 573L732 570C734.025 565.725 732.479 564.349 728 564M745 572L745 571C737.552 572.226 737.602 564.392 745 567C738.844 558.463 732.808 575.219 745 572M750 564L746 573L748 570L752 570L751 573L754 573L754 572L750 564M756 564L761 572L757 570L756 570C756.765 573.569 758.941 573.11 762 572L757 565L762 567L756 564M764 564L764 573L771 570L770 570L766 569L769 570L769 567L766 568L770 566L764 564M833 564L833 573L836 573L836 572L835 569L836 569L840 573L837 570C839.025 565.725 837.479 564.349 833 564M892 564L897 572L893 570L892 570C892.765 573.569 894.941 573.11 898 572L893 565L898 567L892 564M458 566L463 573L463 572L460 572L463 567L458 566z"/>
<path style="fill:#748b9e; stroke:none;" d="M703 565L703 569L706 565L703 565M712 565L712 569L715 565L712 565M730 565L730 568L733 568L733 565L730 565M835 565L835 568L838 568L838 565L835 565z"/>
<path style="fill:#f7f7f8; stroke:none;" d="M437 567L437 568L440 567L436 572L442 573C441.71 569.187 441.09 566.933 437 567M444 566L444 576L447 576L446 573C453.749 571.708 449.644 566.57 444 566M453 566L456 573L456 566L453 566M465 567L465 568L468 567L464 572L470 573C469.71 569.187 469.09 566.933 465 567M477 566L480 573L480 566L477 566M483 569L484 569L486 567L483 573L488 571L484 572L488 566C485.007 566.064 483.654 565.946 483 569M497 572L497 571L492 572L492 569L496 569C492.317 563.434 488.559 573.921 497 572M565.589 567.175C562.776 568.845 565.54 574.044 568.397 571.914C570.754 570.157 568.234 565.605 565.589 567.175M572 566L575 573L577 570L579 573L582 566L580 570L579 570L578 566L577 566L575 570L575 566L572 566M590 572L590 571L585 572L585 569L589 569C585.317 563.434 581.559 573.921 590 572M591 566L594 573L594 567L597 568L597 567L591 566M604 571L600 572L601 567L603 569L604 569L603 566C597.345 568.274 600.579 574.773 604 571M607 567L607 568L610 567L606 572L612 573C611.71 569.187 611.09 566.933 607 567M615 570L618 571L618 572L615 571L619 573L619 566L615 570M628 572L628 571L623 572L623 569L627 569C623.317 563.434 619.559 573.921 628 572M848 572L848 571L843 572L843 569L847 569C843.317 563.434 839.559 573.921 848 572M849 566L852 573L854 567L856 573L858 567L860 573L858 566L849 566M864.589 567.175C861.776 568.845 864.54 574.044 867.397 571.914C869.754 570.157 867.234 565.605 864.589 567.175M871 566L874 573L878 566L875 567L875 571L874 571L871 566M886 572L886 571L881 572L881 569L885 569C881.317 563.434 877.559 573.921 886 572M899 566L899 576L902 576L901 573C908.749 571.708 904.644 566.57 899 566M909 567L909 568L912 567L908 572L914 573C913.71 569.187 913.09 566.933 909 567M922 571L918 572L919 567L921 569L922 569L921 566C915.345 568.274 918.579 574.773 922 571M931 572L931 571L926 572L926 569L930 569C926.317 563.434 922.559 573.921 931 572M933 570L936 571L936 572L933 571L937 573L937 566L933 570z"/>
<path style="fill:#748b9e; stroke:none;" d="M447 567L446 572L450 572L449 567L447 567M492 567L492 568L495 568L492 567M565 567L565 572L569 572L565 567M585 567L585 568L588 568L585 567M616 567L616 569L618 569L618 567L616 567M623 567L623 568L626 568L623 567M749 567L749 569L751 569L751 567L749 567M843 567L843 568L846 568L843 567M864 567L864 572L868 572L864 567M881 567L881 568L884 568L881 567M902 567L901 572L905 572L904 567L902 567M926 567L926 568L929 568L926 567M934 567L934 569L936 569L936 567L934 567M438 570L438 572L440 572L440 570L438 570M466 570L466 572L468 572L468 570L466 570M608 570L608 572L610 572L610 570L608 570M910 570L910 572L912 572L912 570L910 570z"/>
<path style="fill:#c6c6c6; stroke:none;" d="M406 584L407 585L406 584M517 584L518 585L517 584M538 584L539 585L538 584M648 584L649 585L648 584M669 584L670 585L669 584M791 584L792 585L791 584M812 584L813 585L812 584M958 584L959 585L958 584M407 585L408 586L407 585M516 585L517 586L516 585M539 585L540 586L539 585M647 585L648 586L647 585M670 585L671 586L670 585M790 585L791 586L790 585M813 585L814 586L813 585M957 585L958 586L957 585M408 586L409 587L408 586M515 586L516 587L515 586M540 586L541 587L540 586M646 586L647 587L646 586M671 586L672 587L671 586M789 586L790 587L789 586M814 586L815 587L814 586M956 586L957 587L956 586z"/>
</svg>
