<?xml version="1.0" standalone="yes"?>
<svg xmlns="http://www.w3.org/2000/svg" width="1349" height="697">
<path style="fill:#9acdfd; stroke:none;" d="M0 0L0 65L1349 65L1349 0L0 0z"/>
<path style="fill:#eef8ff; stroke:none;" d="M28 20L21 39C29.8909 34.1351 28.089 36.1877 37 39L28 20M101 20L101 39C103.993 38.8203 108.133 39.521 110.562 37.3935C116.79 31.9402 108.164 27.6381 103 30L103 20L101 20M153 20L153 39L155 39L155 20L153 20M41 21L41 39L43 39L44 30L45 30L54 39C49.8658 31.7426 45.7047 27.9337 54 22L54 21L43 28L43 21L41 21M64 21L71 40L72 40L76 30L80 40L81 40L87 21L80 33L73 21L72 34L71 34C70.1858 29.2687 68.9108 22.7088 64 21M124 35L123 38C127.101 38.7587 138.349 39.0294 133.806 31.3889C132.687 29.5081 128.083 27.8218 128.631 25.2515C129.064 23.218 133.46 23.3118 135 23C131.733 20.7712 122.743 20.4078 124.712 26.8827C125.664 30.0119 136.524 39.908 124 35M183 23L182 24L185 26L183 23M174 24L172 29L172 30L172 31L174 39L176 39L179 30L176 29L176 24L174 24z"/>
<path style="fill:#9acdfd; stroke:none;" d="M28 26L26 32L31 32L28 26z"/>
<path style="fill:#eef8ff; stroke:none;" d="M96 36L90 36L98 33C95.578 26.5135 85.9047 27.325 87.2778 34.9722C88.0882 39.486 94.9925 40.7015 96 36M142.108 28.7863C135.4 31.2175 139.14 41.0233 145.867 38.3812C152.012 35.9674 148.394 26.5079 142.108 28.7863M191.108 28.7863C184.4 31.2175 188.14 41.0233 194.867 38.3812C201.012 35.9674 197.394 26.5079 191.108 28.7863M202 29L202 39L204 39C204.236 34.6838 205.071 32.0618 209 30L209 39L212 39C211.993 29.924 210.404 29.1767 202 29M159 29C159.007 37.6554 160.773 38.552 169 39L169 29L166 29C165.754 36.5336 161.245 36.5334 161 29L159 29M182 29L182 39L184 39L184 29L182 29z"/>
<path style="fill:#9acdfd; stroke:none;" d="M89 34L95 32C92.0683 30.0214 90.7545 31.158 89 34M105.318 31.0856C102.026 33.103 105.372 37.9846 108.397 35.9144C111.268 33.9489 108.478 29.1495 105.318 31.0856M142.458 31.1752C139.299 32.895 142.497 38.0326 145.393 35.9144C147.855 34.113 145.19 29.6879 142.458 31.1752M191.458 31.1752C188.299 32.895 191.497 38.0326 194.393 35.9144C196.855 34.113 194.19 29.6879 191.458 31.1752z"/>
<path style="fill:#eef8ff; stroke:none;" d="M56 33L56 35L61 35L61 33L56 33M0 65L0 695L632 695L632 690L633 690L633 695L637 695L637 690L638 690L638 695L671 695L671 690L672 690L672 695L767 695L767 690L768 690L768 695L1349 695L1349 65L0 65z"/>
<path style="fill:#080909; stroke:none;" d="M416 171L416 168L411 168C418.909 156.749 408.839 138.516 395.019 147.728C384.274 154.889 389.674 170.598 402 170.985C406.658 171.131 411.339 171 416 171M485 145L485 171L488 171C488.017 165.088 488.252 160.067 495 159L495 171L499 171C499 162.861 498.852 152.808 488 158L488 145L485 145M667 145L667 171L670 171C670.017 165.088 670.252 160.067 677 159L677 171L681 171C681 162.861 680.852 152.808 670 158L670 145L667 145M714 157L714 158L714 159L716 171L719 171L719 159L724 159L724 157L719 157C719.017 152.217 718.902 148.547 724 147L724 145C714.108 145.118 718.484 151.081 714 157M746 145L746 171L749 171L749 145L746 145M755 145L755 171L758 171L758 145L755 145M448 146L458 172L459 172L465 158L471 172L481 146C474.289 147.162 473.162 157.396 471 163C468.534 157.463 467.3 148.035 461 146C462.498 152.638 461.776 156.768 459 163L453 146L448 146M420 148L423 151L422 171L426 171L426 148L420 148z"/>
<path style="fill:#eef8ff; stroke:none;" d="M398.044 149.858C387.988 154.179 394.377 171.237 404.995 167.254C416.433 162.964 409.701 144.849 398.044 149.858z"/>
<path style="fill:#080909; stroke:none;" d="M808 149L807 150L807 152L808 153L810 153L811 152L811 150L810 149L808 149M655 150L653 157L653 158L653 159L655 171L658 171L658 159L662 159L662 157L658 157L658 150L655 150M507.109 156.859C498.28 160.83 504.812 174.007 513.942 170.257C523.066 166.51 516.164 152.785 507.109 156.859M549 171L549 157L545 159C537.567 151.417 528.141 163.361 535.318 169.397C538.568 172.13 545.012 170.856 549 171M555 157L555 171L558 171C558.036 158.539 564.999 158.359 565 171L568 171C568.036 158.539 574.999 158.359 575 171L578 171C578 167.369 579.091 161.472 576.972 158.319C573.779 153.566 560.068 157.156 555 157M587.109 156.859C578.28 160.83 584.812 174.006 593.942 170.257C603.066 166.51 596.164 152.785 587.109 156.859M603 157L603 171L606 171C606.017 165.088 606.252 160.067 613 159L613 171L617 171C617 157.657 615.167 157.374 603 157M634 169C632.238 175.074 628.279 174.905 623 173L622 176C637.286 183.356 637 167.513 637 157C632.64 157.127 627.15 154.74 623.434 157.893C615.121 164.947 626.211 173.152 634 169M698 170L697 167L689 167L700 162C691.197 145.582 677.257 169.839 691.996 170.851C694.063 170.993 696.014 170.471 698 170M730.109 156.859C721.28 160.83 727.812 174.007 736.942 170.257C746.066 166.51 739.164 152.785 730.109 156.859M767.109 156.859C758.28 160.83 764.812 174.007 773.942 170.257C783.066 166.51 776.164 152.785 767.109 156.859M816 157L816 171L819 171C819.017 165.088 819.252 160.067 826 159L826 171L830 171C830 157.657 828.167 157.374 816 157M847 169C845.238 175.074 841.279 174.905 836 173L835 176C850.286 183.356 850 167.513 850 157C845.64 157.127 840.15 154.74 836.434 157.893C828.121 164.947 839.211 173.152 847 169M906 171L906 157L902 159C894.567 151.417 885.141 163.361 892.318 169.397C895.568 172.13 902.012 170.856 906 171M918 169L911 167L910 170C919.721 172.307 924.882 164.838 914 161L920 160L921 157C907.127 153.821 914.859 163.075 918 169M781 157L787 172L788 172L791 162L792 162L796 172L797 172L803 157L799 157L797 164L795 164L793 157L789 157L788 165L781 157M807 157L807 171L810 171L810 157L807 157M865 157L871 172L872 172L875 162L876 162L880 172L881 172L887 157L883 157L881 164L879 164L877 157L873 157L872 165L865 157M431 159L431 161L434 162L435 159L434 158L431 159z"/>
<path style="fill:#eef8ff; stroke:none;" d="M508.318 160.047C503.896 162.785 507.814 170.705 512.57 167.777C517.142 164.962 513.237 157.002 508.318 160.047M538.318 160.032C534.012 162.847 538.134 170.092 542.683 167.712C547.571 165.155 543.639 156.554 538.318 160.032M588.318 160.047C583.895 162.785 587.814 170.705 592.57 167.777C597.142 164.962 593.237 157.002 588.318 160.047M626.319 160.032C621.438 163.203 627.028 170.702 631.681 167.214C636.449 163.64 631.101 156.926 626.319 160.032M688 164L696 161C692.254 158.222 689.298 159.723 688 164M731.318 160.047C726.896 162.785 730.814 170.705 735.57 167.777C740.142 164.962 736.237 157.002 731.318 160.047M768.318 160.047C763.896 162.785 767.814 170.705 772.57 167.777C777.142 164.962 773.237 157.002 768.318 160.047M839.319 160.032C834.438 163.203 840.028 170.702 844.681 167.214C849.449 163.64 844.101 156.926 839.319 160.032M895.318 160.032C891.012 162.847 895.134 170.092 899.683 167.712C904.571 165.155 900.639 156.554 895.318 160.032z"/>
<path style="fill:#080909; stroke:none;" d="M432 167L431 168L431 170L432 171L434 171L435 170L435 168L434 167L432 167M427 179L427 206L430 206L430 179L427 179M436 179L436 206L439 206L439 179L436 179M475 179L475 193C457.292 184.49 460.605 213.149 474 204L475 204L478 206L478 179L475 179M527 179L527 206L530 206C530.017 200.088 530.252 195.067 537 194L537 206L541 206C541 197.861 540.852 187.808 530 193L530 179L527 179M632 179L632 193C614.292 184.49 617.605 213.149 631 204L632 204L635 206L635 179L632 179M653 179L653 193C635.292 184.49 638.605 213.149 652 204L653 204L656 206L656 179L653 179M737 192L737 193L737 194L739 206L742 206L742 194L747 194L747 192L742 192L748 179C737.332 179.259 741.75 185.73 737 192M791 179L791 206L794 206L794 179L791 179M800 179L800 206L803 206L804 199L813 206L807 198L807 197L813 192L803 197L803 179L800 179M494 180L494 189L497 189L496 180L494 180M499 180L499 189L502 189L499 180M595 194L587 194L587 197L592 197C589.336 213.702 565.868 187.077 586.001 184.268C588.613 183.903 591.413 184.673 594 185C590.062 173.02 573.132 185.021 574.203 195C575.021 202.621 586.572 210.938 593.397 204.258C595.825 201.88 595 197.077 595 194M915 180L915 189L918 189L917 180L915 180M920 180L920 189L923 189L920 180M926 186L928 187L929 187C930.586 185.161 935.48 181.99 935.516 187.063C935.547 191.412 931.159 195.093 931 200L934 200C935.029 194.899 940.869 190.424 939.547 185.044C937.599 177.115 928.159 180.226 926 186M942 180L942 189L945 189L944 180L942 180M506 181L506 184L512 184L512 206L516 206L516 184L523 184L523 181L506 181M762 201L761 204C767.126 206.585 782.018 205.79 775.82 195.214C774.205 192.457 765.759 190.195 767.207 186.3C768.348 183.231 774.484 184.428 777 184L777 182C772.027 180.816 758.272 180.73 763.043 189.895C765.017 193.687 771.257 194.173 772.503 198.194C774.466 204.526 764.54 201.924 762 201M783 184L782 185L782 187L783 188L785 188L786 187L786 185L785 184L783 184M402 204C391.297 201.333 391.039 195.984 402 194C387.898 180.8 384.842 215.719 402 204M421 206L421 192L417 194C409.567 186.417 400.141 198.361 407.318 204.397C410.568 207.13 417.012 205.856 421 206M457 205L456 202L448 202L459 197C450.197 180.582 436.257 204.839 450.996 205.851C453.063 205.993 455.014 205.471 457 205M558 205L557 202L549 202L560 197C551.197 180.582 537.257 204.839 551.996 205.851C554.063 205.993 556.015 205.471 558 205M604.109 191.859C595.28 195.83 601.812 209.006 610.942 205.257C620.066 201.51 613.164 187.785 604.109 191.859M674 205L673 202L665 202L676 197C667.197 180.582 653.257 204.839 667.996 205.851C670.063 205.993 672.015 205.471 674 205M686 204L679 202L678 205C687.721 207.307 692.882 199.838 682 196L688 195L689 192C675.127 188.821 682.859 198.075 686 204M700 204L693 202L692 205C701.721 207.307 706.882 199.838 696 196L702 195L703 192C689.127 188.821 696.859 198.075 700 204M722.109 191.859C713.28 195.83 719.812 209.006 728.942 205.257C738.066 201.51 731.164 187.785 722.109 191.859M844.109 191.859C835.28 195.83 841.812 209.006 850.942 205.257C860.066 201.51 853.164 187.785 844.109 191.859M864 194L860 192L860 206L863 206L869 191L864 194M873 192L873 206L876 206C876.036 193.539 882.999 193.359 883 206L886 206C886.036 193.539 892.999 193.359 893 206L896 206C896 202.369 897.091 196.472 894.972 193.319C891.779 188.566 878.068 192.156 873 192M908 204L901 202L900 205C909.721 207.307 914.882 199.838 904 196L910 195L911 192C897.127 188.821 904.859 198.075 908 204M782 192L782 206L785 206L785 192L782 192M815 192L821 207L822 207L825 197L826 197L830 207L831 207L837 192L833 192L831 199L829 199L827 192L823 192L822 200L815 192z"/>
<path style="fill:#eef8ff; stroke:none;" d="M410.318 195.032C406.012 197.847 410.134 205.092 414.683 202.712C419.571 200.155 415.639 191.554 410.318 195.032M447 199L455 196C451.254 193.222 448.298 194.723 447 199M467.318 195.032C462.493 198.18 468.017 205.764 472.562 202.214C477.104 198.666 472.089 191.92 467.318 195.032M548 199L556 196C552.254 193.222 549.299 194.723 548 199M605.318 195.047C600.895 197.785 604.814 205.705 609.57 202.777C614.142 199.962 610.237 192.002 605.318 195.047M624.318 195.032C619.493 198.18 625.018 205.764 629.562 202.214C634.104 198.666 629.089 191.92 624.318 195.032M645.318 195.032C640.492 198.18 646.018 205.764 650.562 202.214C655.104 198.666 650.089 191.92 645.318 195.032M664 199L672 196C668.254 193.222 665.299 194.723 664 199M723.318 195.047C718.896 197.785 722.814 205.705 727.57 202.777C732.142 199.962 728.237 192.002 723.318 195.047M845.318 195.047C840.895 197.785 844.814 205.705 849.57 202.777C854.142 199.962 850.237 192.002 845.318 195.047z"/>
<path style="fill:#080909; stroke:none;" d="M930 203L930 205L934 206L935 203L930 203M489 270L489 285L490 285L494 278L494 285L495 285L495 277L490 278L489 270M407 283L407 284C419.406 286.809 413.155 278.206 409 273L416 272C413.735 271.06 407.536 270.457 408.752 274.846C409.954 279.19 418.415 284.755 407 283M431 271L431 285L440 285L440 284L432 284L431 271M485 283C473.905 285.036 473.955 270.727 485 273C473.076 259.374 473.142 296.55 485 283z"/>
<path style="fill:#9acdfd; stroke:none;" d="M391.333 272.667L391.667 273.333L391.333 272.667z"/>
<path style="fill:#5b5b5c; stroke:none;" d="M392 272L392 273L395 273L392 272z"/>
<path style="fill:#9acdfd; stroke:none;" d="M395.333 272.667L395.667 273.333L395.333 272.667M389 273L388 275L390 275L389 273z"/>
<path style="fill:#5b5b5c; stroke:none;" d="M390 273L391 274L390 273z"/>
<path style="fill:#eef8ff; stroke:none;" d="M392.105 273.851C386.113 275.707 388.938 284.994 394.895 283.149C400.887 281.293 398.062 272.006 392.105 273.851z"/>
<path style="fill:#5b5b5c; stroke:none;" d="M396 273L397 274L396 273z"/>
<path style="fill:#9acdfd; stroke:none;" d="M397 273L397 275L399 275L397 273z"/>
<path style="fill:#080909; stroke:none;" d="M419.667 274.333L420.333 274.667L419.667 274.333M442.667 274.333L443.333 274.667L442.667 274.333M498.667 274.333L499.333 274.667L498.667 274.333z"/>
<path style="fill:#5b5b5c; stroke:none;" d="M388 275L389 276L388 275M398 275L399 276L398 275z"/>
<path style="fill:#9acdfd; stroke:none;" d="M387.667 276.333L388.333 276.667L387.667 276.333M398.667 276.333L399.333 276.667L398.667 276.333z"/>
<path style="fill:#5b5b5c; stroke:none;" d="M387 277L387 280L388 280L387 277M399 277L399 280L400 280L399 277z"/>
<path style="fill:#080909; stroke:none;" d="M420 277L420 285L421 285L420 277M443 277L443 285L444 285L443 277M448 277L448 285L449 285L453 278L453 285L454 285L454 277L448 277M465 283C463.142 286.287 461.804 287.33 458 287L458 288C465.819 289.904 465.983 283.051 466 277L465 277L464 279C457.089 274.058 455.326 287.866 465 283M499 277L499 285L500 285L499 277z"/>
<path style="fill:#eef8ff; stroke:none;" d="M459.618 279.082C456.953 280.933 460.035 284.58 462.643 282.918C465.555 281.062 462.15 277.322 459.618 279.082z"/>
<path style="fill:#9acdfd; stroke:none;" d="M387.667 280.333L388.333 280.667L387.667 280.333M398.667 280.333L399.333 280.667L398.667 280.333z"/>
<path style="fill:#080909; stroke:none;" d="M424 280L424 281L428 281L424 280M468 280L468 281L472 281L468 280z"/>
<path style="fill:#5b5b5c; stroke:none;" d="M388 281L389 282L388 281M398 281L399 282L398 281z"/>
<path style="fill:#9acdfd; stroke:none;" d="M388 282L390 284L390 282L388 282M397 282L397 284L399 282L397 282z"/>
<path style="fill:#5b5b5c; stroke:none;" d="M390 283L391 284L390 283z"/>
<path style="fill:#9acdfd; stroke:none;" d="M391.333 283.667L391.667 284.333L391.333 283.667M395.333 283.667L395.667 284.333L395.333 283.667z"/>
<path style="fill:#5b5b5c; stroke:none;" d="M396 283L397 284L396 283M392 284L392 285L395 285L392 284z"/>
<path style="fill:#080909; stroke:none;" d="M408 306L408 320L409 320L409 313L418 313L418 320L419 320L419 306L418 306L418 312L409 312L408 306M471 306L471 320L480 320L480 319L472 319L471 306z"/>
<path style="fill:#9acdfd; stroke:none;" d="M391.333 307.667L391.667 308.333L391.333 307.667z"/>
<path style="fill:#5b5b5c; stroke:none;" d="M392 307L392 308L395 308L392 307z"/>
<path style="fill:#9acdfd; stroke:none;" d="M395.333 307.667L395.667 308.333L395.333 307.667M389 308L388 310L390 310L389 308z"/>
<path style="fill:#5b5b5c; stroke:none;" d="M390 308L391 309L390 308z"/>
<path style="fill:#eef8ff; stroke:none;" d="M392.105 308.851C386.113 310.707 388.938 319.994 394.895 318.149C400.887 316.293 398.062 307.006 392.105 308.851z"/>
<path style="fill:#5b5b5c; stroke:none;" d="M396 308L397 309L396 308z"/>
<path style="fill:#9acdfd; stroke:none;" d="M397 308L397 310L399 310L397 308z"/>
<path style="fill:#080909; stroke:none;" d="M482.667 309.333L483.333 309.667L482.667 309.333z"/>
<path style="fill:#5b5b5c; stroke:none;" d="M388 310L389 311L388 310M398 310L399 311L398 310z"/>
<path style="fill:#9acdfd; stroke:none;" d="M387.667 311.333L388.333 311.667L387.667 311.333M398.667 311.333L399.333 311.667L398.667 311.333z"/>
<path style="fill:#5b5b5c; stroke:none;" d="M387 312L387 315L388 315L387 312M399 312L399 315L400 315L399 312z"/>
<path style="fill:#080909; stroke:none;" d="M424.318 313.072C420.188 315.598 424.705 321.653 428.397 318.954C431.901 316.392 428.139 310.734 424.318 313.072M440 320L440 312C431.093 312.703 431.089 319.248 440 320M444 312L444 320L445 320L449 313L449 320L450 320L450 312L444 312M461 318C459.142 321.287 457.804 322.33 454 322L454 323C461.819 324.904 461.983 318.051 462 312L461 312L460 314C453.089 309.058 451.326 322.866 461 318M483 312L483 320L484 320L483 312z"/>
<path style="fill:#eef8ff; stroke:none;" d="M424.603 314.082C422.132 315.872 424.918 319.713 427.397 317.918C429.868 316.128 427.082 312.287 424.603 314.082M434.603 314.082C432.132 315.872 434.918 319.713 437.397 317.918C439.868 316.128 437.082 312.287 434.603 314.082M455.618 314.082C452.953 315.933 456.035 319.58 458.643 317.918C461.555 316.062 458.15 312.322 455.618 314.082z"/>
<path style="fill:#9acdfd; stroke:none;" d="M387.667 315.333L388.333 315.667L387.667 315.333M398.667 315.333L399.333 315.667L398.667 315.333z"/>
<path style="fill:#080909; stroke:none;" d="M464 315L464 316L468 316L464 315z"/>
<path style="fill:#5b5b5c; stroke:none;" d="M388 316L389 317L388 316M398 316L399 317L398 316z"/>
<path style="fill:#9acdfd; stroke:none;" d="M388 317L390 319L390 317L388 317M397 317L397 319L399 317L397 317z"/>
<path style="fill:#5b5b5c; stroke:none;" d="M390 318L391 319L390 318z"/>
<path style="fill:#9acdfd; stroke:none;" d="M391.333 318.667L391.667 319.333L391.333 318.667M395.333 318.667L395.667 319.333L395.333 318.667z"/>
<path style="fill:#5b5b5c; stroke:none;" d="M396 318L397 319L396 318M392 319L392 320L395 320L392 319z"/>
<path style="fill:#080909; stroke:none;" d="M453 340L453 355L454 355L458 348L458 355L459 355L459 347L454 348L453 340M541 340L541 348C532.519 346.11 534.033 354.328 542 355L541 340M409 341C409 346.561 410.229 352.859 406 357L406 358C411.283 355.087 411.161 346.15 409 341M470 341C470 346.561 471.229 352.859 467 357L467 358C472.283 355.087 472.161 346.15 470 341z"/>
<path style="fill:#9acdfd; stroke:none;" d="M391.333 342.667L391.667 343.333L391.333 342.667z"/>
<path style="fill:#5b5b5c; stroke:none;" d="M392 342L392 343L395 343L392 342z"/>
<path style="fill:#9acdfd; stroke:none;" d="M395.333 342.667L395.667 343.333L395.333 342.667M389 343L388 345L390 345L389 343z"/>
<path style="fill:#5b5b5c; stroke:none;" d="M390 343L391 344L390 343z"/>
<path style="fill:#eef8ff; stroke:none;" d="M392.105 343.851C386.113 345.707 388.938 354.994 394.895 353.149C400.887 351.293 398.062 342.006 392.105 343.851z"/>
<path style="fill:#5b5b5c; stroke:none;" d="M396 343L397 344L396 343z"/>
<path style="fill:#9acdfd; stroke:none;" d="M397 343L397 345L399 345L397 343z"/>
<path style="fill:#5b5b5c; stroke:none;" d="M388 345L389 346L388 345M398 345L399 346L398 345z"/>
<path style="fill:#9acdfd; stroke:none;" d="M387.667 346.333L388.333 346.667L387.667 346.333M398.667 346.333L399.333 346.667L398.667 346.333z"/>
<path style="fill:#5b5b5c; stroke:none;" d="M387 347L387 350L388 350L387 347M399 347L399 350L400 350L399 347z"/>
<path style="fill:#080909; stroke:none;" d="M416.318 348.072C412.188 350.598 416.705 356.653 420.397 353.954C423.901 351.392 420.139 345.734 416.318 348.072M424 348L424 350L428 354L424 353L429 355L425 348L429 349L424 348M438 354L438 353L432 353L439 350C432.222 343.184 428.382 356.143 438 354M442 347L442 359L443 359L443 354C451.481 355.89 449.967 347.672 442 347M483 355L483 347C474.093 347.703 474.089 354.248 483 355M493 355L493 354C487.548 353.128 486.856 348.465 493 349C487.036 344.735 483.923 354.308 493 355M502 354L502 359L503 359L503 347C495.017 347.63 493.527 355.888 502 354M507 347L507 355L513 355L513 347L512 347L512 354L508 354L507 347M524 355L524 347C515.093 347.703 515.089 354.248 524 355M528 347L528 355L529 355L532 348L532 347L528 347z"/>
<path style="fill:#eef8ff; stroke:none;" d="M416.603 349.082C414.132 350.872 416.918 354.713 419.397 352.918C421.868 351.128 419.082 347.287 416.603 349.082M432 351L438 349C434.942 348.29 433.732 348.331 432 351M444.603 349.082C442.132 350.872 444.918 354.713 447.397 352.918C449.868 351.128 447.082 347.287 444.603 349.082M477.603 349.082C475.132 350.872 477.918 354.713 480.397 352.918C482.868 351.128 480.082 347.287 477.603 349.082M497.603 349.082C495.132 350.872 497.918 354.713 500.397 352.918C502.868 351.128 500.082 347.287 497.603 349.082M518.603 349.082C516.132 350.872 518.918 354.713 521.397 352.918C523.868 351.128 521.082 347.287 518.603 349.082M536.603 349.082C534.132 350.872 536.918 354.713 539.397 352.918C541.868 351.128 539.082 347.287 536.603 349.082z"/>
<path style="fill:#9acdfd; stroke:none;" d="M387.667 350.333L388.333 350.667L387.667 350.333M398.667 350.333L399.333 350.667L398.667 350.333z"/>
<path style="fill:#5b5b5c; stroke:none;" d="M388 351L389 352L388 351M398 351L399 352L398 351z"/>
<path style="fill:#9acdfd; stroke:none;" d="M388 352L390 354L390 352L388 352M397 352L397 354L399 352L397 352z"/>
<path style="fill:#5b5b5c; stroke:none;" d="M390 353L391 354L390 353z"/>
<path style="fill:#9acdfd; stroke:none;" d="M391.333 353.667L391.667 354.333L391.333 353.667M395.333 353.667L395.667 354.333L395.333 353.667z"/>
<path style="fill:#5b5b5c; stroke:none;" d="M396 353L397 354L396 353M392 354L392 355L395 355L392 354z"/>
<path style="fill:#080909; stroke:none;" d="M478 375L478 390L479 390L478 375M408 376L408 390L417 390L417 389L409 389L408 376M420 376L420 377L424 377L424 390L425 390L425 377L429 377L420 376z"/>
<path style="fill:#9acdfd; stroke:none;" d="M391.333 377.667L391.667 378.333L391.333 377.667z"/>
<path style="fill:#5b5b5c; stroke:none;" d="M392 377L392 378L395 378L392 377z"/>
<path style="fill:#9acdfd; stroke:none;" d="M395.333 377.667L395.667 378.333L395.333 377.667M389 378L388 380L390 380L389 378z"/>
<path style="fill:#5b5b5c; stroke:none;" d="M390 378L391 379L390 378z"/>
<path style="fill:#eef8ff; stroke:none;" d="M392.105 378.851C386.113 380.707 388.938 389.994 394.895 388.149C400.887 386.293 398.062 377.006 392.105 378.851z"/>
<path style="fill:#5b5b5c; stroke:none;" d="M396 378L397 379L396 378z"/>
<path style="fill:#9acdfd; stroke:none;" d="M397 378L397 380L399 380L397 378z"/>
<path style="fill:#080909; stroke:none;" d="M494 379L492 382L492 383L494 390L495 390L497 383L497 382L494 379z"/>
<path style="fill:#5b5b5c; stroke:none;" d="M388 380L389 381L388 380M398 380L399 381L398 380z"/>
<path style="fill:#9acdfd; stroke:none;" d="M387.667 381.333L388.333 381.667L387.667 381.333M398.667 381.333L399.333 381.667L398.667 381.333z"/>
<path style="fill:#5b5b5c; stroke:none;" d="M387 382L387 385L388 385L387 382M399 382L399 385L400 385L399 382z"/>
<path style="fill:#080909; stroke:none;" d="M432 382L432 390L433 390L436 383L436 382L432 382M440.318 383.072C436.188 385.598 440.705 391.653 444.397 388.954C447.901 386.392 444.139 380.734 440.318 383.072M449 382L449 390L455 390L455 382L454 382L454 389L450 389L449 382M458 382L461 390L462 390L466 382L462 388L458 382M474 389L474 388L468 388L475 385C468.222 378.184 464.382 391.143 474 389M484.318 383.072C480.188 385.598 484.705 391.653 488.397 388.954C491.901 386.392 488.139 380.734 484.318 383.072z"/>
<path style="fill:#eef8ff; stroke:none;" d="M440.603 384.082C438.132 385.872 440.918 389.713 443.397 387.918C445.868 386.128 443.082 382.287 440.603 384.082M468 386L474 384C470.942 383.29 469.732 383.331 468 386M484.603 384.082C482.132 385.872 484.918 389.713 487.397 387.918C489.868 386.128 487.082 382.287 484.603 384.082z"/>
<path style="fill:#9acdfd; stroke:none;" d="M387.667 385.333L388.333 385.667L387.667 385.333M398.667 385.333L399.333 385.667L398.667 385.333z"/>
<path style="fill:#5b5b5c; stroke:none;" d="M388 386L389 387L388 386M398 386L399 387L398 386z"/>
<path style="fill:#9acdfd; stroke:none;" d="M388 387L390 389L390 387L388 387M397 387L397 389L399 387L397 387z"/>
<path style="fill:#5b5b5c; stroke:none;" d="M390 388L391 389L390 388z"/>
<path style="fill:#9acdfd; stroke:none;" d="M391.333 388.667L391.667 389.333L391.333 388.667M395.333 388.667L395.667 389.333L395.333 388.667z"/>
<path style="fill:#5b5b5c; stroke:none;" d="M396 388L397 389L396 388M392 389L392 390L395 390L392 389z"/>
<path style="fill:#080909; stroke:none;" d="M419 389L420 390L419 389z"/>
<path style="fill:#9acdfd; stroke:none;" d="M615 435L615 475L751 475L751 435L615 435z"/>
<path style="fill:#eef8ff; stroke:none;" d="M653 458L646 458C653.42 463.04 658.303 453.856 649 451L655 448C652.874 445.248 646.877 444.862 647.466 449.831C647.834 452.936 652.002 454.799 653 458M686 445L686 460L688 460L688 452L694 458L698 451L699 451L699 460L700 460L700 445L699 445L694 455L686 445M659 446C659 449.311 658.304 453.694 659.742 456.772C665.164 468.372 670 450.216 670 446L668 446C667.991 458.939 661.001 458.958 661 446L659 446M674 446L674 460C685.561 459.863 684.932 446.13 674 446M705 446L705 460L707 460L707 446L705 446M710 446L710 447L714 447L714 460L716 460L716 447L720 447L710 446z"/>
<path style="fill:#9acdfd; stroke:none;" d="M676 447L676 452L680 452L676 447M676 454L676 458L681 458L681 454L676 454z"/>
<path style="fill:#ff0101; stroke:none;" d="M389 515L389 526L390 526L389 515M393 515L393 526L394 526L396 516L393 515M495 515L495 526L496 526L495 515M529 515L529 520C522.693 521.053 524.466 525.569 530 526L529 515M542 515L542 526L543 526L546 521L546 526L547 526L547 520L543 521L542 515M575 515L575 526L576 526L579 521L579 526L580 526L580 520L576 521L575 515M610 515L610 526L611 526L610 515M613 515L613 526L614 526L613 515M754 515L754 526L755 526L757 516L754 515M781 515L781 526L782 526L785 521L785 526L786 526L786 520L782 521L781 515M851 515L851 526L852 526L851 515M440 518L440 526L441 526L440 518M444 518L445 519L444 518M468 518L469 519L468 518M513 518L513 526L514 526L513 518M538 518L538 526L539 526L538 518M571 518L571 526L572 526L571 518M583 518L584 519L583 518M607 518L608 519L607 518M638 518L638 526L639 526L638 518M679 518L679 526L680 526L679 518M732 518L733 519L732 518M744 518L744 526L745 526L744 518M777 518L777 526L778 526L777 518M798 518L798 526L799 526L798 518M829 518L829 526L830 526L829 518M833 518L834 519L833 518M902 518L902 526L903 526L902 518M906 518L907 519L906 518M402 520L402 526L403 526L406 521L406 526L407 526L407 520L402 520M411.603 521.082C409.132 522.872 411.918 526.713 414.397 524.918C416.868 523.128 414.082 519.287 411.603 521.082M424.603 521.082C422.132 522.872 424.918 526.713 427.397 524.918C429.868 523.128 427.082 519.287 424.603 521.082M431 520L431 529L432 529L432 525C439.042 526.642 436.932 520.664 431 520M444 520L444 526L445 526L444 520M448.603 521.082C446.132 522.872 448.918 526.713 451.397 524.918C453.868 523.128 451.082 519.287 448.603 521.082M455 520L455 526L456 526L459 521L459 526L460 526L460 520L455 520M468 520L468 526L469 526L468 520M471 520L474 524L471 525L471 526L475 525C473.791 522.764 471.832 521.422 475 521L471 520M482 520L485 524L482 525L482 526L486 525C484.791 522.764 482.832 521.422 486 521L482 520M493 526L493 525L489 525L489 524L494 522C489.04 518.411 486.483 524.912 493 526M503 526L503 525L499 525L499 524L504 522C499.04 518.411 496.483 524.912 503 526M510 526L510 525L506 525L506 521L510 521C504.806 519.298 504.653 525.108 510 526M522 526L522 525L518 525L518 524L523 522C518.04 518.411 515.483 524.912 522 526M555 526L555 525L551 525L551 524L556 522C551.04 518.411 548.483 524.912 555 526M557 520L557 526L558 526L561 521L561 526L562 526L562 520L557 520M583 520L583 526L584 526L583 520M586 520L589 524L586 525L586 526L590 525C588.791 522.764 586.832 521.422 590 521L586 520M596 520L599 526L603 526L606 520L605 520L603 524L601 520L600 520L600 524L599 524L596 520M607 520L607 526L608 526L607 520M621 520L621 526L622 526L625 521L625 526L626 526L626 520L621 520M630.603 521.082C628.132 522.872 630.918 526.713 633.397 524.918C635.868 523.128 633.082 519.287 630.603 521.082M652 526L652 525L648 525L648 521L652 521C646.806 519.298 646.653 525.108 652 526M655.603 521.082C653.132 522.872 655.918 526.713 658.397 524.918C660.868 523.128 658.082 519.287 655.603 521.082M662 520C662.3 523.864 663.089 525.348 667 526L667 520L666 520L666 525L663 525L662 520M670 520L670 526L671 526L674 521L674 526L675 526L675 520L670 520M694 526L694 520C687.466 520.509 687.466 525.491 694 526M696 520L696 526L697 526L700 521L700 526L701 526L701 520L696 520M703 520L705 529L706 529L709 520L708 520L707 525L706 525L703 520M716 520L716 529L717 529L717 525C724.042 526.642 721.933 520.664 716 520M725.603 521.082C723.132 522.872 725.918 526.713 728.397 524.918C730.868 523.128 728.082 519.287 725.603 521.082M732 520L732 526L733 526L732 520M735 520L735 526L736 526L739 521L739 526L740 526L740 520L735 520M759.603 521.082C757.132 522.872 759.918 526.713 762.397 524.918C764.868 523.128 762.082 519.287 759.603 521.082M766 520L766 526L767 526L769 520L766 520M795 526L795 520C788.466 520.509 788.466 525.491 795 526M807 520L807 529L808 529L808 525C815.041 526.642 812.933 520.664 807 520M821 526L821 520C814.466 520.509 814.466 525.491 821 526M823 520L823 526L824 526L826 520L823 520M833 520L833 526L834 526L833 520M841 526L841 525L837 525L837 521L841 521C835.806 519.298 835.653 525.108 841 526M843 520C843.3 523.864 844.089 525.348 848 526L848 520L847 520L847 525L844 525L843 520M860 526L860 520C853.466 520.509 853.466 525.491 860 526M862 520L862 526L863 526L865 520L862 520M877 529L878 529L878 520C869.435 520.667 874.443 524.77 877 529M880 520C880.3 523.864 881.089 525.348 885 526L885 520L884 520L884 525L881 525L880 520M893 526L893 525L889 525L889 524L894 522C889.04 518.411 886.483 524.912 893 526M895 520L898 524L895 525L895 526L899 525C897.791 522.764 895.832 521.422 899 521L895 520M906 520L906 526L907 526L906 520M910.603 521.082C908.132 522.872 910.918 526.713 913.397 524.918C915.868 523.128 913.082 519.287 910.603 521.082M917 520L917 526L918 526L921 521L921 526L922 526L922 520L917 520z"/>
<path style="fill:#eef8ff; stroke:none;" d="M411 521L411 525L415 525L415 521L411 521M424 521L424 525L428 525L428 521L424 521M432 522L432 524L437 524L437 522L432 522M448 521L448 525L452 525L452 521L448 521M489 523L492 521L489 523M499 523L502 521L499 523M518 523L521 521L518 523M525 521L525 525L529 525L529 521L525 521M551 523L554 521L551 523M630 521L630 525L634 525L634 521L630 521M655 521L655 525L659 525L659 521L655 521M689 521L689 525L693 525L693 521L689 521M717 522L717 524L722 524L722 522L717 522M725 521L725 525L729 525L729 521L725 521M759 521L759 525L763 525L763 521L759 521M790 521L790 525L794 525L794 521L790 521M808 522L808 524L813 524L813 522L808 522M816 521L816 525L820 525L820 521L816 521M855 521L855 525L859 525L859 521L855 521M873 521L873 525L877 525L877 521L873 521M889 523L892 521L889 523M910 521L910 525L914 525L914 521L910 521z"/>
<path style="fill:#ff0101; stroke:none;" d="M925 525L926 526L925 525z"/>
<path style="fill:#9acdfd; stroke:none;" d="M312 559C318.349 570.603 340.637 566 352 566L471 566L913 566L1018 566C1028.8 566 1047.94 570.083 1054 559L1024 560L968 560L790 560L465 560L363 560L312 559z"/>
<path style="fill:#080909; stroke:none;" d="M454 650L454 665L455 665L459 658L459 665L460 665L460 657L455 658L454 650M545 650L545 665C553.426 664.363 554.489 656.109 546 658L545 650M642 650L642 658C633.519 656.11 635.033 664.328 643 665L642 650M663 650L663 665C671.426 664.363 672.489 656.109 664 658L663 650M694 650L688 665L689 665C692.3 659.71 695.7 659.71 699 665L700 665L694 650M786 650L786 665L787 665L791 658L791 665L792 665L792 657L787 658L786 650M854 650L848 665C851.695 662.228 854.416 654.572 854 650M883 650L877 665C880.695 662.228 883.416 654.572 883 650M441 651L441 652L445 652L445 665L446 665L446 652L450 652L441 651M736 651L736 665L737 665L738 658L740 658L746 665C742.658 659.596 740.083 656.454 746 652L746 651L737 658L736 651M828 652L828 653L832 653L829 658C835.009 659.843 832.352 663.882 827 663L827 664C833.003 665.585 838.048 659.341 831 657L834 652L828 652M839.434 653.032C834.259 656.47 838.186 667.853 844.722 663.957C850.675 660.409 845.797 648.805 839.434 653.032M858.434 653.032C853.259 656.47 857.186 667.853 863.722 663.957C869.675 660.409 864.797 648.805 858.434 653.032M867 652L867 653L874 653L869 665L870 665L876 652L867 652M887 658L885 664L885 665L893 665L893 664L888 664C888.986 662.702 890.126 661.411 890.893 659.955C896.397 649.501 881.363 652.88 887 658M897.434 653.032C892.259 656.47 896.186 667.853 902.722 663.957C908.675 660.409 903.797 648.805 897.434 653.032M909 658L907 664L907 665L915 665L915 664L910 664C910.986 662.702 912.126 661.411 912.893 659.955C918.397 649.501 903.363 652.88 909 658M919 658L917 664L917 665L925 665L925 664L920 664C920.986 662.702 922.127 661.411 922.893 659.955C928.397 649.501 913.363 652.88 919 658z"/>
<path style="fill:#eef8ff; stroke:none;" d="M840.313 654.047C835.761 656.888 839.248 666.279 844.486 662.802C848.762 659.963 845.528 650.792 840.313 654.047M859.313 654.047C854.761 656.888 858.248 666.279 863.486 662.802C867.762 659.963 864.528 650.792 859.313 654.047M898.313 654.047C893.761 656.888 897.249 666.279 902.486 662.802C906.762 659.963 903.528 650.792 898.313 654.047z"/>
<path style="fill:#080909; stroke:none;" d="M463.667 654.333L464.333 654.667L463.667 654.333M502.667 654.333L503.333 654.667L502.667 654.333M562.667 654.333L563.333 654.667L562.667 654.333M569 654L567 657L567 658L569 665L570 665L572 658L572 657L569 654M590.667 654.333L591.333 654.667L590.667 654.333z"/>
<path style="fill:#eef8ff; stroke:none;" d="M693 654L692 659L696 659L695 654L693 654z"/>
<path style="fill:#080909; stroke:none;" d="M761 654L759 657L759 658L761 665L762 665L764 658L764 657L761 654M507 656L511 658L507 665L513 665L513 664L509 664L513 657L507 656M464 657L464 665L465 665L464 657M468 658L468 660L472 664L468 663L473 665L469 658L473 659L468 658M488 664L488 669L489 669L489 657C481.017 657.63 479.527 665.888 488 664M493 657L493 665L499 665L499 657L498 657L498 664L494 664L493 657M503 657L503 665L504 665L503 657M521 657L524 665L526 660L527 660L529 665L533 657L532 657L530 662L528 662L526 657L525 657L524 663L521 657M541 664L541 663L535 663L542 660C535.222 653.184 531.382 666.143 541 664M555 658L555 660L559 664L555 663L560 665L556 658L560 659L555 658M563 657L563 665L564 665L563 657M581 664L581 663L575 663L582 660C575.222 653.184 571.382 666.143 581 664M591 657L591 665L592 665L591 657M595 658L595 660L599 664L595 663L600 665L596 658L600 659L595 658M609 657L609 665L610 665L614 658L614 665L615 665C615.431 661.172 616.229 659.19 620 658L620 665L621 665C620.895 656.127 616.238 657.557 609 657M632 665L632 657C623.093 657.703 623.089 664.248 632 665M653 664L653 663L647 663L654 660C647.222 653.184 643.382 666.143 653 664M673 657L674 669L681 657L677 663L673 657M703 657L703 665L704 665L707 658L707 657L703 657M710 657L710 665L716 665L716 657L715 657L715 664L711 664L710 657M720 657L720 665L721 665L725 658L725 665L726 665L726 657L720 657M756 665L756 657C747.093 657.703 747.089 664.248 756 665M768.318 658.072C764.188 660.598 768.705 666.653 772.397 663.954C775.901 661.392 772.139 655.734 768.318 658.072M783 665L783 664C777.548 663.128 776.856 658.465 783 659C777.036 654.735 773.923 664.307 783 665M803.318 658.072C799.188 660.598 803.705 666.653 807.397 663.954C810.901 661.392 807.139 655.734 803.318 658.072M812 657L812 665L813 665L817 658L817 665L818 665L818 657L812 657z"/>
<path style="fill:#eef8ff; stroke:none;" d="M483.603 659.082C481.132 660.872 483.918 664.713 486.397 662.918C488.868 661.128 486.082 657.287 483.603 659.082M535 661L541 659C537.942 658.29 536.732 658.331 535 661M547.603 659.082C545.132 660.872 547.918 664.713 550.397 662.918C552.868 661.128 550.082 657.287 547.603 659.082M575 661L581 659C577.942 658.29 576.732 658.331 575 661M626.603 659.082C624.132 660.872 626.918 664.713 629.397 662.918C631.868 661.128 629.082 657.287 626.603 659.082M637.603 659.082C635.132 660.872 637.918 664.713 640.397 662.918C642.868 661.128 640.082 657.287 637.603 659.082M647 661L653 659C649.942 658.29 648.732 658.331 647 661M665.603 659.082C663.132 660.872 665.918 664.713 668.397 662.918C670.868 661.128 668.082 657.287 665.603 659.082M750.603 659.082C748.132 660.872 750.918 664.713 753.397 662.918C755.868 661.128 753.082 657.287 750.603 659.082M768.603 659.082C766.132 660.872 768.918 664.713 771.397 662.918C773.868 661.128 771.082 657.287 768.603 659.082M803.603 659.082C801.132 660.872 803.918 664.713 806.397 662.918C808.868 661.128 806.082 657.287 803.603 659.082z"/>
<path style="fill:#080909; stroke:none;" d="M606 670L606 685L607 685L606 670M632 670L632 685L633 685L633 681L638 685L635 679L638 678L638 677L633 680L632 670M656 685L657 685L660 678L660 677L657 677L660 671C653.82 669.612 655.935 681.366 656 685M767 670L767 685L768 685L767 670M561 671L561 685L570 685L570 684L562 684L562 678L569 678L569 677L562 677L562 672L570 672L561 671M672 672L672 678C677.452 678.872 678.144 683.535 672 683L672 684C679.249 685.615 680.738 677.603 673 677L673 673L678 673L672 672M683 672L683 678C688.452 678.872 689.144 683.535 683 683L683 684C690.249 685.615 691.738 677.603 684 677L684 673L689 673L683 672M699 672L692 682L699 685L700 685L702 682L702 681L699 672M715 688L715 687C705.485 689.18 699.731 678.604 710.015 674.747C716.886 672.17 721.663 679.216 716 684L716 677C713.662 677.177 710.512 676.86 708.758 678.745C705.126 682.646 710.691 685.366 714 683C719.295 686.525 722.912 679.767 719.257 675.434C708.252 662.387 693.156 694.394 715 688M600.667 674.333L601.333 674.667L600.667 674.333M640.667 674.333L641.333 674.667L640.667 674.333M761.667 674.333L762.333 674.667L761.667 674.333z"/>
<path style="fill:#eef8ff; stroke:none;" d="M698 675L694 681L699 681L698 675z"/>
<path style="fill:#080909; stroke:none;" d="M574 677L574 685L575 685L579 678L579 685L580 685C580.431 681.172 581.229 679.19 585 678L585 685L586 685C585.895 676.127 581.238 677.557 574 677M597 685L597 677C588.093 677.703 588.089 684.248 597 685M601 677L601 685L602 685L601 677M628 685L628 677C619.093 677.703 619.089 684.248 628 685M641 677L641 685L642 685L641 677M646 677L646 685L647 685L651 678L651 685L652 685L652 677L646 677M663.318 678.072C659.188 680.598 663.705 686.653 667.397 683.954C670.901 681.392 667.139 675.734 663.318 678.072M731 683C729.142 686.287 727.805 687.33 724 687L724 688C731.819 689.904 731.983 683.051 732 677L731 677L730 679C723.089 674.058 721.326 687.866 731 683M735 677L735 685L736 685L740 678L740 685L741 685C741.431 681.172 742.229 679.19 746 678L746 685L747 685C746.895 676.127 742.238 677.557 735 677M758 685L758 677C749.093 677.703 749.089 684.248 758 685M762 677L762 685L763 685L762 677M781 685L781 684C775.548 683.128 774.856 678.465 781 679C775.036 674.735 771.923 684.307 781 685M785.318 678.072C781.188 680.598 785.705 686.653 789.397 683.954C792.901 681.392 789.139 675.734 785.318 678.072M794 677L794 685L795 685L799 678L799 685L800 685C800.431 681.172 801.229 679.19 805 678L805 685L806 685C805.895 676.127 801.238 677.557 794 677z"/>
<path style="fill:#eef8ff; stroke:none;" d="M591.603 679.082C589.132 680.872 591.918 684.713 594.397 682.918C596.868 681.128 594.082 677.287 591.603 679.082z"/>
<path style="fill:#080909; stroke:none;" d="M610.333 678.667L610.667 679.333L610.333 678.667z"/>
<path style="fill:#eef8ff; stroke:none;" d="M622.603 679.082C620.132 680.872 622.918 684.713 625.397 682.918C627.868 681.128 625.082 677.287 622.603 679.082M663.603 679.082C661.132 680.872 663.918 684.713 666.397 682.918C668.868 681.128 666.082 677.287 663.603 679.082M710.318 679.082C707.357 680.848 709.767 684.657 712.682 682.918C715.643 681.152 713.233 677.343 710.318 679.082M725.618 679.082C722.953 680.933 726.035 684.58 728.643 682.918C731.555 681.062 728.15 677.322 725.618 679.082M752.603 679.082C750.132 680.872 752.918 684.713 755.397 682.918C757.868 681.128 755.082 677.287 752.603 679.082M785.603 679.082C783.132 680.872 785.918 684.713 788.397 682.918C790.868 681.128 788.082 677.287 785.603 679.082z"/>
<path style="fill:#080909; stroke:none;" d="M610 684L611 685L610 684M771 684L772 685L771 684M623 690L622 694L623 690M632 690L632 695L392 695L392 697L688 697L688 695L672 695L672 690L671 690L671 695L638 695L638 690L637 690L637 695L633 695L632 690M767 690L767 695L736 695L736 697L1349 697L1349 695L768 695L767 690M598 693L598 694L606 694L598 693M0 695L0 697L48 697L48 695L0 695z"/>
<path style="fill:#5b5b5c; stroke:none;" d="M48 695L48 697L392 697L392 695L48 695M688 695L688 697L736 697L736 695L688 695z"/>
</svg>
