<?xml version="1.0" standalone="yes"?>
<svg xmlns="http://www.w3.org/2000/svg" width="1329" height="682">
<path style="fill:#638ad0; stroke:none;" d="M0 0L0 681L1329 681L1329 0L0 0z"/>
<path style="fill:#3d4d68; stroke:none;" d="M479 56.4676C467.59 58.6202 459.413 67.4753 458.174 79C454.675 111.541 458 146.255 458 179L458 483L458 565C458 576.79 455.345 592.287 461.188 602.999C467.696 614.929 479.858 616 492 616L554 616L753 616L816 616C826.216 616 838.011 617.612 848 615.319C859.35 612.714 867.061 603.574 867.91 592C870.327 559.048 868 525.049 868 492L868 186L868 105C868 93.3352 870.515 78.4297 864.235 68.0038C857.512 56.8418 845.705 56 834 56L771 56L574 56L511 56C500.694 56 489.144 54.5538 479 56.4676z"/>
<path style="fill:#638ad0; stroke:none;" d="M475.667 59.3333L476.333 59.6667L475.667 59.3333z"/>
<path style="fill:#ffffff; stroke:none;" d="M461 77L861 77C854.356 49.0423 806.887 59 785 59L546 59L500 59C492.405 59 483.353 57.6758 476 59.7894C467.503 62.2319 462.964 68.7342 461 77z"/>
<path style="fill:#638ad0; stroke:none;" d="M845.667 59.3333L846.333 59.6667L845.667 59.3333M472 60L473 61L472 60z"/>
<path style="fill:#b77bfa; stroke:none;" d="M473 60L474 61L473 60z"/>
<path style="fill:#638ad0; stroke:none;" d="M848 60L849 61L848 60z"/>
<path style="fill:#b77bfa; stroke:none;" d="M471 61L472 62L471 61M850 61L851 62L850 61z"/>
<path style="fill:#638ad0; stroke:none;" d="M469 62L470 63L469 62M852 62L853 63L852 62z"/>
<path style="fill:#b77bfa; stroke:none;" d="M468 63L469 64L468 63M853 63L854 64L853 63M465 66L466 67L465 66M856 66L857 67L856 66z"/>
<path style="fill:#638ad0; stroke:none;" d="M464 67L465 68L464 67M857 67L858 68L857 67z"/>
<path style="fill:#b77bfa; stroke:none;" d="M463 69L464 70L463 69M858 69L859 70L858 69z"/>
<path style="fill:#638ad0; stroke:none;" d="M462 70L463 71L462 70z"/>
<path style="fill:#b77bfa; stroke:none;" d="M462 71L463 72L462 71M859 71L860 72L859 71z"/>
<path style="fill:#638ad0; stroke:none;" d="M461.333 73.6667L461.667 74.3333L461.333 73.6667M860.333 73.6667L860.667 74.3333L860.333 73.6667z"/>
<path style="fill:#b77bfa; stroke:none;" d="M461 77L461 135L861 135L861 77L461 77z"/>
<path style="fill:#ffffff; stroke:none;" d="M704 97L703 98L703 100L704 101L706 101L707 100L707 98L706 97L704 97M588 98L588 102L594 102L594 118L598 118L598 102L604 102L604 98L588 98M635 98L635 118C639.165 118 644.239 118.626 647.867 116.142C653.111 112.55 653.474 102.833 647.786 99.4568C644.128 97.2852 639.075 98 635 98M688 98L688 118L699 118L699 114L692 114L692 98L688 98M733 118L730 115L733 107L733 104L730 104L730 100C721.424 103.252 724.341 117.34 733 118z"/>
<path style="fill:#b77bfa; stroke:none;" d="M639 102L639 114C649.856 113.405 649.856 102.595 639 102z"/>
<path style="fill:#ffffff; stroke:none;" d="M607.109 104.743C598.442 108.419 605.304 121.004 613.891 117.141C622.553 113.245 615.58 101.15 607.109 104.743M660.109 104.743C651.442 108.419 658.304 121.004 666.891 117.141C675.553 113.245 668.58 101.15 660.109 104.743M703 104L703 118L707 118L707 104L703 104M717 115L711 114C712.378 118.151 720.351 119.634 720.364 113.934C720.371 111.052 716.771 108.88 715 107L720 108L720 104C709.771 104.247 711.426 109.081 717 115z"/>
<path style="fill:#b77bfa; stroke:none;" d="M609.302 108.086C605.596 110.287 608.692 116.761 612.272 113.953C615.078 111.752 613.065 105.852 609.302 108.086M662.302 108.086C658.596 110.287 661.692 116.761 665.272 113.953C668.078 111.752 666.065 105.852 662.302 108.086z"/>
<path style="fill:#ffffff; stroke:none;" d="M620 120L620 122L632 122L632 120L620 120M673 120L673 122L685 122L685 120L673 120M461 135L461 538L462 538C468.141 529.492 476.533 531 486 531L540 531L774 531L835 531C844.694 531 853.694 529.264 860 538L861 538L861 135L461 135z"/>
<path style="fill:#b77bfa; stroke:none;" d="M776 155.468C753.952 159.627 744.94 186.809 758.529 203.985C766.393 213.925 779.963 216.803 792 214.532C814.048 210.373 823.06 183.191 809.471 166.015C801.607 156.075 788.037 153.197 776 155.468z"/>
<path style="fill:#ffffff; stroke:none;" d="M781 175L781 181L775 181L775 185L781 185L781 191L785 191L785 185L791 185L791 181L785 181L785 175L781 175z"/>
<path style="fill:#638ad0; stroke:none;" d="M569 177L565 190L578 190L574 177L569 177M587 177L587 181C582.841 180.393 578.762 184.467 582.59 188.372C584.377 190.196 587.662 189.863 590 190L590 177L587 177M600 177L600 181C595.841 180.393 591.762 184.467 595.59 188.372C597.377 190.196 600.662 189.863 603 190L603 177L600 177M633 177L633 190L636 190L636 177L633 177M641 177C638.823 181.968 638.634 188.938 645 190L645 182L645 181L645 180L643 177L641 177z"/>
<path style="fill:#ffffff; stroke:none;" d="M571 180L570 184L573 184L573 183L571 180z"/>
<path style="fill:#638ad0; stroke:none;" d="M614 183L619 182L619 183C611.031 187.481 617.281 189.684 623 190C621.742 184.734 620.567 176.32 614 183M657 187L651 188L657 186C656.36 181.985 650.982 177.088 648.623 183.147C646.136 189.534 653.517 190.54 657 187M661 180L661 190L664 190L667 182L667 190L670 190L673 182L673 190L676 190C675.991 178.623 670.57 180.526 661 180z"/>
<path style="fill:#ffffff; stroke:none;" d="M585 182L585 188L586 188L585 182M598 182L598 188L599 188L598 182M651 182L651 184L654 184L654 182L651 182M618 185L617 188L618 185z"/>
<path style="fill:#b77bfa; stroke:none;" d="M507 203L507 205L737 205L737 203L507 203M468.004 531.742C456.932 536.032 457.087 567.29 469.001 570.566C477.604 572.932 489.095 571 498 571L560 571L762 571L831 571C838.261 571 850.935 573.438 856.891 568.566C865.027 561.913 864.041 533.426 852 531.228C842.877 529.563 832.27 531 823 531L764 531L579 531L502 531C492.181 531 477.198 528.18 468.004 531.742z"/>
<path style="fill:#ffffff; stroke:none;" d="M685 544L686 555L693 555L694 544L685 544M626 546L626 557C636.884 556.736 636.884 546.264 626 546M649 546L649 557L651 557L651 546L649 546M665 547C664.307 551.372 664.353 555.463 669 557L669 551L669 550L669 549L667 547L665 547z"/>
<path style="fill:#b77bfa; stroke:none;" d="M628 548L628 555C633.219 553.418 633.549 549.212 628 548z"/>
<path style="fill:#ffffff; stroke:none;" d="M645 554L641 554L641 553L646 553C645.171 548.637 639.222 547.825 639.222 553C639.222 557.073 644.133 558.047 645 554M661 554L657 554L657 553L662 553C661.171 548.637 655.222 547.825 655.222 553C655.222 557.073 660.133 558.047 661 554M679 554L675 554L675 553L680 553C679.171 548.637 673.222 547.825 673.222 553C673.222 557.073 678.133 558.047 679 554z"/>
<path style="fill:#b77bfa; stroke:none;" d="M641 551L641 552L644 552L641 551M657 551L657 552L660 552L657 551M675 551L675 552L678 552L675 551z"/>
<path style="fill:#ffffff; stroke:none;" d="M461 564C461 579.189 456.722 601.622 475 607.892C483.065 610.659 493.563 609 502 609L558 609L746 609L814 609C824.14 609 837.331 611.209 847 607.892C865.278 601.622 861 579.189 861 564L860 564C853.538 572.952 843.913 571 834 571L771 571L544 571L491 571C479.032 571 470.265 572.456 461 564z"/>
<path style="fill:#f12d2d; stroke:none;" d="M517 583L517 593L519 593L519 587L520 587L525 593L525 583L523 583L523 589L522 589L520 583L517 583M567 583L567 593L569 593L569 587L570 587L571 593L573 593L574 587L575 587L575 593L577 593L577 583L573 589L567 583M599 583L599 585L601 585L601 583L599 583M649 583L652 590L649 593C654.502 592.082 653.624 588.905 651 585L654 585L654 583L649 583M706 583L706 585L708 585L708 583L706 583M744 583L744 593L746 593L746 583L744 583M750 583L750 593L752 593L752 583L750 583M791 583L791 587L787 586C785.85 591.527 787.852 592.549 793 593L793 583L791 583M539 584C538.213 587.604 537.81 592.102 542 593L541 584L539 584M683 584C682.213 587.604 681.81 592.102 686 593L685 584L683 584M530.303 587.086C527.117 588.97 529.252 593.951 532.697 591.914C535.883 590.03 533.748 585.049 530.303 587.086M551 593L551 591L547 591L547 590L552 590C549.465 582.391 540.826 592.207 551 593M555 586L555 588L557 588L557 586L555 586M581 586L584 588L584 589L580 590L580 592L581 593L586 593C585.863 588.824 585.362 586.728 581 586M589 586L589 593L592 591L593 591L596 593L596 586L593 588L592 588L589 586M599 586L599 593L601 593L601 586L599 586M605 586L605 593L607 593L607 588L609 588L609 593L611 593L611 588L613 588L613 593L615 593L614 586L605 586M619 586L620 593L625 593L625 586L623 586L623 591L621 591L621 586L619 586M629 586L629 593L631 593L631 588L633 588L633 593L635 593L635 588L637 588L637 593L639 593L638 586L629 586M669 593L669 591L665 591L665 590L670 590C667.465 582.391 658.826 592.207 669 593M673 586L673 593L675 593L675 588L677 588L677 593L679 593L678 586L673 586M695 593L695 591L691 591L691 590L696 590C693.465 582.391 684.826 592.207 695 593M699 586L699 593L701 593L703 586L699 586M706 586L706 593L708 593L708 586L706 586M717 593L717 591L713 591L713 590L718 590C715.465 582.391 706.826 592.207 717 593M720 587L720 589L723 590L723 591L720 593L725 592L725 590L722 589L722 588L725 586L720 587M735 586L738 588L738 589L734 590L734 592L735 593L740 593C739.863 588.824 739.362 586.728 735 586M757.303 587.086C754.117 588.97 756.252 593.951 759.697 591.914C762.883 590.03 760.748 585.049 757.303 587.086M765 586C765.673 589.481 766.751 594.848 770 590L771 593L775 586L773 590L772 590L769 586L769 589L768 589L765 586M783 593L783 591L779 591L779 590L784 590C781.465 582.391 772.826 592.207 783 593z"/>
<path style="fill:#ffffff; stroke:none;" d="M530 588L530 591L533 591L533 588L530 588M547 588L547 589L550 589L547 588M665 588L665 589L668 589L665 588M691 588L691 589L694 589L691 588M713 588L713 589L716 589L713 588M757 588L757 591L760 591L760 588L757 588M779 588L779 589L782 589L779 588M788 588L788 591L791 591L791 588L788 588M582.667 590.333L583.333 590.667L582.667 590.333M736.667 590.333L737.333 590.667L736.667 590.333z"/>
<path style="fill:#f12d2d; stroke:none;" d="M555 591L555 593L557 593L557 591L555 591M797 591L797 593L799 593L799 591L797 591z"/>
<path style="fill:#638ad0; stroke:none;" d="M461.333 593.667L461.667 594.333L461.333 593.667M860.333 593.667L860.667 594.333L860.333 593.667M462 596L463 597L462 596z"/>
<path style="fill:#b77bfa; stroke:none;" d="M859 596L860 597L859 596M463 598L464 599L463 598M858 598L859 599L858 598z"/>
<path style="fill:#638ad0; stroke:none;" d="M464 600L465 601L464 600M857 600L858 601L857 600z"/>
<path style="fill:#b77bfa; stroke:none;" d="M465 601L466 602L465 601M856 601L857 602L856 601M468 604L469 605L468 604M853 604L854 605L853 604z"/>
<path style="fill:#638ad0; stroke:none;" d="M469 605L470 606L469 605M852 605L853 606L852 605z"/>
<path style="fill:#b77bfa; stroke:none;" d="M471 606L472 607L471 606M850 606L851 607L850 606M473 607L474 608L473 607M848 607L849 608L848 607z"/>
<path style="fill:#638ad0; stroke:none;" d="M475.667 608.333L476.333 608.667L475.667 608.333M845.667 608.333L846.333 608.667L845.667 608.333z"/>
<path style="fill:#3d4d68; stroke:none;" d="M0 681L0 682L1329 682L1295 681L1216 681L944 681L0 681z"/>
</svg>
