<?xml version="1.0" standalone="yes"?>
<svg xmlns="http://www.w3.org/2000/svg" width="1364" height="695">
<path style="fill:#131f42; stroke:none;" d="M0 0L0 60L1364 60L1364 0L0 0z"/>
<path style="fill:#fefefe; stroke:none;" d="M36 18L36 22L33 20C34.2832 22.5663 38.8603 29.2151 34 28L34 31C38.6639 30.9999 34.1416 36.9343 33 39L36 37L36 41L37 41L37 37L40 39C38.7169 36.4337 34.1397 29.7849 39 31L39 28C34.3361 28.0001 38.8584 22.0658 40 20L37 22L36 18z"/>
<path style="fill:#535d66; stroke:none;" d="M34 20L35 21L34 20M38 20L39 21L38 20M35 21L36 22L35 21M37 21L38 22L37 21z"/>
<path style="fill:#fefefe; stroke:none;" d="M76 21L76 36L77 36L77 31L78 31L84 36L79 31L79 30L84 25L78 30L77 30L76 21M162 21L162 36L163 36C163.242 25.9969 169.759 25.9707 170 36L171 36C170.999 29.6107 171.069 23.8021 163 26L162 21M29 22L30 23L29 22M43 22L44 23L43 22M65 22L60 36L62 33L72 36L67 22L65 22M99 22C100.436 26.4473 101.141 34.5788 106 36L109 26L112 36L114 36L118 22L114 32L112 32L110 22L108 22L105 34L104 34L102 22L99 22M153 22C152.232 27.3781 151.465 34.9094 158 36L155 34L158 26L153 22z"/>
<path style="fill:#535d66; stroke:none;" d="M26 23L26 28L29 28L28 25L31 24L31 23L26 23z"/>
<path style="fill:#fcb41f; stroke:none;" d="M29 23L30 24L29 23z"/>
<path style="fill:#535d66; stroke:none;" d="M42 23L42 24L44 28L47 28L47 23L46 23L45 25L42 23z"/>
<path style="fill:#fcb41f; stroke:none;" d="M43 23L44 24L43 23z"/>
<path style="fill:#fefefe; stroke:none;" d="M27 24L28 25L27 24z"/>
<path style="fill:#fcb41f; stroke:none;" d="M30 24L31 25L30 24M35.3333 24.6667L35.6667 25.3333L35.3333 24.6667M37.3333 24.6667L37.6667 25.3333L37.3333 24.6667M42 24L43 25L42 24z"/>
<path style="fill:#fefefe; stroke:none;" d="M45 24L46 25L45 24M1077 24L1077 35C1089.13 35 1084.71 27.7626 1077 24M1203 24L1203 35L1205 35L1205 28L1209 28L1209 35L1211 35L1210 27L1203 24M1268 33L1268 32C1258.68 34.6074 1258.04 25.0007 1268 28C1258.89 17.7914 1253.69 39.8353 1268 33z"/>
<path style="fill:#fcb41f; stroke:none;" d="M28.3333 25.6667L28.6667 26.3333L28.3333 25.6667z"/>
<path style="fill:#fefefe; stroke:none;" d="M29 25C31.0474 27.7797 32.6558 27.2523 35 25L29 25z"/>
<path style="fill:#535d66; stroke:none;" d="M33 25L34 26L33 25z"/>
<path style="fill:#fefefe; stroke:none;" d="M38 25C40.3442 27.2523 41.9526 27.7797 44 25L38 25z"/>
<path style="fill:#535d66; stroke:none;" d="M39 25L40 26L39 25z"/>
<path style="fill:#fcb41f; stroke:none;" d="M44.3333 25.6667L44.6667 26.3333L44.3333 25.6667z"/>
<path style="fill:#131f42; stroke:none;" d="M65 25L64 31L68 31L65 25z"/>
<path style="fill:#fefefe; stroke:none;" d="M132 33L124 31L133 31C132.546 29.7092 132.303 28.2795 131.258 27.2739C120.696 17.1016 120.355 44.8455 132 33M147 36L147 25C133.86 25.9016 133.916 35.0458 147 36M186 33L178 31L187 31C186.546 29.7092 186.303 28.2795 185.258 27.2739C174.696 17.1016 174.355 44.8455 186 33M191 25L191 36L192 36L196 25L191 25M993 25L993 35L995 35L995 30L1000 30L1000 35L1001 35L1001 25L1000 25L1000 29L995 29L995 25L993 25M1070 25L1066 35L1076 35L1072 25L1070 25M1107 25C1106.54 29.2367 1106.54 33.4329 1111 35L1111 34L1111 28L1111 27L1109 25L1107 25M1163 25L1166 35L1170 27L1171 27L1173 35L1174 35L1177 25L1176 25L1174 33L1173 33L1169 25L1168 32L1167 32L1163 25M1198 25C1197.54 29.2367 1197.54 33.4329 1202 35L1202 34L1202 28L1202 27L1200 25L1198 25M1290 25C1289.54 29.2367 1289.54 33.4329 1294 35L1294 34L1294 28L1294 27L1292 25L1290 25M1314 25C1313.54 29.2367 1313.54 33.4329 1318 35L1318 34L1318 28L1318 27L1316 25L1314 25z"/>
<path style="fill:#535d66; stroke:none;" d="M34 26L31 28L31 31L34 31L33 34L34 34L35 31L32 30L32 29L34 26z"/>
<path style="fill:#131f42; stroke:none;" d="M35.3333 26.6667L35.6667 27.3333L35.3333 26.6667M37.3333 26.6667L37.6667 27.3333L37.3333 26.6667z"/>
<path style="fill:#535d66; stroke:none;" d="M38 26L41 29L41 30L39 34L40 34L39 31L42 28L38 26z"/>
<path style="fill:#131f42; stroke:none;" d="M124 30L131 30C128.654 26.4385 126.162 26.1678 124 30M141.09 27.1759C137.172 27.7371 137.897 34.3992 141.91 33.8241C145.828 33.2629 145.103 26.6008 141.09 27.1759M178 30L185 30C182.654 26.4385 180.162 26.1678 178 30z"/>
<path style="fill:#fcb41f; stroke:none;" d="M27 27L28 28L27 27M33 27L34 28L33 27M39 27L40 28L39 27M45 27L46 28L45 27z"/>
<path style="fill:#fefefe; stroke:none;" d="M1004.6 28.0471C1001.11 30.6209 1004.77 36.4535 1008.68 33.9529C1012.77 31.3431 1008.29 25.3322 1004.6 28.0471M1013 27L1013 35L1015 35L1015 28L1019 28L1019 35L1020 35L1021 28L1025 35C1028.66 26.1869 1018.89 27.0729 1013 27M1035 32L1029 31L1036 31C1028.25 16.9604 1027.39 43.6997 1035 32M1088.6 28.0471C1085.11 30.621 1088.77 36.4534 1092.68 33.9529C1096.77 31.3432 1092.29 25.3322 1088.6 28.0471M1097 27C1097.14 32.7226 1098.31 34.5144 1104 35L1104 27L1103 27L1099 34L1097 27M1116 27C1116.14 32.7226 1117.31 34.5144 1123 35L1123 27L1122 27L1118 34L1116 27M1126 27L1131 33L1126 33L1126 34C1129.43 34.7837 1130.86 34.4224 1132 31L1127 28L1132 29L1126 27M1186 32L1180 31L1187 31C1179.25 16.9604 1178.39 43.6997 1186 32M1196 35L1196 27C1186.56 27.6498 1186.55 34.305 1196 35M1220 32L1214 31L1221 31C1213.25 16.9604 1212.39 43.6997 1220 32M1222 27L1222 35L1224 35L1226 28L1222 27M1271.6 28.0471C1268.11 30.6211 1271.77 36.4534 1275.68 33.9529C1279.77 31.3433 1275.29 25.3321 1271.6 28.0471M1280 27L1280 35L1282 35L1282 28L1286 28L1286 35L1288 35L1287 27L1280 27M1303 35L1303 27C1293.56 27.6498 1293.55 34.305 1303 35M1312 32C1306.22 33.616 1306.28 28.8132 1312 29C1302.34 21.8039 1305.85 41.4476 1312 32z"/>
<path style="fill:#fcb41f; stroke:none;" d="M35 28L36 29L35 28M37 28L38 29L37 28z"/>
<path style="fill:#fefefe; stroke:none;" d="M87 28L87 29L95 29L87 28z"/>
<path style="fill:#131f42; stroke:none;" d="M1005.58 29.0818C1003.54 30.6157 1005.25 34.1636 1007.7 32.8287C1010.43 31.3373 1008.09 27.1922 1005.58 29.0818M1029 29L1029 30L1034 30L1034 28L1029 29M1070 28L1069 32L1073 32L1070 28M1079 28C1079.72 37.2224 1087.14 29.3593 1079 28M1089.58 29.0818C1087.54 30.6156 1089.25 34.1637 1091.7 32.8287C1094.43 31.3374 1092.09 27.192 1089.58 29.0818M1180 29L1180 30L1185 30L1185 28L1180 29M1190.58 29.0818C1188.54 30.6157 1190.25 34.1636 1192.7 32.8287C1195.43 31.3375 1193.09 27.1921 1190.58 29.0818M1214 29L1214 30L1219 30L1219 28L1214 29M1272.58 29.0818C1270.54 30.6156 1272.25 34.1638 1274.7 32.8287C1277.43 31.3374 1275.09 27.192 1272.58 29.0818M1297.58 29.0818C1295.54 30.6157 1297.25 34.1637 1299.7 32.8287C1302.43 31.3375 1300.09 27.192 1297.58 29.0818z"/>
<path style="fill:#fcb41f; stroke:none;" d="M32 29L33 30L32 29z"/>
<path style="fill:#131f42; stroke:none;" d="M33.6667 29.3333L34.3333 29.6667L33.6667 29.3333M38.6667 29.3333L39.3333 29.6667L38.6667 29.3333z"/>
<path style="fill:#fcb41f; stroke:none;" d="M40 29L41 30L40 29M35 30L36 31L35 30M37 30L38 31L37 30z"/>
<path style="fill:#535d66; stroke:none;" d="M26 31L26 36L27 36L28 34L31 36L31 35L29 31L26 31z"/>
<path style="fill:#fcb41f; stroke:none;" d="M27 31L28 32L27 31z"/>
<path style="fill:#fefefe; stroke:none;" d="M29 34L34 32L29 34z"/>
<path style="fill:#fcb41f; stroke:none;" d="M33 31L34 32L33 31z"/>
<path style="fill:#131f42; stroke:none;" d="M35.3333 31.6667L35.6667 32.3333L35.3333 31.6667M37.3333 31.6667L37.6667 32.3333L37.3333 31.6667z"/>
<path style="fill:#fcb41f; stroke:none;" d="M39 31L40 32L39 31z"/>
<path style="fill:#fefefe; stroke:none;" d="M39 32L44 34L39 32z"/>
<path style="fill:#535d66; stroke:none;" d="M44 31L45 34L42 35L42 36L47 31L44 31z"/>
<path style="fill:#fcb41f; stroke:none;" d="M45 31L46 32L45 31M28.3333 32.6667L28.6667 33.3333L28.3333 32.6667M44.3333 32.6667L44.6667 33.3333L44.3333 32.6667z"/>
<path style="fill:#fefefe; stroke:none;" d="M34 33L35 34L34 33z"/>
<path style="fill:#fcb41f; stroke:none;" d="M35.3333 33.6667L35.6667 34.3333L35.3333 33.6667M37.3333 33.6667L37.6667 34.3333L37.3333 33.6667z"/>
<path style="fill:#fefefe; stroke:none;" d="M38 33L39 34L38 33M27 34L28 35L27 34z"/>
<path style="fill:#fcb41f; stroke:none;" d="M30 34L31 35L30 34M42 34L43 35L42 34z"/>
<path style="fill:#fefefe; stroke:none;" d="M45 34L46 35L45 34z"/>
<path style="fill:#fcb41f; stroke:none;" d="M46 34L47 35L46 34M29 35L30 36L29 35M43 35L44 36L43 35z"/>
<path style="fill:#535d66; stroke:none;" d="M46 35L47 36L46 35z"/>
<path style="fill:#fefefe; stroke:none;" d="M29 36L30 37L29 36M43 36L44 37L43 36z"/>
<path style="fill:#535d66; stroke:none;" d="M35 37L36 38L35 37M37 37L38 38L37 37M34 38L35 39L34 38M38 38L39 39L38 38z"/>
<path style="fill:#fefefe; stroke:none;" d="M0 60L0 650L1364 650L1364 60L0 60z"/>
<path style="fill:#fcb41f; stroke:none;" d="M437 110L438 111L437 110z"/>
<path style="fill:#535d66; stroke:none;" d="M438.667 110.333L439.333 110.667L438.667 110.333z"/>
<path style="fill:#131f42; stroke:none;" d="M440.001 110.533C427.154 113.672 426.282 145.755 439.001 149.427C449.853 152.561 464.726 150 476 150L554 150L810 150L896 150C904.462 150 921.238 153.205 927.721 146.721C934.686 139.757 933.585 113.629 922.999 110.573C914.114 108.007 902.215 110 893 110L830 110L564 110L480 110C467.521 110 452.137 107.568 440.001 110.533z"/>
<path style="fill:#535d66; stroke:none;" d="M923 110L924 111L923 110z"/>
<path style="fill:#fcb41f; stroke:none;" d="M924 110L925 111L924 110M435 111L436 112L435 111z"/>
<path style="fill:#535d66; stroke:none;" d="M436 111L437 112L436 111z"/>
<path style="fill:#fcb41f; stroke:none;" d="M926 111L927 112L926 111z"/>
<path style="fill:#535d66; stroke:none;" d="M434 112L435 113L434 112z"/>
<path style="fill:#0589b7; stroke:none;" d="M844.015 112.653C834.075 115.865 833.405 141.71 842.105 146.543C847.485 149.532 856.051 148 862 148L901 148C906.783 148 914.539 149.319 919.957 146.991C929.265 142.992 929.265 117.008 919.957 113.009C914.049 110.471 905.317 112 899 112C882.795 112 859.424 107.674 844.015 112.653z"/>
<path style="fill:#535d66; stroke:none;" d="M927 112L928 113L927 112M433 113L434 114L433 113M928 113L929 114L928 113z"/>
<path style="fill:#fcb41f; stroke:none;" d="M432 114L433 115L432 114z"/>
<path style="fill:#535d66; stroke:none;" d="M929 114L930 115L929 114M432 115L433 116L432 115z"/>
<path style="fill:#fcb41f; stroke:none;" d="M431 116L432 117L431 116z"/>
<path style="fill:#535d66; stroke:none;" d="M930.333 116.667L930.667 117.333L930.333 116.667M431.333 117.667L431.667 118.333L431.333 117.667z"/>
<path style="fill:#fcb41f; stroke:none;" d="M931 117C932.898 125.888 938.467 141.976 930.721 149.721C924.487 155.956 909.107 153 901 153L822 153L570 153C527.392 153 479.479 158.859 438 150C444.487 158.183 459.512 155 469 155L553 155L861 155L908 155C914.289 155 923.064 156.556 928.996 154.258C939.856 150.051 938.871 123.24 931 117z"/>
<path style="fill:#535d66; stroke:none;" d="M931 120C931 128.083 933.482 140.684 926.867 146.721C920.154 152.848 905.445 150 897 150L817 150L441 150L441 151C451.932 155.613 467.275 153 479 153L558 153L834 153L897 153C906.195 153 918.136 155.013 926.995 152.427C936.887 149.541 936.658 126.506 931 120z"/>
<path style="fill:#fefefe; stroke:none;" d="M488 124L488 134L489 134L488 124M491.333 124.667L491.667 125.333L491.333 124.667M899 124L899 134L900 134L904 128L904 134L905 134L905 127L900 128L899 124M447 125L447 134L448 134L448 130L453 134L449 130L449 129L453 125L448 129L447 125M462 134L462 127C454.015 127.633 454.018 133.324 462 134M464 127L468 133L464 132L469 133L469 131L465 128L469 129L464 127M478 134L478 127C470.015 127.633 470.018 133.324 478 134M480 127C480.155 131.724 481.11 133.619 486 134L486 127L485 127L485 133L480 127M491 127L491 134L492 134L491 127M857 127L861 133L857 132L862 133L862 131L858 128L862 129L857 127M871 133L871 132L866 133L866 131L872 131C866.862 122.646 861.995 135.049 871 133M881 134L881 127C873.015 127.633 873.018 133.324 881 134M884 127L884 134L885 134L887 127L884 127M896 133L896 132L891 133L891 128L896 129C890.234 124.827 888.101 134.798 896 133z"/>
<path style="fill:#131f42; stroke:none;" d="M456 128L460 133C460.138 129.558 459.402 128.593 456 128M472 128L476 133C476.138 129.558 475.402 128.593 472 128z"/>
<path style="fill:#0589b7; stroke:none;" d="M866 128L866 130L870 130L870 128L866 128M875 128L879 133C879.138 129.558 878.402 128.593 875 128z"/>
<path style="fill:#535d66; stroke:none;" d="M431 142L432 143L431 142z"/>
<path style="fill:#fcb41f; stroke:none;" d="M431 143L432 144L431 143M432 145L433 146L432 145z"/>
<path style="fill:#535d66; stroke:none;" d="M433 146L434 147L433 146M434 147L435 148L434 147M435 148L436 149L435 148M437.667 149.333L438.333 149.667L437.667 149.333z"/>
<path style="fill:#131f42; stroke:none;" d="M491 260L491 303L871 303L871 260L491 260z"/>
<path style="fill:#fcb41f; stroke:none;" d="M871 265C878.249 283.542 874 309.135 874 329L874 465L874 510C874 514.582 875.624 523.075 871.682 526.397C866.91 530.417 853.942 528 848 528L782 528L585 528L530 528C518.379 528 506.898 529.26 496 525C498.837 534.344 526.567 530 535 530L657 530L819 530L860 530C863.88 530 871.386 531.407 874.397 528.397C879.441 523.352 876 502.912 876 496L876 404L876 298C876 290.167 879.928 267.71 871 265z"/>
<path style="fill:#535d66; stroke:none;" d="M871 267L871 525L498 525C502.869 529.972 512.468 528 519 528L573 528L790 528L851 528C856.101 528 868.541 530.252 872.397 526.397C874.823 523.971 874 519.101 874 516L874 490L874 384L874 298C874 289.73 877.193 273.065 871 267z"/>
<path style="fill:#fefefe; stroke:none;" d="M515 273L511 290L512 290L515 273M536 273L532 290L533 290L536 273M497 276L498 287L499 287L497 276M502 279L507 277L502 287L509 287L509 286L504 286C508.534 280.878 506.332 272.417 502 279M518 279L523 277L518 287L525 287L525 286L520 286C524.534 280.878 522.332 272.417 518 279M527 276L528 287L529 287L527 276M539 279L544 277L539 287L546 287L546 286L541 286C545.534 280.878 543.332 272.417 539 279M550.299 277.086C546.213 279.478 548.927 288.93 553.401 285.914C556.513 283.816 555.049 274.306 550.299 277.086M557 279L562 277L557 287L564 287L564 286L559 286C563.534 280.878 561.332 272.417 557 279M566 279L571 277L566 287L573 287L573 286L568 286C572.534 280.878 570.332 272.416 566 279M809 276L809 280C800.263 277.674 801.277 286.359 810 287L809 276M846 276L846 280C837.263 277.674 838.277 286.359 847 287L846 276z"/>
<path style="fill:#131f42; stroke:none;" d="M553 286L553 277C548.502 279.482 548.502 283.518 553 286z"/>
<path style="fill:#fefefe; stroke:none;" d="M777 277L780 287L784 279L785 279L787 287L788 287L791 277L790 277L788 285L787 285L783 277L782 284L781 284L777 277M800 284L794 283L801 283C793.253 268.961 792.39 295.699 800 284M812 279L812 287L814 287L814 280L818 280L818 287L820 287L819 279L812 279M829 284L823 283L830 283C822.253 268.961 821.39 295.699 829 284M831 279L836 285L831 285L831 286C834.43 286.784 835.864 286.422 837 283L832 280L837 281L831 279M857 287L857 279C847.555 279.65 847.549 286.305 857 287M858 279L860 291L861 291L866 279L865 279L863 285L862 285L858 279z"/>
<path style="fill:#131f42; stroke:none;" d="M794 281L794 282L799 282L799 280L794 281M804.579 281.082C802.54 282.616 804.25 286.164 806.697 284.829C809.43 283.337 807.091 279.192 804.579 281.082M823 281L823 282L828 282L828 280L823 281M841.579 281.082C839.54 282.616 841.25 286.164 843.697 284.829C846.43 283.337 844.091 279.192 841.579 281.082M851.579 281.082C849.54 282.616 851.25 286.164 853.697 284.829C856.43 283.337 854.091 279.192 851.579 281.082M491 304L491 525L871 525L871 304L491 304z"/>
<path style="fill:#fefefe; stroke:none;" d="M695 361L695 376L696 376L695 361M700 361L700 363L703 363L703 361L700 361M627 362L627 376L628 376L628 370L636 376C631.909 369.879 631.909 368.121 636 362L628 368L627 362M718 362L718 376L719 376L718 362M724 362L724 376L725 376L725 365L726 365C727.722 369.544 730.192 374.416 735 376L735 362L733 362L733 373L732 373L724 362M650 376L650 365C636.86 365.901 636.916 375.046 650 376M661 372L661 374L654 373C659.69 378.788 664.663 371.337 656 369L656 367L657 366L662 368C658.179 362.134 651.272 369.428 661 372M676 376L676 365C662.86 365.901 662.916 375.046 676 376M680 365C680.071 373.429 681.881 375.401 690 376L690 365L688 365C687.964 375.055 682.116 374.908 682 365L680 365M701 365L701 376L702 376L701 365z"/>
<path style="fill:#131f42; stroke:none;" d="M644.089 367.176C640.172 367.737 640.897 374.399 644.911 373.824C648.828 373.263 648.103 366.601 644.089 367.176M670.089 367.176C666.172 367.737 666.897 374.399 670.911 373.824C674.828 373.263 674.103 366.601 670.089 367.176z"/>
<path style="fill:#fefefe; stroke:none;" d="M706 373L705 379L706 379L708 373L706 373z"/>
<path style="fill:#535d66; stroke:none;" d="M791.667 459.333L792.333 459.667L791.667 459.333z"/>
<path style="fill:#fcb41f; stroke:none;" d="M791 460L784 461L778 466L773 472L772 479L772 481L773 488L778 494L784 499L791 500L793 500L800 499L806 494L811 488L812 481L812 479L811 472L806 466L800 461L793 460L791 460z"/>
<path style="fill:#535d66; stroke:none;" d="M790 461L791 462L790 461M793 461L794 462L793 461M786 462L787 463L786 462M789 462L790 463L789 462M794 462L795 463L794 462M797 462L798 463L797 462z"/>
<path style="fill:#fefefe; stroke:none;" d="M627.148 464.072C622.334 466.648 626.003 474.144 630.855 471.863C636.083 469.406 632.369 461.277 627.148 464.072z"/>
<path style="fill:#535d66; stroke:none;" d="M783 463L784 464L783 463M800 463L801 464L800 463z"/>
<path style="fill:#131f42; stroke:none;" d="M628 465L627 470L631 470L630 465L628 465z"/>
<path style="fill:#535d66; stroke:none;" d="M777 465L777 467L779 465L777 465M781 465L782 466L781 465M802 465L803 466L802 465M805 465L807 467L807 465L805 465z"/>
<path style="fill:#fefefe; stroke:none;" d="M558 477L562 477C564.364 472.765 569.977 473.746 567.762 479.005C565.562 484.228 559.681 486.484 558 492L573 492L573 489L565 489C568.381 485.455 573.548 480.506 572.472 475.019C570.607 465.504 559.935 470.643 558 477M581 476C583.388 475.631 586.54 473.444 588.872 473.898C594.122 474.92 587.93 478.596 586 479L586 482C595.291 483.927 588.987 492.211 585 485L581 485C583.734 498.224 602.249 490.066 593 481C600.372 470.7 585.421 465.342 581 476M599 476C601.388 475.631 604.54 473.444 606.872 473.898C612.122 474.92 605.93 478.596 604 479L604 482C613.291 483.927 606.987 492.211 603 485L599 485C601.734 498.224 620.249 490.066 611 481C618.372 470.7 603.421 465.342 599 476z"/>
<path style="fill:#535d66; stroke:none;" d="M777 469L778 470L777 469M806 469L807 470L806 469z"/>
<path style="fill:#fefefe; stroke:none;" d="M548 470L551 473L551 493L554 493L554 470L548 470M656 485C652.329 485.553 648.653 488.914 645.005 488.535C638.21 487.828 637.368 477.897 643.059 475.047C647.177 472.985 651.875 477.378 656 478C651.44 466.778 634.663 469.135 635.134 482C635.589 494.424 651.687 495.615 656 485z"/>
<path style="fill:#535d66; stroke:none;" d="M775 471L776 472L775 471M808 471L809 472L808 471M774 474L775 475L774 474M809 474L810 475L809 474M774 477L775 478L774 477M809 477L810 478L809 477M773 478L774 479L773 478M810 478L811 479L810 478M771.333 479.667L771.667 480.333L771.333 479.667M812.333 479.667L812.667 480.333L812.333 479.667M773 481L774 482L773 481M810 481L811 482L810 481M774 482L775 483L774 482M809 482L810 483L809 482M774 485L775 486L774 485M809 485L810 486L809 485z"/>
<path style="fill:#fefefe; stroke:none;" d="M576 493L578 493L579 488C575.964 489 575.506 489.863 576 493z"/>
<path style="fill:#535d66; stroke:none;" d="M775 488L776 489L775 488M808 488L809 489L808 488M777 490L778 491L777 490M777 493L777 495L779 495L777 493M806 493L805 495L807 495L806 493M781 494L782 495L781 494M783 496L784 497L783 496M800 496L801 497L800 496M786 497L787 498L786 497M789 497L790 498L789 497M794 497L795 498L794 497M797 497L798 498L797 497M790 498L791 499L790 498M793 498L794 499L793 498M791.667 500.333L792.333 500.667L791.667 500.333z"/>
<path style="fill:#131f42; stroke:none;" d="M0 650L0 695C18.385 695 36.9514 693.036 55 693C377.821 692.356 699.402 695 1022 695L1275 695L1337 695C1342.53 695 1355.2 697.344 1359 693L1360 693L1364 695L1364 650L0 650z"/>
<path style="fill:#fefefe; stroke:none;" d="M546 656L546 667L548 667L548 660L552 660L552 667L554 667L553 659L546 656M556.667 656.333L557.333 656.667L556.667 656.333M593 656L593 667C605.128 667 600.708 659.762 593 656M611.667 656.333L612.333 656.667L611.667 656.333M633.667 656.333L634.333 656.667L633.667 656.333M704 656L704 660C695.263 657.674 696.277 666.359 705 667L704 656M711 656L711 667C723.128 667 718.708 659.762 711 656M816 656L816 667L818 667L818 660L822 660L822 667L824 667L823 659L816 656M538 657L538 658L540 667L542 667L545 658L538 657M615 657C614.539 661.237 614.54 665.433 619 667L619 666L619 660L619 659L617 657L615 657M683 657C682.539 661.237 682.54 665.433 687 667L687 666L687 660L687 659L685 657L683 657M736 657L732 667L742 667L738 657L736 657M773 657L773 667L775 667L775 663L776 663L781 667L781 666C777.403 663.021 777.403 660.979 781 658L781 657L775 660L773 657M792 657C791.539 661.237 791.54 665.433 796 667L796 666L796 660L796 659L794 657L792 657M556 659L556 667L558 667L558 659L556 659M560 659L565 665L560 665L560 666C563.43 666.784 564.864 666.422 566 663L561 660L566 661L560 659M571 659L574 667L575 667L577 662L581 667L583 659L582 659L580 664L576 659L575 666L574 666L571 659M591 664L585 663L592 663C584.253 648.961 583.39 675.699 591 664M603 659L608 665L603 665L603 666C606.43 666.784 607.864 666.422 609 663L604 660L609 661L603 659M611 659L611 667L613 667L613 659L611 659M627 664L621 663L628 663C620.253 648.961 619.39 675.699 627 664M633 659L633 667L635 667L635 659L633 659M637 659L642 665L637 665L637 666C640.43 666.784 641.864 666.422 643 663L638 660L643 661L637 659M656 664C650.22 665.616 650.276 660.813 656 661C646.335 653.804 649.855 673.448 656 664M658 659L658 667L660 667L662 660L658 659M671 664L665 663L672 663C664.253 648.961 663.39 675.699 671 664M681 667L681 659C671.555 659.65 671.549 666.305 681 667M695 664L689 663L696 663C688.253 648.961 687.39 675.699 695 664M720 659L722 671L723 671L728 659L727 659L725 665L724 665L720 659M743 659L743 667L745 667L747 660L743 659M749 659C749.139 664.722 750.31 666.515 756 667L756 659L755 659L751 666L749 659M759 659L759 667L761 667L761 660L765 660L765 667L767 667L766 659L759 659M790 667L790 659C780.555 659.65 780.549 666.305 790 667M798.603 660.047C795.107 662.621 798.768 668.453 802.682 665.953C806.768 663.343 802.291 657.332 798.603 660.047M814 664C808.22 665.616 808.276 660.813 814 661C804.335 653.804 807.855 673.448 814 664z"/>
<path style="fill:#131f42; stroke:none;" d="M585 661L585 662L590 662L590 660L585 661M595 660C595.718 669.222 603.144 661.359 595 660M621 661L621 662L626 662L626 660L621 661M665 661L665 662L670 662L670 660L665 661M675.579 661.082C673.54 662.616 675.25 666.164 677.697 664.829C680.43 663.337 678.09 659.192 675.579 661.082M689 661L689 662L694 662L694 660L689 661M699.579 661.082C697.54 662.616 699.25 666.164 701.697 664.829C704.43 663.337 702.09 659.192 699.579 661.082M713 660C713.718 669.222 721.144 661.359 713 660M736 660L735 664L739 664L736 660M784.579 661.082C782.54 662.616 784.25 666.164 786.697 664.829C789.43 663.337 787.09 659.192 784.579 661.082M799.579 661.082C797.54 662.616 799.25 666.164 801.697 664.829C804.43 663.337 802.091 659.192 799.579 661.082z"/>
<path style="fill:#fefefe; stroke:none;" d="M641 677L641 681C633.419 679.275 634.977 686.405 642 687L641 677M672 677L672 681C664.419 679.275 665.977 686.405 673 687L672 677M701 680L704 678L701 687L707 687L707 686L703 686L707 679C704.184 677.911 702.881 677.516 701 680M747 680L750 678L747 687L753 687L753 686L749 686L753 679C750.184 677.911 748.881 677.516 747 680M756.259 678.346C752.968 679.585 753.635 687.571 757.741 686.248C761.25 685.118 760.044 676.92 756.259 678.346M762 680L765 678L762 687L768 687L768 686L764 686L768 679C765.184 677.911 763.881 677.516 762 680M769 680L772 678L769 687L775 687L775 686L771 686L775 679C772.184 677.911 770.881 677.516 769 680M588 678L588 687L592 687L592 686L589 686L588 678M610 678C609.586 681.821 609.611 684.826 613 687L613 686L613 681L613 680L610 678M653 678C652.586 681.822 652.611 684.826 656 687L656 686L656 681L656 680L653 678M696 678L696 679L698 687L699 687L699 678L696 678M715 678L715 687C724.066 686.499 724.065 678.501 715 678z"/>
<path style="fill:#131f42; stroke:none;" d="M716 679L716 686C721.714 685.046 721.714 679.954 716 679M755 679L756 686L758 686L759 679L755 679z"/>
<path style="fill:#fefefe; stroke:none;" d="M601 687L601 680C593.015 680.633 593.018 686.324 601 687M603 680L607 686L603 685L608 686L608 684L604 681L608 682L603 680M618 680C618.155 684.724 619.11 686.619 624 687L624 680L623 680L623 686L618 680M626 680L626 690L627 690L627 686C634.581 687.725 633.023 680.595 626 680M651 687L651 680C643.015 680.633 643.018 686.324 651 687M664 686L664 685L659 686L659 684L665 684C659.862 675.646 654.995 688.049 664 686M679.603 681.086C676.732 683.051 679.522 687.851 682.682 685.914C685.974 683.897 682.628 679.015 679.603 681.086M686 680L686 687L687 687L691 681L691 687L692 687L692 680L686 680M730 686L730 685L725 686L725 684L731 684C725.862 675.646 720.995 688.049 730 686M738 686L738 685L733 686L733 681L738 682C732.234 677.827 730.101 687.798 738 686z"/>
<path style="fill:#131f42; stroke:none;" d="M595 681L599 686C599.138 682.558 598.403 681.593 595 681M628.603 682.157C626.87 683.314 628.664 686.002 630.397 684.843C632.13 683.686 630.336 680.999 628.603 682.157M636 681L640 686C640.138 682.558 639.403 681.593 636 681M645 681L649 686C649.138 682.558 648.403 681.593 645 681M659 681L659 683L663 683L663 681L659 681M667 681L671 686C671.138 682.558 670.403 681.593 667 681M679 681L683 686C683.138 682.558 682.403 681.593 679 681M725 681L725 683L729 683L729 681L725 681z"/>
<path style="fill:#fefefe; stroke:none;" d="M708 682L708 683L713 683L708 682M740 682L740 683L745 683L740 682z"/>
<path style="fill:#535d66; stroke:none;" d="M46 695C59.3831 691.814 75.2708 694 89 694L172 694L319 694C341.228 694 368.392 689.856 390 695C386.394 690.873 375.217 693 370 693L315 693L113 693L64 693C59.0991 693 49.4072 691.101 46 695M686 693L686 695L734 695L734 693L686 693M1359.33 693.667L1359.67 694.333L1359.33 693.667z"/>
<path style="fill:#131f42; stroke:none;" d="M47 694L47 695L348 695L321 694L260 694L47 694M351 694L351 695L389 695C378.964 690.789 361.911 694 351 694z"/>
</svg>
