<?xml version="1.0" standalone="yes"?>
<svg xmlns="http://www.w3.org/2000/svg" width="1366" height="690">
<path style="fill:#182345; stroke:none;" d="M0 0L0 56L1366 56L1366 0L0 0z"/>
<path style="fill:#fefefe; stroke:none;" d="M38 14L38 18L35 16L38 19L38 20L33 20L29 20L37 25L37 26L29 31L33 31L38 31L38 32L35 35L38 33L38 37L39 37L39 33L42 35L39 32L39 31L44 31L48 31L40 26L40 25L48 20L44 20L39 20L39 19L42 16L39 18L38 14z"/>
<path style="fill:#6d64f6; stroke:none;" d="M36 16L37 17L36 16M40 16L41 17L40 16M37 17L38 18L37 17M39 17L40 18L39 17z"/>
<path style="fill:#fefefe; stroke:none;" d="M78 17L78 32L79 32L79 27L80 27L86 32L81 27L81 26L86 21L80 26L79 26L78 17M164 17L164 32L165 32C165.242 21.997 171.759 21.9707 172 32L173 32C172.999 25.6107 173.069 19.8021 165 22L164 17M31 18L32 19L31 18M45 18L46 19L45 18M67 18L62 32L64 29L74 32L69 18L67 18M101 18C102.436 22.4472 103.141 30.5788 108 32L111 22L114 32L116 32L120 18L116 28L114 28L112 18L110 18L107 30L106 30L104 18L101 18M155 18C154.232 23.3781 153.465 30.9094 160 32L157 30L160 22L155 18z"/>
<path style="fill:#615f64; stroke:none;" d="M28 19L29 20L28 19z"/>
<path style="fill:#6d64f6; stroke:none;" d="M31 19L30 21L31 19z"/>
<path style="fill:#615f64; stroke:none;" d="M32 19L33 20L32 19M44 19L46 21L44 19z"/>
<path style="fill:#6d64f6; stroke:none;" d="M45 19L46 20L45 19z"/>
<path style="fill:#615f64; stroke:none;" d="M48 19L49 20L48 19z"/>
<path style="fill:#6d64f6; stroke:none;" d="M28 20L29 21L28 20z"/>
<path style="fill:#615f64; stroke:none;" d="M31 20L32 21L31 20z"/>
<path style="fill:#6d64f6; stroke:none;" d="M46 20L47 21L46 20M48 20L49 21L48 20z"/>
<path style="fill:#fefefe; stroke:none;" d="M1079 20L1079 31C1091.13 31 1086.71 23.7625 1079 20M1205 20L1205 31L1207 31L1207 24L1211 24L1211 31L1213 31L1212 23L1205 20M1270 29L1270 28C1260.68 30.6074 1260.04 21.0007 1270 24C1260.89 13.7914 1255.69 35.8354 1270 29z"/>
<path style="fill:#615f64; stroke:none;" d="M29 21L31 24L29 21M35 21L36 22L35 21z"/>
<path style="fill:#6d64f6; stroke:none;" d="M37 21L38 22L37 21M39 21L40 22L39 21z"/>
<path style="fill:#615f64; stroke:none;" d="M41 21L42 22L41 21M47 21L46 24L47 21z"/>
<path style="fill:#182345; stroke:none;" d="M67 21L66 27L70 27L67 21z"/>
<path style="fill:#fefefe; stroke:none;" d="M134 29L126 27L135 27C134.547 25.7094 134.302 24.2794 133.258 23.2739C122.696 13.1016 122.355 40.8455 134 29M149 32L149 21C135.86 21.9016 135.916 31.0458 149 32M188 29L180 27L189 27C188.547 25.7094 188.302 24.2794 187.258 23.2739C176.696 13.1016 176.355 40.8455 188 29M193 21L193 32L194 32L198 21L193 21M995 21L995 31L997 31L997 26L1002 26L1002 31L1003 31L1003 21L1002 21L1002 25L997 25L997 21L995 21M1072 21L1068 31L1078 31L1074 21L1072 21M1109 21C1108.54 25.2367 1108.54 29.4329 1113 31L1113 30L1113 24L1113 23L1111 21L1109 21M1165 21L1168 31L1172 23L1173 23L1175 31L1176 31L1179 21L1178 21L1176 29L1175 29L1171 21L1170 28L1169 28L1165 21M1200 21C1199.54 25.2367 1199.54 29.4329 1204 31L1204 30L1204 24L1204 23L1202 21L1200 21M1292 21C1291.54 25.2367 1291.54 29.4329 1296 31L1296 30L1296 24L1296 23L1294 21L1292 21M1316 21C1315.54 25.2366 1315.54 29.4329 1320 31L1320 30L1320 24L1320 23L1318 21L1316 21z"/>
<path style="fill:#615f64; stroke:none;" d="M36.3333 22.6667L36.6667 23.3333L36.3333 22.6667z"/>
<path style="fill:#182345; stroke:none;" d="M37.3333 22.6667L37.6667 23.3333L37.3333 22.6667M39.3333 22.6667L39.6667 23.3333L39.3333 22.6667z"/>
<path style="fill:#615f64; stroke:none;" d="M40.3333 22.6667L40.6667 23.3333L40.3333 22.6667z"/>
<path style="fill:#182345; stroke:none;" d="M126 26L133 26C130.654 22.4385 128.162 22.1678 126 26M143.09 23.1759C139.172 23.7371 139.897 30.3992 143.91 29.8241C147.828 29.2629 147.103 22.6008 143.09 23.1759M180 26L187 26C184.654 22.4385 182.162 22.1678 180 26z"/>
<path style="fill:#6d64f6; stroke:none;" d="M28.6667 23.3333L29.3333 23.6667L28.6667 23.3333M47.6667 23.3333L48.3333 23.6667L47.6667 23.3333z"/>
<path style="fill:#fefefe; stroke:none;" d="M1006.6 24.0471C1003.11 26.6208 1006.77 32.4536 1010.68 29.9529C1014.77 27.3431 1010.29 21.3322 1006.6 24.0471M1015 23L1015 31L1017 31L1017 24L1021 24L1021 31L1022 31L1023 24L1027 31C1030.66 22.1869 1020.89 23.0729 1015 23M1037 28L1031 27L1038 27C1030.25 12.9603 1029.39 39.6998 1037 28M1090.6 24.0471C1087.11 26.621 1090.77 32.4535 1094.68 29.9529C1098.77 27.3432 1094.29 21.3322 1090.6 24.0471M1099 23C1099.14 28.7225 1100.31 30.5144 1106 31L1106 23L1105 23L1101 30L1099 23M1118 23C1118.14 28.7225 1119.31 30.5144 1125 31L1125 23L1124 23L1120 30L1118 23M1128 23L1133 29L1128 29L1128 30C1131.43 30.7837 1132.86 30.4223 1134 27L1129 24L1134 25L1128 23M1188 28L1182 27L1189 27C1181.25 12.9604 1180.39 39.6997 1188 28M1198 31L1198 23C1188.56 23.6498 1188.55 30.305 1198 31M1222 28L1216 27L1223 27C1215.25 12.9603 1214.39 39.6997 1222 28M1224 23L1224 31L1226 31L1228 24L1224 23M1273.6 24.0471C1270.11 26.621 1273.77 32.4534 1277.68 29.9529C1281.77 27.3432 1277.29 21.3322 1273.6 24.0471M1282 23L1282 31L1284 31L1284 24L1288 24L1288 31L1290 31L1289 23L1282 23M1305 31L1305 23C1295.56 23.6498 1295.55 30.305 1305 31M1314 28C1308.22 29.616 1308.28 24.8132 1314 25C1304.34 17.8038 1307.85 37.4477 1314 28z"/>
<path style="fill:#6d64f6; stroke:none;" d="M33.6667 24.3333L34.3333 24.6667L33.6667 24.3333z"/>
<path style="fill:#615f64; stroke:none;" d="M35 24L36 25L35 24z"/>
<path style="fill:#6d64f6; stroke:none;" d="M37 24L38 25L37 24M39 24L40 25L39 24z"/>
<path style="fill:#615f64; stroke:none;" d="M41 24L42 25L41 24z"/>
<path style="fill:#6d64f6; stroke:none;" d="M42.6667 24.3333L43.3333 24.6667L42.6667 24.3333z"/>
<path style="fill:#fefefe; stroke:none;" d="M89 24L89 25L97 25L89 24z"/>
<path style="fill:#182345; stroke:none;" d="M1007.58 25.0818C1005.54 26.6157 1007.25 30.1636 1009.7 28.8287C1012.43 27.3374 1010.09 23.1921 1007.58 25.0818M1031 25L1031 26L1036 26L1036 24L1031 25M1072 24L1071 28L1075 28L1072 24M1081 24C1081.72 33.2224 1089.14 25.3593 1081 24M1091.58 25.0818C1089.54 26.6156 1091.25 30.1636 1093.7 28.8287C1096.43 27.3375 1094.09 23.1921 1091.58 25.0818M1182 25L1182 26L1187 26L1187 24L1182 25M1192.58 25.0818C1190.54 26.6157 1192.25 30.1636 1194.7 28.8287C1197.43 27.3375 1195.09 23.192 1192.58 25.0818M1216 25L1216 26L1221 26L1221 24L1216 25M1274.58 25.0818C1272.54 26.6156 1274.25 30.1637 1276.7 28.8287C1279.43 27.3375 1277.09 23.192 1274.58 25.0818M1299.58 25.0818C1297.54 26.6156 1299.25 30.1637 1301.7 28.8287C1304.43 27.3374 1302.09 23.1921 1299.58 25.0818z"/>
<path style="fill:#615f64; stroke:none;" d="M33 25L34 26L33 25z"/>
<path style="fill:#fefefe; stroke:none;" d="M34 25L35 26L34 25z"/>
<path style="fill:#182345; stroke:none;" d="M35.6667 25.3333L36.3333 25.6667L35.6667 25.3333M40.6667 25.3333L41.3333 25.6667L40.6667 25.3333z"/>
<path style="fill:#fefefe; stroke:none;" d="M42 25L43 26L42 25z"/>
<path style="fill:#615f64; stroke:none;" d="M43 25L44 26L43 25z"/>
<path style="fill:#6d64f6; stroke:none;" d="M33.6667 26.3333L34.3333 26.6667L33.6667 26.3333z"/>
<path style="fill:#615f64; stroke:none;" d="M35 26L36 27L35 26z"/>
<path style="fill:#6d64f6; stroke:none;" d="M37 26L38 27L37 26M39 26L40 27L39 26z"/>
<path style="fill:#615f64; stroke:none;" d="M41 26L42 27L41 26z"/>
<path style="fill:#6d64f6; stroke:none;" d="M42.6667 26.3333L43.3333 26.6667L42.6667 26.3333M28.6667 27.3333L29.3333 27.6667L28.6667 27.3333z"/>
<path style="fill:#615f64; stroke:none;" d="M30 27L31 28L30 27M36.3333 27.6667L36.6667 28.3333L36.3333 27.6667z"/>
<path style="fill:#182345; stroke:none;" d="M37.3333 27.6667L37.6667 28.3333L37.3333 27.6667M39.3333 27.6667L39.6667 28.3333L39.3333 27.6667z"/>
<path style="fill:#615f64; stroke:none;" d="M40.3333 27.6667L40.6667 28.3333L40.3333 27.6667M46 27L47 30L48 30L46 27z"/>
<path style="fill:#6d64f6; stroke:none;" d="M47.6667 27.3333L48.3333 27.6667L47.6667 27.3333z"/>
<path style="fill:#615f64; stroke:none;" d="M29.3333 28.6667L29.6667 29.3333L29.3333 28.6667M35 29L36 30L35 29z"/>
<path style="fill:#6d64f6; stroke:none;" d="M37 29L38 30L37 29M39 29L40 30L39 29z"/>
<path style="fill:#615f64; stroke:none;" d="M41 29L42 30L41 29z"/>
<path style="fill:#6d64f6; stroke:none;" d="M28 30L29 31L28 30M30 30L32 32L30 30z"/>
<path style="fill:#615f64; stroke:none;" d="M31 30L32 31L31 30M45 30L44 32L45 30z"/>
<path style="fill:#6d64f6; stroke:none;" d="M46 30L47 31L46 30M48 30L49 31L48 30z"/>
<path style="fill:#615f64; stroke:none;" d="M28 31L29 32L28 31M32 31L33 32L32 31z"/>
<path style="fill:#6d64f6; stroke:none;" d="M45 31L46 32L45 31z"/>
<path style="fill:#615f64; stroke:none;" d="M48 31L49 32L48 31z"/>
<path style="fill:#fefefe; stroke:none;" d="M31 32L32 33L31 32M45 32L46 33L45 32z"/>
<path style="fill:#6d64f6; stroke:none;" d="M37 33L38 34L37 33M39 33L40 34L39 33M36 34L37 35L36 34M40 34L41 35L40 34z"/>
<path style="fill:#fefefe; stroke:none;" d="M0 56L0 646L1366 646L1366 56L0 56z"/>
<path style="fill:#615f64; stroke:none;" d="M181 287L182 288L181 287z"/>
<path style="fill:#182345; stroke:none;" d="M160 304L161 304C164.986 298.605 168.542 297.562 175 298L175 299C169.958 300.198 153.143 309.621 164 314C168 304.023 203.817 295.197 206 309L210 307C204.557 299.674 195.818 297.182 187 297L187 296L190 295L190 294L184 294L184 293C192.93 293.001 199.118 294.854 207 299C206.48 292.181 201.642 291.602 196 289.4C185.025 285.115 160.792 289.579 160 304z"/>
<path style="fill:#6d64f6; stroke:none;" d="M191 287L192 288L191 287z"/>
<path style="fill:#615f64; stroke:none;" d="M178 288L179 289L178 288M193.667 288.333L194.333 288.667L193.667 288.333z"/>
<path style="fill:#6d64f6; stroke:none;" d="M175 289L176 290L175 289z"/>
<path style="fill:#615f64; stroke:none;" d="M176 289L177 290L176 289M196 289L197 290L196 289M172 290L173 291L172 290z"/>
<path style="fill:#6d64f6; stroke:none;" d="M198 290L199 291L198 290z"/>
<path style="fill:#615f64; stroke:none;" d="M170 291L171 292L170 291M201 291L202 292L201 291z"/>
<path style="fill:#6d64f6; stroke:none;" d="M202 291L203 292L202 291z"/>
<path style="fill:#615f64; stroke:none;" d="M168 293L169 294L168 293M184 293L184 294L190 294L190 295L187 296L187 297L191 293L184 293z"/>
<path style="fill:#6d64f6; stroke:none;" d="M191 293L189 297C195.41 297.524 204.161 299.446 208.088 305.131C210.112 308.062 207.55 319.364 212.999 319.364C218.909 319.364 214.421 308.217 212.986 306.001C207.913 298.163 200.064 294.227 191 293z"/>
<path style="fill:#615f64; stroke:none;" d="M194 293L195 294L194 293M206 293L207 294L206 293M167 294L168 295L167 294M177 294L178 295L177 294M198 294L199 295L198 294z"/>
<path style="fill:#6d64f6; stroke:none;" d="M162 295L163 296L162 295z"/>
<path style="fill:#615f64; stroke:none;" d="M163 295L164 296L163 295M166 295L167 296L166 295M173 295L174 296L173 295M200 295L201 296L200 295M207 295L207 299L208 299L207 295M161 296L162 297L161 296M167 297L168 298L167 297z"/>
<path style="fill:#6d64f6; stroke:none;" d="M165 326L164 315L163 315L163 317L162 317C159.699 307.07 164.527 302.284 174 299C159.723 291.593 148.657 325.457 165 326z"/>
<path style="fill:#615f64; stroke:none;" d="M170 297L171 298L170 297M193 297L194 298L193 297M204 297L205 298L204 297M160 298L161 299L160 298M174 298L175 299L174 298M164 299L165 300L164 299M172 299L173 300L172 299M200 299L201 300L200 299M163 300L164 301L163 300M169 300L170 301L169 300M202 300L203 301L202 300z"/>
<path style="fill:#6d64f6; stroke:none;" d="M159 301L160 302L159 301z"/>
<path style="fill:#615f64; stroke:none;" d="M162 301L163 302L162 301M167 301L168 302L167 301M204 301L205 302L204 301M159 302L159 306L160 306L159 302M161 302L162 303L161 302M193 302L193 303L196 303L193 302z"/>
<path style="fill:#6d64f6; stroke:none;" d="M201 302L202 303L201 302z"/>
<path style="fill:#615f64; stroke:none;" d="M202 302L203 303L202 302M164 303L165 304L164 303M187.667 303.333L188.333 303.667L187.667 303.333z"/>
<path style="fill:#6d64f6; stroke:none;" d="M189 303L190 304L189 303z"/>
<path style="fill:#615f64; stroke:none;" d="M204 303L205 304L204 303M163 304L164 305L163 304M181 304L181 305L184 305L181 304z"/>
<path style="fill:#6d64f6; stroke:none;" d="M184.667 304.333L185.333 304.667L184.667 304.333z"/>
<path style="fill:#615f64; stroke:none;" d="M205.333 304.667L205.667 305.333L205.333 304.667M208 304L209 305L208 304M162 305L163 306L162 305M173 305L173 306L179 306L173 305z"/>
<path style="fill:#6d64f6; stroke:none;" d="M179 305L180 306L179 305z"/>
<path style="fill:#615f64; stroke:none;" d="M212 305L213 306L212 305M169.667 306.333L170.333 306.667L169.667 306.333M208 307L209 308L208 307M166 308L167 309L166 308z"/>
<path style="fill:#6d64f6; stroke:none;" d="M207 308L207 312L208 312L207 308z"/>
<path style="fill:#615f64; stroke:none;" d="M165.333 309.667L165.667 310.333L165.333 309.667M206.333 309.667L206.667 310.333L206.333 309.667M210 309L211 310L210 309M215 309L215 312L216 312L215 309z"/>
<path style="fill:#182345; stroke:none;" d="M210.333 310.667L210.667 311.333L210.333 310.667z"/>
<path style="fill:#615f64; stroke:none;" d="M211 311L212 312L211 311z"/>
<path style="fill:#182345; stroke:none;" d="M216 311L216 314L217 314L216 311z"/>
<path style="fill:#615f64; stroke:none;" d="M164 312L165 313L164 312M207 312L207 316L208 316L207 312M210 312L211 313L210 312M217 312L216 318L217 318L217 312M160.667 313.333L161.333 313.667L160.667 313.333z"/>
<path style="fill:#6d64f6; stroke:none;" d="M164 313L165 314L164 313z"/>
<path style="fill:#fefefe; stroke:none;" d="M162 314L162 317L163 317L162 314z"/>
<path style="fill:#615f64; stroke:none;" d="M163 314L164 315L163 314M211 314L212 315L211 314z"/>
<path style="fill:#182345; stroke:none;" d="M211.333 315.667L211.667 316.333L211.333 315.667z"/>
<path style="fill:#6d64f6; stroke:none;" d="M208 316L209 317L208 316M268 324C267.805 307.522 251.828 322.893 262.995 323.941C264.641 324.096 266.349 323.999 268 324M274 316L274 324L283 324L283 316L274 316M322 316L322 324L331 324L331 316L322 316M347 324C346.805 307.522 330.828 322.893 341.995 323.941C343.641 324.096 345.349 323.999 347 324z"/>
<path style="fill:#615f64; stroke:none;" d="M156 317L155 321L156 321L156 317M208 317L209 318L208 317M211 317L212 318L211 317z"/>
<path style="fill:#182345; stroke:none;" d="M567 317L567 328L569 328L569 317L567 317M657 317L657 328L659 325L660 325L664 328L664 327C661.525 324.536 661.525 323.464 664 321L664 320L659 322L659 317L657 317M714 317L714 328L716 328L716 321L720 321L720 328L722 328L721 320L714 317z"/>
<path style="fill:#6d64f6; stroke:none;" d="M164 318L165 319L164 318z"/>
<path style="fill:#182345; stroke:none;" d="M540 318L543 328L547 320L548 320L550 328L551 328L554 318L553 318L551 326L550 326L546 318L545 325L544 325L540 318M624 318C623.539 322.237 623.539 326.433 628 328L628 327L628 321L628 320L626 318L624 318M649 318L645 328L655 328L651 318L649 318M670 318L673 328L677 320L678 320L680 328L681 328L684 318L683 318L681 326L680 326L676 318L675 325L674 325L670 318M708 318C707.539 322.237 707.539 326.433 712 328L712 327L712 321L712 320L710 318L708 318M750 318L746 328L756 328L752 318L750 318z"/>
<path style="fill:#6d64f6; stroke:none;" d="M155 319L156 320L155 319z"/>
<path style="fill:#615f64; stroke:none;" d="M159 319L159 322L160 322L161 322L159 319z"/>
<path style="fill:#182345; stroke:none;" d="M156.333 320.667L156.667 321.333L156.333 320.667M159 320L160 321L159 320M564 325L558 324L565 324C557.253 309.961 556.39 336.699 564 325M579 325C573.22 326.616 573.276 321.813 579 322C569.335 314.804 572.855 334.448 579 325M583.603 321.047C580.108 323.621 583.768 329.454 587.682 326.953C591.768 324.343 587.291 318.332 583.603 321.047M593 320L593 328L595 328L595 321L599 321L599 328L600 328L601 321L605 328C608.658 319.187 598.892 320.073 593 320M616 325L610 324L617 324C609.253 309.961 608.39 336.699 616 325M631.603 321.047C628.108 323.621 631.768 329.454 635.682 326.953C639.768 324.343 635.291 318.332 631.603 321.047M694 325L688 324L695 324C687.253 309.961 686.39 336.699 694 325M705 328L705 320C695.555 320.65 695.549 327.305 705 328M732 325L726 324L733 324C725.253 309.961 724.39 336.699 732 325M735 320L735 328L737 328L739 321L735 320M758 320L758 332L760 332L760 328C769.317 327.28 765.7 320.091 758 320M769 320L769 332L771 332L771 328C780.317 327.28 776.7 320.091 769 320z"/>
<path style="fill:#6d64f6; stroke:none;" d="M155 321L156 322L155 321z"/>
<path style="fill:#615f64; stroke:none;" d="M157 321L158 324L157 321z"/>
<path style="fill:#fefefe; stroke:none;" d="M558 322L558 323L563 323L563 321L558 322M584.579 322.082C582.54 323.616 584.25 327.164 586.697 325.829C589.43 324.337 587.091 320.192 584.579 322.082M610 322L610 323L615 323L615 321L610 322M632.579 322.082C630.54 323.616 632.25 327.164 634.697 325.829C637.43 324.337 635.091 320.192 632.579 322.082M649 321L648 325L652 325L649 321M688 322L688 323L693 323L693 321L688 322M699.579 322.082C697.54 323.616 699.25 327.164 701.697 325.829C704.43 324.337 702.091 320.192 699.579 322.082M726 322L726 323L731 323L731 321L726 322M750 321L749 325L753 325L750 321M760 321C760.718 330.222 768.144 322.359 760 321M771 321C771.718 330.222 779.144 322.359 771 321z"/>
<path style="fill:#615f64; stroke:none;" d="M158 324L159 325L158 324z"/>
<path style="fill:#6d64f6; stroke:none;" d="M243 327L243 334L252 334L252 327L243 327M258 327L258 334L268 334L268 327L258 327M322 327L322 334L331 334L331 327L322 327M337 327L337 334L347 334L347 327L337 327M353 327L353 334L362 334L362 327L353 327M133 336L133 337L245 337L211 336L133 336M131 337L132 338L131 337z"/>
<path style="fill:#182345; stroke:none;" d="M132 337L132 399L177 399L177 413L108 413C115.421 427.657 130.14 426 144 426L239 426C247.961 426 271.945 421.812 278.566 428.434C281.754 431.622 281 436.891 281 441C291.132 441 306.483 443.905 316 440.397C325.559 436.872 334.867 421.839 339 413L200 413C200 409.474 198.867 403.339 201.603 400.603C206.437 395.77 225.413 399 232 399C235.316 399 242.632 400.351 244.972 397.397C247.662 394 246 385.125 246 381L246 337L132 337z"/>
<path style="fill:#6d64f6; stroke:none;" d="M246 337L246 345L252 345L252 337L246 337M306 337L306 345L315 345L315 337L306 337M353 345L362 345L362 337C355.364 337.023 353.082 338.068 353 345M369 337L369 345L378 345L378 337L369 337z"/>
<path style="fill:#615f64; stroke:none;" d="M131 338L131 398L132 398L132 357L131 338z"/>
<path style="fill:#6d64f6; stroke:none;" d="M246 348L252 353L252 348L246 348M258 348L258 355L268 355L268 348L258 348M290 348L290 355L299 355L299 348L290 348M337 348L337 355L347 355L347 348L337 348M353 348L353 355L362 355L362 348L353 348z"/>
<path style="fill:#615f64; stroke:none;" d="M184 354L185 355L184 354z"/>
<path style="fill:#6d64f6; stroke:none;" d="M185.001 354.548C171.288 357.532 178.245 374.099 190.996 370.566C203.153 367.199 195.552 352.251 185.001 354.548z"/>
<path style="fill:#615f64; stroke:none;" d="M190 354L191 355L190 354z"/>
<path style="fill:#05c1ff; stroke:none;" d="M775 354L775 373L779 373L779 369L787 373C782.769 366.785 782.769 365.215 787 359L779 363L779 354L775 354M863 354L863 373L867 373L867 354L863 354z"/>
<path style="fill:#182345; stroke:none;" d="M1022 354L1022 373L1026 373L1026 354L1022 354z"/>
<path style="fill:#615f64; stroke:none;" d="M181 355L182 356L181 355M193 355L194 356L193 355z"/>
<path style="fill:#182345; stroke:none;" d="M541 355L541 373L545 373L545 355L541 355z"/>
<path style="fill:#05c1ff; stroke:none;" d="M635 355L635 373L639 373L639 364L640 364L643 373C647.68 371.527 648.782 367.45 650 363L651 363L651 373L654 373L654 355C648.641 356.687 647.018 363.146 645 368C642.208 363.198 641.072 356.045 635 355M658 355L658 373L669 373L669 371L662 371L662 366L668 366L668 363L662 363L662 358L669 358L669 355L658 355M672 355L672 373L676 373L676 366L685 373L681 367C688.643 357.954 680.706 355.006 672 355M688 355L688 373L692 373L692 362L693 362C695.225 366.76 697.427 372.057 703 373L703 355L700 355L700 367C696.532 362.488 694.022 356.018 688 355M715 368C718.62 377.932 731.525 370.394 725.562 364.699C723.586 362.813 720.489 361.968 718 361L718 359L727 360C725.461 355.128 717.562 352.696 715.712 359.043C714.013 364.875 730.189 371.594 715 368M732 355C730.449 362.057 729.722 372.695 739 373L735 362L739 362L739 359L735 359L735 355L732 355M797 355L797 373C800.733 373 805.512 373.723 808.891 371.821C822.642 364.08 804.785 355.005 797 355z"/>
<path style="fill:#182345; stroke:none;" d="M956 373L956 364L951 367L944 358L951 360C946.62 345.572 932.138 369.292 943.059 373.215C946.643 374.502 952.088 372.783 956 373M966 355L966 373L970 373L970 366L976 366L976 363L970 363L970 358L977 358L977 355L966 355z"/>
<path style="fill:#615f64; stroke:none;" d="M179 356L180 357L179 356M194 356L195 357L194 356M178 357L179 358L178 357M195 357L196 358L195 357M177.333 358.667L177.667 359.333L177.333 358.667M196 358L197 359L196 358z"/>
<path style="fill:#6d64f6; stroke:none;" d="M258 366L268 366C267.88 355.915 258.12 355.915 258 366M274 358L274 366L283 366L283 358L274 358M322 358L322 366L331 366L331 358L322 358M347 366C346.805 349.522 330.828 364.893 341.995 365.941C343.641 366.096 345.349 365.999 347 366z"/>
<path style="fill:#fefefe; stroke:none;" d="M676 358L676 364C681.896 362.77 682.427 358.5 676 358M801 358L801 371C811.278 369.363 812.053 358.607 801 358z"/>
<path style="fill:#615f64; stroke:none;" d="M197.333 359.667L197.667 360.333L197.333 359.667z"/>
<path style="fill:#182345; stroke:none;" d="M570 373L570 359C566.682 359.171 562.097 358.283 559.147 360.029C554.459 362.803 555.439 370.494 560.058 372.779C562.971 374.219 566.849 372.903 570 373M574 359L574 373L578 373C578.004 367.532 577.694 363.006 584 362L584 373L588 373L588 362C594.306 363.006 593.996 367.532 594 373L597 373C597 366.839 596.389 353.897 587 361L574 359M623 373L623 359C619.682 359.171 615.097 358.283 612.147 360.029C607.459 362.803 608.439 370.494 613.058 372.779C615.971 374.219 619.849 372.903 623 373z"/>
<path style="fill:#05c1ff; stroke:none;" d="M755 373L755 359C751.682 359.171 747.097 358.283 744.147 360.029C739.459 362.803 740.439 370.494 745.058 372.779C747.971 374.219 751.849 372.903 755 373M773 368C770.707 368.322 767.332 370.312 765.11 369.558C762.064 368.524 761.745 363.766 764.863 362.593C766.85 361.846 770.026 363.563 772 364C770.114 358.029 760.994 357.129 759.323 364.019C756.898 374.017 768.73 375.679 773 368M830 368C825.26 368.666 822.676 371.148 819 367L830 367C829.195 359.833 818.543 354.864 816.323 364.019C813.926 373.9 825.782 375.584 830 368M831 359C834.63 374.318 841.37 374.318 845 359C840.695 360.394 839.963 363.853 839 368L837 368C836.037 363.853 835.305 360.394 831 359M861 368C856.26 368.666 853.676 371.148 850 367L861 367C860.195 359.833 849.543 354.864 847.323 364.019C844.926 373.9 856.782 375.584 861 368M873.148 360.028C865.542 364.513 873.086 377.357 880.852 372.127C888.286 367.122 881.109 355.334 873.148 360.028M887 359L887 380L891 380L891 372C898.346 375.194 906.621 366.726 899.566 360.603C896.568 358.001 890.726 359.146 887 359M919 368C914.26 368.666 911.676 371.148 908 367L919 367C918.195 359.833 907.543 354.864 905.323 364.019C902.926 373.9 914.782 375.584 919 368M921 359L921 373L925 373L929 359L921 359z"/>
<path style="fill:#182345; stroke:none;" d="M980 359L980 373L984 373L988 359L980 359M1004 368C999.26 368.666 996.676 371.148 993 367L1004 367C1003.19 359.833 992.543 354.864 990.323 364.019C987.926 373.9 999.782 375.584 1004 368M1020 368C1015.26 368.666 1012.68 371.148 1009 367L1020 367C1019.19 359.833 1008.54 354.864 1006.32 364.019C1003.93 373.9 1015.78 375.584 1020 368M1043 373L1043 359C1039.68 359.171 1035.1 358.283 1032.15 360.029C1027.46 362.803 1028.44 370.494 1033.06 372.779C1035.97 374.219 1039.85 372.903 1043 373M1047 359L1047 373L1051 373C1051 367.532 1050.69 363.006 1057 362L1058 373L1061 373C1060.99 361.634 1058.21 359 1047 359M1078 368C1075.71 368.322 1072.33 370.312 1070.11 369.558C1067.06 368.524 1066.75 363.766 1069.86 362.593C1071.85 361.846 1075.03 363.563 1077 364C1075.11 358.029 1065.99 357.129 1064.32 364.019C1061.9 374.017 1073.73 375.679 1078 368M1094 368C1089.26 368.666 1086.68 371.148 1083 367L1094 367C1093.19 359.833 1082.54 354.864 1080.32 364.019C1077.93 373.9 1089.78 375.584 1094 368M1096 359L1096 373L1100 373L1104 359L1096 359z"/>
<path style="fill:#615f64; stroke:none;" d="M176 361L176 365L177 365L176 361z"/>
<path style="fill:#fefefe; stroke:none;" d="M819 365L827 365C824.498 361.366 821.339 361.097 819 365M850 365L858 365C855.498 361.366 852.339 361.098 850 365M908 365L916 365C913.498 361.366 910.339 361.097 908 365M993 365L1001 365C998.498 361.366 995.339 361.097 993 365M1009 365L1017 365C1014.5 361.366 1011.34 361.097 1009 365M1083 365L1091 365C1088.5 361.366 1085.34 361.097 1083 365M560.603 363.032C556.857 365.942 561.546 372.664 565.397 369.214C568.995 365.99 564.598 359.931 560.603 363.032M613.603 363.032C609.857 365.942 614.546 372.664 618.397 369.214C621.995 365.99 617.598 359.931 613.603 363.032M745.603 363.032C741.857 365.942 746.546 372.664 750.397 369.214C753.995 365.99 749.598 359.931 745.603 363.032M874.603 363.032C870.864 365.944 875.472 372.878 879.397 369.238C882.93 365.962 878.618 359.907 874.603 363.032M892.6 363.032C888.937 365.918 893.434 372.902 897.255 369.238C900.623 366.009 896.592 359.888 892.6 363.032M1033.6 363.032C1029.86 365.942 1034.55 372.664 1038.4 369.214C1041.99 365.99 1037.6 359.931 1033.6 363.032z"/>
<path style="fill:#615f64; stroke:none;" d="M197.333 365.667L197.667 366.333L197.333 365.667z"/>
<path style="fill:#fefefe; stroke:none;" d="M943 365C941.859 370.013 944.43 370.951 949 370L943 365z"/>
<path style="fill:#615f64; stroke:none;" d="M177.333 366.667L177.667 367.333L177.333 366.667M196 367L197 368L196 367M178 368L179 369L178 368M195 368L196 369L195 368M179 369L180 370L179 369M194 369L195 370L194 369M181 370L182 371L181 370M192.667 370.333L193.333 370.667L192.667 370.333M183 371L183 372L192 372L183 371z"/>
<path style="fill:#05c1ff; stroke:none;" d="M543.228 396.742C537.8 399.278 537.8 422.722 543.228 425.258C547.732 427.361 555.127 426 560 426L600 426C604.719 426 613.61 427.689 617.682 424.972C622.209 421.951 621.869 399.123 616.772 396.742C612.268 394.639 604.873 396 600 396L561 396C555.871 396 547.962 394.531 543.228 396.742z"/>
<path style="fill:#6d64f6; stroke:none;" d="M131 398L132 399L131 398z"/>
<path style="fill:#615f64; stroke:none;" d="M245 398L246 399L245 398z"/>
<path style="fill:#6d64f6; stroke:none;" d="M132 399L133 400L132 399z"/>
<path style="fill:#615f64; stroke:none;" d="M133 399L133 400L176 400L176 413L177 413L177 399L133 399M200 413L201 413L201 400L245 400L213 399L201.603 400.028L200 413z"/>
<path style="fill:#6d64f6; stroke:none;" d="M201 400L201 413L202 413L201 400M620 400C620 405.977 622.428 418.898 618.397 423.682C614.742 428.019 604.086 426 599 426L544 426L544 427C558.316 433.889 584.176 429 600 429C605.554 429 613.71 430.486 618.891 428.258C626.06 425.175 624.408 404.705 620 400z"/>
<path style="fill:#fefefe; stroke:none;" d="M554 406L551 415L559 415L556 406L554 406M560 406L560 415L566 413L567 413L568 413C570.369 417.112 576.08 413.065 573.278 409.333C570.808 406.044 563.481 410.084 560 406M584 407C583.13 410.339 583.134 414.172 587 415L587 408L584 407M576 408L576 415L582 415L582 408L580 408L580 414L576 408M591 408L591 415L592 415L592 410L595 410L595 415L597 415L597 410L600 410L600 415L602 413L603 413L609 414L609 413L604 413L604 412L609 412C607.061 406.181 596.379 408.47 591 408z"/>
<path style="fill:#05c1ff; stroke:none;" d="M554 410L554 412L556 412L556 410L554 410M561 411L561 413L562 414L564 414L565 410L561 411M569 410L570 414L572 414L573 410L569 410M604 410L604 411L607 411L604 410z"/>
<path style="fill:#6d64f6; stroke:none;" d="M106 413L108 415L106 413z"/>
<path style="fill:#615f64; stroke:none;" d="M107 413L108 414L107 413z"/>
<path style="fill:#6d64f6; stroke:none;" d="M339 413L340 414L339 413z"/>
<path style="fill:#615f64; stroke:none;" d="M338 414L339 415L338 414z"/>
<path style="fill:#6d64f6; stroke:none;" d="M108 415L109 416L108 415M338 415L339 416L338 415M109 416L110 417L109 416z"/>
<path style="fill:#615f64; stroke:none;" d="M337 416L338 417L337 416z"/>
<path style="fill:#6d64f6; stroke:none;" d="M110 417L111 418L110 417z"/>
<path style="fill:#615f64; stroke:none;" d="M111 417L112 418L111 417M336.333 417.667L336.667 418.333L336.333 417.667M112 418L113 419L112 418M113 419L114 420L113 419M335 419L336 420L335 419M114 420L115 421L114 420M115 421L116 422L115 421M334 421L335 422L334 421M116 422L117 423L116 422M333 422L334 423L333 422z"/>
<path style="fill:#6d64f6; stroke:none;" d="M117 423L118 424L117 423z"/>
<path style="fill:#615f64; stroke:none;" d="M118 423L119 424L118 423M332 423L333 424L332 423M119 424L120 425L119 424z"/>
<path style="fill:#6d64f6; stroke:none;" d="M332 424L333 425L332 424z"/>
<path style="fill:#615f64; stroke:none;" d="M120 425L121 426L120 425M331 425L332 426L331 425z"/>
<path style="fill:#6d64f6; stroke:none;" d="M122 426L122 427L276 427C264.068 421.993 242.991 426 230 426L122 426z"/>
<path style="fill:#615f64; stroke:none;" d="M276 426L277 427L276 426M330 426L331 427L330 426z"/>
<path style="fill:#6d64f6; stroke:none;" d="M277 427L278 428L277 427z"/>
<path style="fill:#615f64; stroke:none;" d="M278 427L279 428L278 427M329 427L327 431L328 431L329 427M279.333 428.667L279.667 429.333L279.333 428.667z"/>
<path style="fill:#6d64f6; stroke:none;" d="M329 428L330 429L329 428M328 429L329 430L328 429z"/>
<path style="fill:#615f64; stroke:none;" d="M280 430L280 441L281 441L280 430M326 431L327 432L326 431M325 432L326 433L325 432M324 433L325 434L324 433M323 434L324 435L323 434M322 435L323 436L322 435M321 436L322 437L321 436M320 437L321 438L320 437M319 438L320 439L319 438M318 439L319 440L318 439M317 440L318 441L317 440z"/>
<path style="fill:#6d64f6; stroke:none;" d="M280 441L281 442L280 441z"/>
<path style="fill:#615f64; stroke:none;" d="M280 445L280 462L281 462L280 445z"/>
<path style="fill:#182345; stroke:none;" d="M281 445L281 462L311 446L281 445z"/>
<path style="fill:#6d64f6; stroke:none;" d="M311 445L312 446L311 445z"/>
<path style="fill:#615f64; stroke:none;" d="M309 446L310 447L309 446M308 447L309 448L308 447M230 448L205 449L158 449L158 450L213 450L230 448z"/>
<path style="fill:#182345; stroke:none;" d="M231 448L211 450L160 450L160 451C183.697 460.866 205.853 470.877 232 472L231 448z"/>
<path style="fill:#615f64; stroke:none;" d="M306 448L307 449L306 448z"/>
<path style="fill:#6d64f6; stroke:none;" d="M307 448L308 449L307 448M157 449L158 450L157 449z"/>
<path style="fill:#615f64; stroke:none;" d="M303 451L306 450L303 451z"/>
<path style="fill:#6d64f6; stroke:none;" d="M304 450L305 451L304 450z"/>
<path style="fill:#615f64; stroke:none;" d="M161 451L162 452L161 451M302 451L303 452L302 451M163 452L164 453L163 452M300 452L301 453L300 452M165 453L166 454L165 453M298 453L299 454L298 453z"/>
<path style="fill:#6d64f6; stroke:none;" d="M299 453L300 454L299 453z"/>
<path style="fill:#615f64; stroke:none;" d="M167 454L168 455L167 454M296.667 454.333L297.333 454.667L296.667 454.333M169 455L170 456L169 455M294.667 455.333L295.333 455.667L294.667 455.333z"/>
<path style="fill:#6d64f6; stroke:none;" d="M171 456L172 457L171 456M232 456L232 472L233 472L232 456z"/>
<path style="fill:#615f64; stroke:none;" d="M293 456L294 457L293 456z"/>
<path style="fill:#6d64f6; stroke:none;" d="M173 457L174 458L173 457z"/>
<path style="fill:#615f64; stroke:none;" d="M174 457L175 458L174 457M291 457L292 458L291 457M176 458L177 459L176 458M289 458L290 459L289 458M178.667 459.333L179.333 459.667L178.667 459.333M286.667 459.333L287.333 459.667L286.667 459.333M284.667 460.333L285.333 460.667L284.667 460.333z"/>
<path style="fill:#6d64f6; stroke:none;" d="M183 461L184 462L183 461z"/>
<path style="fill:#615f64; stroke:none;" d="M282 461L283 462L282 461M186 462L187 463L186 462z"/>
<path style="fill:#6d64f6; stroke:none;" d="M280 462L281 463L280 462M188 463L189 464L188 463z"/>
<path style="fill:#615f64; stroke:none;" d="M189 463L190 464L189 463z"/>
<path style="fill:#6d64f6; stroke:none;" d="M191 464L192 465L191 464z"/>
<path style="fill:#615f64; stroke:none;" d="M192 464L193 465L192 464z"/>
<path style="fill:#6d64f6; stroke:none;" d="M194 465L195 466L194 465z"/>
<path style="fill:#615f64; stroke:none;" d="M195 465L196 466L195 465M198 466L199 467L198 466z"/>
<path style="fill:#6d64f6; stroke:none;" d="M201 467L202 468L201 467z"/>
<path style="fill:#615f64; stroke:none;" d="M202 467L203 468L202 467z"/>
<path style="fill:#6d64f6; stroke:none;" d="M205 468L206 469L205 468z"/>
<path style="fill:#615f64; stroke:none;" d="M206 468L207 469L206 468z"/>
<path style="fill:#6d64f6; stroke:none;" d="M209 469L210 470L209 469z"/>
<path style="fill:#615f64; stroke:none;" d="M210.667 469.333L211.333 469.667L210.667 469.333z"/>
<path style="fill:#6d64f6; stroke:none;" d="M214 470L215 471L214 470z"/>
<path style="fill:#615f64; stroke:none;" d="M215.667 470.333L216.333 470.667L215.667 470.333z"/>
<path style="fill:#6d64f6; stroke:none;" d="M222.667 471.333L223.333 471.667L222.667 471.333z"/>
<path style="fill:#615f64; stroke:none;" d="M224 471L224 472L227 472L224 471z"/>
<path style="fill:#182345; stroke:none;" d="M0 646L0 690L911 690L1215 690L1366 690L1366 646L0 646z"/>
<path style="fill:#fefefe; stroke:none;" d="M548 652L548 663L550 663L550 656L554 656L554 663L556 663L555 655L548 652M558.667 652.333L559.333 652.667L558.667 652.333M595 652L595 663C607.128 663 602.708 655.762 595 652M613.667 652.333L614.333 652.667L613.667 652.333M635.667 652.333L636.333 652.667L635.667 652.333M706 652L706 656C697.263 653.674 698.277 662.359 707 663L706 652M713 652L713 663C725.128 663 720.708 655.762 713 652M818 652L818 663L820 663L820 656L824 656L824 663L826 663L825 655L818 652M540 653L540 654L542 663L544 663L547 654L540 653M617 653C616.539 657.237 616.54 661.433 621 663L621 662L621 656L621 655L619 653L617 653M685 653C684.539 657.237 684.54 661.433 689 663L689 662L689 656L689 655L687 653L685 653M738 653L734 663L744 663L740 653L738 653M775 653L775 663L777 663L777 659L778 659L783 663L783 662C779.403 659.021 779.403 656.979 783 654L783 653L777 656L775 653M794 653C793.539 657.237 793.54 661.433 798 663L798 662L798 656L798 655L796 653L794 653M558 655L558 663L560 663L560 655L558 655M562 655L567 661L562 661L562 662C565.43 662.784 566.864 662.422 568 659L563 656L568 657L562 655M573 655L576 663L577 663L579 658L583 663L585 655L584 655L582 660L578 655L577 662L576 662L573 655M593 660L587 659L594 659C586.253 644.961 585.39 671.699 593 660M605 655L610 661L605 661L605 662C608.43 662.784 609.864 662.422 611 659L606 656L611 657L605 655M613 655L613 663L615 663L615 655L613 655M629 660L623 659L630 659C622.253 644.961 621.39 671.699 629 660M635 655L635 663L637 663L637 655L635 655M639 655L644 661L639 661L639 662C642.43 662.784 643.864 662.422 645 659L640 656L645 657L639 655M658 660C652.22 661.616 652.276 656.813 658 657C648.335 649.804 651.855 669.448 658 660M660 655L660 663L662 663L664 656L660 655M673 660L667 659L674 659C666.253 644.961 665.39 671.699 673 660M683 663L683 655C673.555 655.65 673.549 662.305 683 663M697 660L691 659L698 659C690.253 644.961 689.39 671.699 697 660M722 655L724 667L725 667L730 655L729 655L727 661L726 661L722 655M745 655L745 663L747 663L749 656L745 655M751 655C751.139 660.722 752.31 662.515 758 663L758 655L757 655L753 662L751 655M761 655L761 663L763 663L763 656L767 656L767 663L769 663L768 655L761 655M792 663L792 655C782.555 655.65 782.549 662.305 792 663M800.603 656.047C797.108 658.621 800.768 664.454 804.682 661.953C808.768 659.343 804.291 653.332 800.603 656.047M816 660C810.22 661.616 810.276 656.813 816 657C806.335 649.804 809.855 669.448 816 660z"/>
<path style="fill:#182345; stroke:none;" d="M587 657L587 658L592 658L592 656L587 657M597 656C597.718 665.222 605.144 657.359 597 656M623 657L623 658L628 658L628 656L623 657M667 657L667 658L672 658L672 656L667 657M677.579 657.082C675.54 658.616 677.25 662.164 679.697 660.829C682.43 659.337 680.091 655.192 677.579 657.082M691 657L691 658L696 658L696 656L691 657M701.579 657.082C699.54 658.616 701.25 662.164 703.697 660.829C706.43 659.337 704.091 655.192 701.579 657.082M715 656C715.718 665.222 723.144 657.359 715 656M738 656L737 660L741 660L738 656M786.579 657.082C784.54 658.616 786.25 662.164 788.697 660.829C791.43 659.337 789.091 655.192 786.579 657.082M801.579 657.082C799.54 658.616 801.25 662.164 803.697 660.829C806.43 659.337 804.091 655.192 801.579 657.082z"/>
<path style="fill:#fefefe; stroke:none;" d="M643 673L643 677C635.419 675.275 636.977 682.405 644 683L643 673M674 673L674 677C666.419 675.275 667.977 682.405 675 683L674 673M703 676L706 674L703 683L709 683L709 682L705 682L709 675C706.184 673.911 704.881 673.516 703 676M749 676L752 674L749 683L755 683L755 682L751 682L755 675C752.184 673.911 750.881 673.516 749 676M758.259 674.346C754.968 675.585 755.635 683.571 759.741 682.248C763.25 681.118 762.044 672.921 758.259 674.346M764 676L767 674L764 683L770 683L770 682L766 682L770 675C767.184 673.911 765.881 673.516 764 676M771 676L774 674L771 683L777 683L777 682L773 682L777 675C774.184 673.911 772.881 673.516 771 676M590 674L590 683L594 683L594 682L591 682L590 674M612 674C611.586 677.821 611.611 680.826 615 683L615 682L615 677L615 676L612 674M655 674C654.586 677.822 654.611 680.826 658 683L658 682L658 677L658 676L655 674M698 674L698 675L700 683L701 683L701 674L698 674M717 674L717 683C726.066 682.499 726.065 674.501 717 674z"/>
<path style="fill:#182345; stroke:none;" d="M718 675L718 682C723.714 681.046 723.714 675.954 718 675M757 675L758 682L760 682L761 675L757 675z"/>
<path style="fill:#fefefe; stroke:none;" d="M603 683L603 676C595.015 676.633 595.018 682.324 603 683M605 676L609 682L605 681L610 682L610 680L606 677L610 678L605 676M620 676C620.155 680.724 621.11 682.619 626 683L626 676L625 676L625 682L620 676M628 676L628 686L629 686L629 682C636.581 683.725 635.023 676.595 628 676M653 683L653 676C645.015 676.633 645.018 682.324 653 683M666 682L666 681L661 682L661 680L667 680C661.862 671.646 656.995 684.049 666 682M681.603 677.086C678.732 679.051 681.522 683.851 684.682 681.914C687.974 679.897 684.628 675.015 681.603 677.086M688 676L688 683L689 683L693 677L693 683L694 683L694 676L688 676M732 682L732 681L727 682L727 680L733 680C727.862 671.646 722.995 684.049 732 682M740 682L740 681L735 682L735 677L740 678C734.234 673.827 732.101 683.798 740 682z"/>
<path style="fill:#182345; stroke:none;" d="M597 677L601 682C601.138 678.558 600.403 677.593 597 677M630.603 678.157C628.87 679.314 630.664 682.001 632.397 680.843C634.13 679.685 632.336 676.999 630.603 678.157M638 677L642 682C642.138 678.558 641.403 677.593 638 677M647 677L651 682C651.138 678.558 650.403 677.593 647 677M661 677L661 679L665 679L665 677L661 677M669 677L673 682C673.138 678.558 672.403 677.593 669 677M681 677L685 682C685.138 678.558 684.403 677.593 681 677M727 677L727 679L731 679L731 677L727 677z"/>
<path style="fill:#fefefe; stroke:none;" d="M710 678L710 679L715 679L710 678M742 678L742 679L747 679L742 678z"/>
<path style="fill:#615f64; stroke:none;" d="M48 689L48 690L392 690L361 689L291 689L48 689M688 689L688 690L736 690C723.586 684.791 701.526 689 688 689M1361 689L1362 690L1361 689z"/>
</svg>
